<svg width="167" height="47" viewBox="0 0 167 47" fill="none" xmlns="http://www.w3.org/2000/svg">
<path d="M27.7189 43.852L25.3296 46.2412C24.318 47.2529 22.682 47.2529 21.6811 46.2412L0.758759 25.3296C-0.25292 24.318 -0.25292 22.6821 0.758759 21.6811L21.6811 0.758759C22.6928 -0.25292 24.3287 -0.25292 25.3296 0.758759L27.7189 3.14804C28.7414 4.17048 28.7198 5.83868 27.6759 6.83959L14.707 19.195H45.6385C47.07 19.195 48.2215 20.3466 48.2215 21.778V25.222C48.2215 26.6534 47.07 27.805 45.6385 27.805H14.707L27.6759 40.1604C28.7306 41.1613 28.7521 42.8295 27.7189 43.852Z" fill="black"/>
<path d="M79.352 35.436H81.8C83.384 35.436 84.596 35.064 85.436 34.32C86.276 33.552 86.696 32.472 86.696 31.08C86.696 29.664 86.276 28.572 85.436 27.804C84.596 27.012 83.384 26.616 81.8 26.616H79.352V35.436ZM79.352 24.744H82.7C83.612 24.384 84.344 23.844 84.896 23.124C85.448 22.38 85.724 21.432 85.724 20.28C85.724 19.128 85.34 18.18 84.572 17.436C83.828 16.668 82.736 16.284 81.296 16.284H79.352V24.744ZM81.296 14.448C84.464 14.448 86.78 15.024 88.244 16.176C89.732 17.304 90.476 18.768 90.476 20.568C90.476 22.776 89.372 24.372 87.164 25.356C88.532 25.764 89.576 26.472 90.296 27.48C91.04 28.488 91.412 29.676 91.412 31.044C91.412 32.964 90.608 34.488 89 35.616C87.416 36.744 85.076 37.308 81.98 37.308H72.404C72.404 37.14 72.404 36.912 72.404 36.624C72.404 36.336 72.452 36.012 72.548 35.652C73.34 35.532 73.916 35.34 74.276 35.076C74.636 34.812 74.816 34.344 74.816 33.672V16.536C74.096 16.248 73.268 16.104 72.332 16.104C72.332 16.008 72.332 15.84 72.332 15.6C72.332 15.36 72.368 14.976 72.44 14.448H81.296ZM99.2274 32.808C99.2274 33.456 99.4074 33.972 99.7674 34.356C100.151 34.74 100.727 34.932 101.495 34.932C102.287 34.932 102.995 34.584 103.619 33.888V29.208L102.035 29.64C100.163 30.168 99.2274 31.224 99.2274 32.808ZM107.327 37.776C106.511 37.776 105.767 37.608 105.095 37.272C104.447 36.912 104.003 36.408 103.763 35.76C102.611 37.104 101.231 37.776 99.6234 37.776C98.0394 37.776 96.7914 37.344 95.8794 36.48C94.9674 35.616 94.5114 34.512 94.5114 33.168C94.5114 31.824 94.9434 30.756 95.8074 29.964C96.6714 29.172 97.9794 28.596 99.7314 28.236L103.619 27.444V26.148C103.619 25.236 103.391 24.576 102.935 24.168C102.503 23.736 101.699 23.52 100.523 23.52C99.3714 23.52 98.0394 23.784 96.5274 24.312L95.6274 22.98C97.6434 21.228 99.9714 20.352 102.611 20.352C104.411 20.352 105.767 20.844 106.679 21.828C107.591 22.812 108.047 24.204 108.047 26.004V33.168C108.047 34.392 108.431 35.004 109.199 35.004C109.319 35.004 109.763 34.932 110.531 34.788L110.891 35.724C109.787 37.092 108.599 37.776 107.327 37.776ZM119.933 37.776C117.893 37.776 116.093 37.044 114.533 35.58C112.997 34.092 112.229 32.016 112.229 29.352C112.229 26.664 113.093 24.492 114.821 22.836C116.549 21.18 118.685 20.352 121.229 20.352C122.885 20.352 124.481 20.736 126.017 21.504C125.993 22.944 125.825 24.516 125.513 26.22C125.249 26.22 124.877 26.172 124.397 26.076C124.325 24.996 123.977 24.144 123.353 23.52C122.753 22.896 121.997 22.584 121.085 22.584C119.837 22.584 118.829 23.112 118.061 24.168C117.317 25.224 116.945 26.808 116.945 28.92C116.945 31.008 117.329 32.556 118.097 33.564C118.889 34.548 119.957 35.04 121.301 35.04C122.669 35.04 124.229 34.632 125.981 33.816L126.665 34.824C124.697 36.792 122.453 37.776 119.933 37.776ZM148.236 35.652C148.236 35.724 148.236 35.892 148.236 36.156C148.236 36.396 148.176 36.78 148.056 37.308H142.188L137.58 30.612C137.388 30.324 137.208 30.12 137.04 30L135.204 31.8V35.184C135.804 35.448 136.524 35.604 137.364 35.652C137.364 35.748 137.364 35.916 137.364 36.156C137.364 36.396 137.328 36.78 137.256 37.308H128.292C128.268 37.14 128.256 36.912 128.256 36.624C128.256 36.312 128.316 35.988 128.436 35.652C129.228 35.532 129.804 35.34 130.164 35.076C130.548 34.788 130.74 34.32 130.74 33.672V14.448C130.524 14.424 130.212 14.412 129.804 14.412C129.396 14.412 128.892 14.424 128.292 14.448C128.34 13.704 128.424 13.164 128.544 12.828C130.584 12.084 132.804 11.628 135.204 11.46V29.1L141.432 22.944C140.448 22.752 139.608 22.488 138.912 22.152C138.912 21.6 138.984 21.144 139.128 20.784H147.156C147.156 21.552 147.12 22.104 147.048 22.44C145.512 22.44 144.204 22.98 143.124 24.06L139.884 27.228C140.46 27.516 141.06 28.116 141.684 29.028L144.708 33.456C145.284 34.296 145.8 34.86 146.256 35.148C146.736 35.436 147.396 35.604 148.236 35.652Z" fill="black"/>
</svg>
