<svg width="1920" height="1080" viewBox="0 0 1920 1080" fill="none" xmlns="http://www.w3.org/2000/svg">
<g clip-path="url(#clip0_193_17)">
<rect width="1920" height="1080" fill="#7559FF"/>
<g filter="url(#filter0_f_193_17)">
<g filter="url(#filter1_f_193_17)">
<path d="M-140.264 781.453C-198.022 495.228 1212.06 178.39 1918 72.5C1930.65 253 1918 548.359 1918 716.5C1918 884.641 666.708 998.076 35.9996 1036.05C15.4996 1074.05 -82.5054 1067.68 -140.264 781.453Z" fill="#0088FF"/>
<path d="M-140.665 760.157C-180.677 561.821 793.271 289.01 1282.31 215.634C1282.31 333.603 725.043 434.443 725.043 550.954C725.043 667.465 402.582 989.919 -34.3375 1016.23C-53.1085 1013.51 -100.653 958.493 -140.665 760.157Z" fill="#8A36FF"/>
</g>
<path d="M-129.686 934.838C-140.193 870.427 115.575 781.829 244 758C244 796.311 97.6576 829.06 97.6576 866.898C97.6576 904.736 12.9763 1009.46 -101.763 1018C-106.693 1017.12 -119.178 999.249 -129.686 934.838Z" fill="#42CAFF"/>
<path d="M1353.5 342.5C1245.82 317.981 1157.2 553.888 917.873 429.332C955.751 377.258 -105.499 718.5 -170.499 643C-203.032 605.213 1746.28 26.8924 1947.5 155.499C1954.91 162.723 1393.54 351.617 1353.5 342.5Z" fill="#00C8FF"/>
<path d="M1022.17 551.722C1077.78 647.138 680.119 741.511 440.527 865.553C419.739 804.608 495.196 727.914 474.665 667.722C454.134 607.53 656.826 484.488 877.802 393.939C887.973 392.037 966.554 456.306 1022.17 551.722Z" fill="#42CAFF"/>
<path d="M529.296 853.308C394.179 822.543 207.859 1124.41 -92.4354 968.118C-44.9079 902.778 -159.452 764.76 -112.511 700.228C-65.5712 635.696 339.551 382.014 592.033 543.383C601.33 552.447 579.539 864.748 529.296 853.308Z" fill="#5EC5F5"/>
<path d="M666.44 976.989C552.625 1013.04 377.981 1178.51 174.026 1072.36C211.904 1020.28 120.616 910.288 158.026 858.857C195.436 807.427 445.78 637.893 647 766.5C-220.457 978.292 459.719 985.369 666.44 976.989C686.178 970.737 704.086 968.377 720.001 972.001C726.188 973.41 704.222 975.457 666.44 976.989Z" fill="#FF5558"/>
<path d="M-121.179 1015.52C-96.5077 1057.71 368.904 750.998 255.821 984.523C209.754 985.933 144.261 1152.46 145.821 1134.02C148.194 1105.98 -21.4581 1139.74 -98.179 1131.02C-207.091 1165.63 -145.851 973.339 -121.179 1015.52Z" fill="white"/>
</g>
<g style="mix-blend-mode:color-dodge" filter="url(#filter2_f_193_17)">
<g filter="url(#filter3_f_193_17)">
<path d="M233.736 1032.62C175.978 746.396 1586.06 429.559 2292 323.669C2304.65 504.169 2292 799.527 2292 967.669C2292 1135.81 1040.71 1249.24 410 1287.22C389.5 1325.22 291.495 1318.85 233.736 1032.62Z" fill="#0088FF"/>
<path d="M233.335 1011.33C193.323 812.99 1167.27 540.178 1656.31 466.803C1656.31 584.772 1099.04 685.611 1099.04 802.123C1099.04 918.634 776.582 1241.09 339.663 1267.4C320.892 1264.68 273.347 1209.66 233.335 1011.33Z" fill="#8A36FF"/>
</g>
<path d="M244.987 1013.33C204.975 814.989 1178.92 542.178 1667.96 468.802C1667.96 586.771 1110.7 687.611 1110.7 804.122C1110.7 920.633 788.235 1243.09 351.315 1269.4C332.544 1266.68 284.999 1211.66 244.987 1013.33Z" fill="#42CAFF"/>
<path d="M1727.5 593.659C1619.82 569.14 1531.2 805.047 1291.87 680.49C1329.75 628.417 268.5 969.658 203.5 894.159C170.968 856.371 2120.28 278.051 2321.5 406.658C2328.91 413.882 1767.54 602.776 1727.5 593.659Z" fill="#00C8FF"/>
<path d="M1396.17 802.89C1451.78 898.306 1054.12 992.679 814.527 1116.72C793.739 1055.78 869.196 979.082 848.665 918.89C828.134 858.698 1030.83 735.656 1251.8 645.107C1261.97 643.205 1340.55 707.474 1396.17 802.89Z" fill="#0C7EAC"/>
<path d="M656.499 1025C548.815 1000.48 155.324 1159.56 -84.0006 1035C-46.1226 982.926 199.615 1036.46 237.025 985.028C274.435 933.598 520.074 765.502 576.999 821.002C584.408 828.226 696.541 1034.12 656.499 1025Z" fill="#C2B6B6"/>
<path d="M1043.53 1232.03C935.843 1207.51 787.351 1448.08 548.026 1323.53C585.904 1271.45 494.616 1161.46 532.026 1110.03C569.436 1058.6 914.279 867.393 1115.5 996C1122.91 1003.22 1083.57 1241.14 1043.53 1232.03Z" fill="#9CFB49"/>
<path d="M156.82 842.524C181.492 884.708 643.583 628.476 530.5 862C484.434 863.411 420.439 976.461 422 958.024C424.373 929.983 303.221 966.741 226.5 958.024C117.588 992.637 132.149 800.34 156.82 842.524Z" fill="white"/>
</g>
<g filter="url(#filter4_f_193_17)">
<g filter="url(#filter5_f_193_17)">
<path d="M694.946 100.619C752.704 -185.606 -657.381 -502.443 -1363.32 -608.334C-1375.97 -427.834 -1363.32 -132.475 -1363.32 35.6663C-1363.32 203.807 -112.026 317.242 518.682 355.213C539.182 393.213 637.187 386.844 694.946 100.619Z" fill="#0088FF"/>
<path d="M695.347 79.3234C735.359 -119.013 -238.589 -391.824 -727.623 -465.2C-727.623 -347.231 -170.361 -246.391 -170.361 -129.88C-170.361 -13.3685 152.099 309.085 589.019 335.396C607.79 332.679 655.335 277.66 695.347 79.3234Z" fill="#8A36FF"/>
</g>
<path d="M683.695 81.3229C723.707 -117.013 -250.242 -389.825 -739.276 -463.2C-739.276 -345.231 -182.014 -244.392 -182.014 -127.88C-182.014 -11.369 140.447 311.085 577.367 337.396C596.138 334.678 643.683 279.659 683.695 81.3229Z" fill="#42CAFF"/>
<path d="M-798.819 -338.334C-691.136 -362.853 -602.516 -126.945 -363.191 -251.502C-401.069 -303.576 660.181 37.6658 725.181 -37.8339C757.713 -75.6212 -1191.6 -653.941 -1392.82 -525.335C-1400.23 -518.111 -838.862 -329.216 -798.819 -338.334Z" fill="#00C8FF"/>
<path d="M-467.484 -129.112C-523.095 -33.6953 -125.438 60.6771 114.155 184.719C134.943 123.774 59.4852 47.08 80.0164 -13.1117C100.548 -73.3034 -102.145 -196.346 -323.12 -286.895C-333.292 -288.797 -411.872 -224.528 -467.484 -129.112Z" fill="#42CAFF"/>
<path d="M180.156 175.025C287.839 150.506 436.331 391.082 675.656 266.525C637.778 214.452 729.066 104.455 691.656 53.0252C654.246 1.59505 331.376 -200.582 130.156 -71.9749C122.746 -64.7511 140.114 184.143 180.156 175.025Z" fill="#4D65FF"/>
<path d="M-114.844 300.024C-7.16089 275.505 141.331 516.081 380.656 391.524C342.778 339.451 434.066 229.454 396.656 178.024C359.246 126.594 36.376 -75.5826 -164.844 53.0241C-172.254 60.2479 -154.886 309.142 -114.844 300.024Z" fill="#FF5558"/>
<path d="M174.681 261.172C72.0371 49.2063 345.346 202.685 415.132 201.282C428.621 184.342 438.123 180.754 429.499 195.5C427.222 199.394 422.229 201.139 415.132 201.282C390.031 232.801 351.124 310.549 389.5 402.428C312.779 411.144 253.641 429 225.5 429C149.318 429 220.748 262.583 174.681 261.172Z" fill="white"/>
</g>
<g style="mix-blend-mode:color-dodge" filter="url(#filter6_f_193_17)">
<g filter="url(#filter7_f_193_17)">
<path d="M229.887 584.956C287.645 298.73 -1122.44 -18.1068 -1828.38 -123.997C-1841.03 56.5027 -1828.38 351.861 -1828.38 520.003C-1828.38 688.144 -577.085 801.579 53.6234 839.55C74.1234 877.55 172.128 871.181 229.887 584.956Z" fill="#0088FF"/>
<path d="M321.347 330.493C361.359 132.157 -612.589 -140.654 -1101.62 -214.03C-1101.62 -96.0606 -544.361 4.77881 -544.361 121.29C-544.361 237.802 -221.901 560.255 215.019 586.567C233.79 583.849 281.335 528.83 321.347 330.493Z" fill="#8A36FF"/>
</g>
<path d="M309.695 332.493C349.707 134.157 -624.242 -138.655 -1113.28 -212.03C-1113.28 -94.0611 -556.014 6.77832 -556.014 123.29C-556.014 239.801 -233.553 562.255 203.367 588.566C222.138 585.848 269.683 530.829 309.695 332.493Z" fill="white"/>
<path d="M-1172.82 -87.1795C-1065.14 -111.699 -976.515 124.209 -737.19 -0.347908C-775.068 -52.4215 286.182 288.82 351.182 213.32C383.714 175.533 -1565.6 -402.787 -1766.82 -274.18C-1774.23 -266.957 -1212.86 -78.0621 -1172.82 -87.1795Z" fill="#00C8FF"/>
<path d="M-292 697C-184.316 672.481 193.417 1189.21 432.742 1064.65C394.864 1012.58 333.742 590.5 303 517C249.364 388.764 -157.521 194.239 -358.741 322.846C-366.15 330.069 -332.042 706.117 -292 697Z" fill="#B2B2B2"/>
<path d="M-488.843 551.194C-381.16 526.675 -232.668 767.251 6.65686 642.694C-31.2211 590.621 60.0668 480.625 22.6568 429.194C-14.7531 377.764 -337.623 175.587 -538.843 304.194C-546.253 311.418 -528.885 560.312 -488.843 551.194Z" fill="white"/>
<path d="M26.5002 -138C-79.8459 -357.612 715.445 24.3709 831.104 35.5808C842.929 28.4341 848.114 26.8208 844.5 32.9999C843.03 35.5131 838.431 36.291 831.104 35.5808C762.198 77.2233 467.82 306.734 374.862 277.192C298.141 285.909 128.488 252.151 130.862 280.192C132.422 298.629 72.5669 -136.589 26.5002 -138Z" fill="white"/>
</g>
</g>
<defs>
<filter id="filter0_f_193_17" x="-320.902" y="-77.5" width="2418.48" height="1362.95" filterUnits="userSpaceOnUse" color-interpolation-filters="sRGB">
<feFlood flood-opacity="0" result="BackgroundImageFix"/>
<feBlend mode="normal" in="SourceGraphic" in2="BackgroundImageFix" result="shape"/>
<feGaussianBlur stdDeviation="75" result="effect1_foregroundBlur_193_17"/>
</filter>
<filter id="filter1_f_193_17" x="-241.985" y="-27.5" width="2265.61" height="1180.06" filterUnits="userSpaceOnUse" color-interpolation-filters="sRGB">
<feFlood flood-opacity="0" result="BackgroundImageFix"/>
<feBlend mode="normal" in="SourceGraphic" in2="BackgroundImageFix" result="shape"/>
<feGaussianBlur stdDeviation="50" result="effect1_foregroundBlur_193_17"/>
</filter>
<filter id="filter2_f_193_17" x="-234.001" y="173.669" width="2705.57" height="1335.86" filterUnits="userSpaceOnUse" color-interpolation-filters="sRGB">
<feFlood flood-opacity="0" result="BackgroundImageFix"/>
<feBlend mode="normal" in="SourceGraphic" in2="BackgroundImageFix" result="shape"/>
<feGaussianBlur stdDeviation="75" result="effect1_foregroundBlur_193_17"/>
</filter>
<filter id="filter3_f_193_17" x="132.015" y="223.669" width="2265.61" height="1180.06" filterUnits="userSpaceOnUse" color-interpolation-filters="sRGB">
<feFlood flood-opacity="0" result="BackgroundImageFix"/>
<feBlend mode="normal" in="SourceGraphic" in2="BackgroundImageFix" result="shape"/>
<feGaussianBlur stdDeviation="50" result="effect1_foregroundBlur_193_17"/>
</filter>
<filter id="filter4_f_193_17" x="-1542.89" y="-758.334" width="2418.48" height="1337.33" filterUnits="userSpaceOnUse" color-interpolation-filters="sRGB">
<feFlood flood-opacity="0" result="BackgroundImageFix"/>
<feBlend mode="normal" in="SourceGraphic" in2="BackgroundImageFix" result="shape"/>
<feGaussianBlur stdDeviation="75" result="effect1_foregroundBlur_193_17"/>
</filter>
<filter id="filter5_f_193_17" x="-1468.94" y="-708.334" width="2265.61" height="1180.06" filterUnits="userSpaceOnUse" color-interpolation-filters="sRGB">
<feFlood flood-opacity="0" result="BackgroundImageFix"/>
<feBlend mode="normal" in="SourceGraphic" in2="BackgroundImageFix" result="shape"/>
<feGaussianBlur stdDeviation="50" result="effect1_foregroundBlur_193_17"/>
</filter>
<filter id="filter6_f_193_17" x="-1984" y="-442.802" width="2979.63" height="1676.86" filterUnits="userSpaceOnUse" color-interpolation-filters="sRGB">
<feFlood flood-opacity="0" result="BackgroundImageFix"/>
<feBlend mode="normal" in="SourceGraphic" in2="BackgroundImageFix" result="shape"/>
<feGaussianBlur stdDeviation="75" result="effect1_foregroundBlur_193_17"/>
</filter>
<filter id="filter7_f_193_17" x="-1934" y="-314.03" width="2356.54" height="1270.09" filterUnits="userSpaceOnUse" color-interpolation-filters="sRGB">
<feFlood flood-opacity="0" result="BackgroundImageFix"/>
<feBlend mode="normal" in="SourceGraphic" in2="BackgroundImageFix" result="shape"/>
<feGaussianBlur stdDeviation="50" result="effect1_foregroundBlur_193_17"/>
</filter>
<clipPath id="clip0_193_17">
<rect width="1920" height="1080" fill="white"/>
</clipPath>
</defs>
</svg>
