<svg width="152" height="51" viewBox="0 0 152 51" fill="none" xmlns="http://www.w3.org/2000/svg">
<path d="M2.5 40C2.5 42.75 4.75 45 7.5 45H27.5C30.25 45 32.5 42.75 32.5 40V10H2.5V40ZM35 2.5H26.25L23.75 0H11.25L8.75 2.5H0V7.5H35V2.5Z" fill="black"/>
<path d="M57.388 35.436H59.62C61.996 35.436 63.808 34.608 65.056 32.952C66.304 31.272 66.928 28.908 66.928 25.86C66.928 22.812 66.292 20.46 65.02 18.804C63.772 17.124 61.912 16.284 59.44 16.284H57.388V35.436ZM59.98 14.448C63.46 14.448 66.304 15.456 68.512 17.472C70.72 19.464 71.824 22.272 71.824 25.896C71.824 29.496 70.756 32.304 68.62 34.32C66.508 36.312 63.76 37.308 60.376 37.308H50.404C50.404 37.14 50.404 36.912 50.404 36.624C50.404 36.336 50.452 36.012 50.548 35.652C51.34 35.532 51.916 35.34 52.276 35.076C52.636 34.812 52.816 34.344 52.816 33.672V16.536C52.168 16.248 51.34 16.104 50.332 16.104C50.332 16.008 50.332 15.84 50.332 15.6C50.332 15.36 50.368 14.976 50.44 14.448H59.98ZM82.4446 22.548C81.6526 22.548 80.9206 22.896 80.2486 23.592C79.6006 24.288 79.1686 25.38 78.9526 26.868L82.3006 26.616L84.8566 26.544C84.7846 23.88 83.9806 22.548 82.4446 22.548ZM78.8086 28.488V28.848C78.8086 32.928 80.3566 34.968 83.4526 34.968C85.0846 34.968 86.8006 34.536 88.6006 33.672L89.2126 34.716C87.2446 36.756 84.8926 37.776 82.1566 37.776C80.9086 37.776 79.6846 37.5 78.4846 36.948C77.3086 36.372 76.2766 35.424 75.3886 34.104C74.5246 32.784 74.0926 31.224 74.0926 29.424C74.0926 26.64 74.9566 24.432 76.6846 22.8C78.4366 21.168 80.4886 20.352 82.8406 20.352C84.6646 20.352 86.2006 20.916 87.4486 22.044C88.7206 23.172 89.3566 24.936 89.3566 27.336C89.2126 27.768 89.0206 28.152 88.7806 28.488H78.8086ZM100.634 35.652C100.634 35.748 100.634 35.916 100.634 36.156C100.634 36.396 100.598 36.78 100.526 37.308H91.5618C91.5378 37.14 91.5258 36.912 91.5258 36.624C91.5258 36.312 91.5858 35.988 91.7058 35.652C92.4978 35.532 93.0738 35.34 93.4338 35.076C93.8178 34.788 94.0098 34.32 94.0098 33.672V14.448C93.7938 14.424 93.4818 14.412 93.0738 14.412C92.6658 14.412 92.1618 14.424 91.5618 14.448C91.6098 13.704 91.6938 13.164 91.8138 12.828C93.8538 12.084 96.0738 11.628 98.4738 11.46V35.184C99.0738 35.448 99.7938 35.604 100.634 35.652ZM111.448 22.548C110.656 22.548 109.924 22.896 109.252 23.592C108.604 24.288 108.172 25.38 107.956 26.868L111.304 26.616L113.86 26.544C113.788 23.88 112.984 22.548 111.448 22.548ZM107.812 28.488V28.848C107.812 32.928 109.36 34.968 112.456 34.968C114.088 34.968 115.804 34.536 117.604 33.672L118.216 34.716C116.248 36.756 113.896 37.776 111.16 37.776C109.912 37.776 108.688 37.5 107.488 36.948C106.312 36.372 105.28 35.424 104.392 34.104C103.528 32.784 103.096 31.224 103.096 29.424C103.096 26.64 103.96 24.432 105.688 22.8C107.44 21.168 109.492 20.352 111.844 20.352C113.668 20.352 115.204 20.916 116.452 22.044C117.724 23.172 118.36 24.936 118.36 27.336C118.216 27.768 118.024 28.152 117.784 28.488H107.812ZM127.262 37.74C125.894 37.74 124.79 37.332 123.95 36.516C123.11 35.676 122.69 34.44 122.69 32.808V23.196C122.018 23.1 121.25 23.052 120.386 23.052C120.386 22.548 120.41 22.08 120.458 21.648C121.058 21.408 121.79 21.18 122.654 20.964L126.218 15.744L127.118 15.996V20.928C128.798 20.88 130.322 20.772 131.69 20.604C131.69 21.516 131.582 22.332 131.366 23.052H127.118L127.154 32.592C127.154 34.008 127.706 34.716 128.81 34.716C129.722 34.716 130.646 34.356 131.582 33.636L132.338 34.608C130.874 36.696 129.182 37.74 127.262 37.74ZM142.491 22.548C141.699 22.548 140.967 22.896 140.295 23.592C139.647 24.288 139.215 25.38 138.999 26.868L142.347 26.616L144.903 26.544C144.831 23.88 144.027 22.548 142.491 22.548ZM138.855 28.488V28.848C138.855 32.928 140.403 34.968 143.499 34.968C145.131 34.968 146.847 34.536 148.647 33.672L149.259 34.716C147.291 36.756 144.939 37.776 142.203 37.776C140.955 37.776 139.731 37.5 138.531 36.948C137.355 36.372 136.323 35.424 135.435 34.104C134.571 32.784 134.139 31.224 134.139 29.424C134.139 26.64 135.003 24.432 136.731 22.8C138.483 21.168 140.535 20.352 142.887 20.352C144.711 20.352 146.247 20.916 147.495 22.044C148.767 23.172 149.403 24.936 149.403 27.336C149.259 27.768 149.067 28.152 148.827 28.488H138.855Z" fill="black"/>
</svg>
