<svg width="130" height="52" viewBox="0 0 130 52" fill="none" xmlns="http://www.w3.org/2000/svg">
<path d="M66.424 36.436H71.824C72.976 36.436 73.732 36.1 74.092 35.428C74.452 34.756 74.716 33.616 74.884 32.008C75.82 32.008 76.48 32.044 76.864 32.116C76.96 33.508 77.008 34.72 77.008 35.752C77.008 36.784 76.996 37.636 76.972 38.308H59.44C59.44 38.164 59.44 37.948 59.44 37.66C59.44 37.348 59.5 37.012 59.62 36.652C60.412 36.532 60.988 36.34 61.348 36.076C61.708 35.812 61.888 35.344 61.888 34.672V17.572C61.24 17.26 60.388 17.104 59.332 17.104C59.332 16.384 59.392 15.832 59.512 15.448H76.612C76.612 15.952 76.612 16.732 76.612 17.788C76.612 18.844 76.552 20.056 76.432 21.424C75.952 21.472 75.328 21.496 74.56 21.496C74.344 19.552 74.056 18.4 73.696 18.04C73.192 17.536 72.496 17.284 71.608 17.284H66.424V25.852L71.608 25.456H73.012V28.084H71.608L66.424 27.796V36.436ZM88.8649 23.764C87.3289 23.764 86.1889 24.232 85.4449 25.168C84.7009 26.08 84.3289 27.664 84.3289 29.92C84.3289 33.952 85.6009 35.968 88.1449 35.968C89.1289 35.968 90.0049 35.704 90.7729 35.176V23.944C90.1249 23.824 89.4889 23.764 88.8649 23.764ZM98.0809 36.724C96.9289 38.092 95.6449 38.776 94.2289 38.776C92.8129 38.776 91.7689 38.188 91.0969 37.012C89.7289 38.164 88.1689 38.74 86.4169 38.74C84.6889 38.74 83.1169 38.02 81.7009 36.58C80.3089 35.14 79.6129 33.052 79.6129 30.316C79.6129 27.58 80.5729 25.408 82.4929 23.8C84.4129 22.168 86.8609 21.352 89.8369 21.352C90.2449 21.352 90.5569 21.364 90.7729 21.388V15.448C90.5329 15.424 90.2089 15.412 89.8009 15.412C89.3929 15.412 88.9009 15.424 88.3249 15.448C88.3729 14.704 88.4569 14.164 88.5769 13.828C90.6649 13.084 92.8849 12.628 95.2369 12.46V34.168C95.2369 35.392 95.5969 36.004 96.3169 36.004C96.4849 36.004 96.9289 35.932 97.6489 35.788L98.0809 36.724ZM106.516 18.652C105.988 19.18 105.352 19.444 104.608 19.444C103.864 19.444 103.228 19.18 102.7 18.652C102.172 18.124 101.908 17.488 101.908 16.744C101.908 16 102.172 15.364 102.7 14.836C103.228 14.308 103.864 14.044 104.608 14.044C105.376 14.044 106.012 14.308 106.516 14.836C107.044 15.34 107.308 15.976 107.308 16.744C107.308 17.488 107.044 18.124 106.516 18.652ZM109.036 36.652C109.036 36.748 109.036 36.916 109.036 37.156C109.036 37.396 109 37.78 108.928 38.308H99.9642C99.9402 38.14 99.9282 37.912 99.9282 37.624C99.9282 37.312 99.9882 36.988 100.108 36.652C100.9 36.532 101.476 36.34 101.836 36.076C102.22 35.788 102.412 35.32 102.412 34.672V24.556C102.028 24.508 101.62 24.484 101.188 24.484C100.78 24.484 100.372 24.496 99.9642 24.52C100.012 23.824 100.096 23.272 100.216 22.864C102.304 22.168 104.524 21.724 106.876 21.532V36.184C107.476 36.448 108.196 36.604 109.036 36.652ZM118.051 38.74C116.683 38.74 115.579 38.332 114.739 37.516C113.899 36.676 113.479 35.44 113.479 33.808V24.196C112.807 24.1 112.039 24.052 111.175 24.052C111.175 23.548 111.199 23.08 111.247 22.648C111.847 22.408 112.579 22.18 113.443 21.964L117.007 16.744L117.907 16.996V21.928C119.587 21.88 121.111 21.772 122.479 21.604C122.479 22.516 122.371 23.332 122.155 24.052H117.907L117.943 33.592C117.943 35.008 118.495 35.716 119.599 35.716C120.511 35.716 121.435 35.356 122.371 34.636L123.127 35.608C121.663 37.696 119.971 38.74 118.051 38.74Z" fill="black"/>
<path fill-rule="evenodd" clip-rule="evenodd" d="M30.9385 4.66271C30.1369 4.33337 29.1185 4.33337 27.084 4.33337C25.0495 4.33337 24.0333 4.33337 23.2295 4.66271C22.7006 4.87882 22.2197 5.1974 21.8143 5.60011C21.409 6.00282 21.0874 6.4817 20.8679 7.00921C20.6642 7.49237 20.5862 8.05787 20.5537 8.87904C20.5382 9.47379 20.3718 10.0549 20.0701 10.5676C19.7685 11.0804 19.3414 11.5081 18.829 11.8105C18.3063 12.1011 17.7187 12.255 17.1207 12.2581C16.5226 12.2611 15.9335 12.1131 15.4079 11.8279C14.6755 11.4422 14.1447 11.2299 13.6204 11.1605C12.4733 11.0109 11.3134 11.3191 10.392 12.0185C9.70302 12.5429 9.19385 13.4182 8.17768 15.1667C7.15935 16.9152 6.65235 17.7884 6.53752 18.6442C6.38585 19.7839 6.69785 20.9365 7.40418 21.8487C7.72485 22.2647 8.17768 22.6135 8.87752 23.0512C9.91102 23.6947 10.574 24.791 10.574 26C10.574 27.209 9.91102 28.3054 8.87968 28.9467C8.17768 29.3865 7.72485 29.7354 7.40202 30.1514C7.05441 30.6025 6.79914 31.1177 6.6508 31.6676C6.50246 32.2174 6.46397 32.7911 6.53752 33.3559C6.65235 34.2095 7.15935 35.0849 8.17768 36.8334C9.19602 38.5819 9.70302 39.455 10.392 39.9815C11.3107 40.6814 12.472 40.989 13.6204 40.8395C14.1447 40.7702 14.6755 40.5579 15.4079 40.1722C15.9338 39.8866 16.5233 39.7384 17.1217 39.7414C17.7202 39.7445 18.3082 39.8986 18.8312 40.1895C19.8842 40.7962 20.5082 41.912 20.5537 43.121C20.5862 43.9444 20.6642 44.5077 20.8679 44.9909C21.3098 46.0525 22.1592 46.8975 23.2295 47.3374C24.0312 47.6667 25.0495 47.6667 27.084 47.6667C29.1185 47.6667 30.1369 47.6667 30.9385 47.3374C31.4674 47.1213 31.9484 46.8027 32.3537 46.4C32.759 45.9973 33.0807 45.5184 33.3002 44.9909C33.5039 44.5077 33.5819 43.9444 33.6144 43.121C33.6577 41.912 34.2838 40.794 35.339 40.1895C35.8617 39.899 36.4493 39.7451 37.0474 39.742C37.6454 39.739 38.2345 39.887 38.7602 40.1722C39.4925 40.5579 40.0234 40.7702 40.5477 40.8395C41.696 40.9912 42.8573 40.6814 43.776 39.9815C44.465 39.4572 44.9742 38.5819 45.9903 36.8334C47.0087 35.0849 47.5157 34.2117 47.6305 33.3559C47.7038 32.791 47.6649 32.2172 47.5162 31.6673C47.3675 31.1175 47.1118 30.6023 46.7639 30.1514C46.4432 29.7354 45.9903 29.3865 45.2905 28.9489C44.257 28.3054 43.594 27.209 43.594 26C43.594 24.791 44.257 23.6947 45.2883 23.0534C45.9904 22.6135 46.4432 22.2647 46.766 21.8487C47.1136 21.3976 47.3689 20.8824 47.5172 20.3325C47.6656 19.7827 47.7041 19.2089 47.6305 18.6442C47.5157 17.7905 47.0087 16.9152 45.9903 15.1667C44.972 13.4182 44.465 12.545 43.776 12.0185C42.8546 11.3191 41.6948 11.0109 40.5477 11.1605C40.0234 11.2299 39.4925 11.4422 38.7602 11.8279C38.2343 12.1135 37.6448 12.2617 37.0463 12.2586C36.4478 12.2556 35.8598 12.1015 35.3369 11.8105C34.8249 11.5079 34.3982 11.0801 34.0969 10.5673C33.7957 10.0545 33.6296 9.47359 33.6144 8.87904C33.5819 8.05571 33.5039 7.49237 33.3002 7.00921C33.0807 6.4817 32.759 6.00282 32.3537 5.60011C31.9484 5.1974 31.4674 4.87882 30.9385 4.66271ZM27.084 32.5C30.7024 32.5 33.6339 29.5902 33.6339 26C33.6339 22.4099 30.7002 19.5 27.084 19.5C23.4679 19.5 20.5342 22.4099 20.5342 26C20.5342 29.5902 23.4679 32.5 27.084 32.5Z" fill="black"/>
</svg>
