<svg width="391" height="175" viewBox="0 0 391 175" fill="none" xmlns="http://www.w3.org/2000/svg">
<g filter="url(#filter0_d_225_325)">
<rect x="75" y="40" width="299" height="83" rx="17" stroke="url(#paint0_linear_225_325)" stroke-width="2" shape-rendering="crispEdges"/>
<path d="M78 57C78 49.268 84.268 43 92 43H357C364.732 43 371 49.268 371 57V106C371 113.732 364.732 120 357 120H92C84.268 120 78 113.732 78 106V57Z" stroke="url(#paint1_linear_225_325)" stroke-width="4"/>
<mask id="mask0_225_325" style="mask-type:alpha" maskUnits="userSpaceOnUse" x="76" y="41" width="297" height="81">
<path d="M76 57C76 48.1634 83.1634 41 92 41H357C365.837 41 373 48.1634 373 57V106C373 114.837 365.837 122 357 122H92C83.1634 122 76 114.837 76 106V57Z" fill="#D9D9D9"/>
</mask>
<g mask="url(#mask0_225_325)">
<g filter="url(#filter1_f_225_325)">
<path d="M76 57C76 48.1634 83.1634 41 92 41H224.107V122H92C83.1635 122 76 114.837 76 106V57Z" fill="#298DFF" fill-opacity="0.5"/>
<path d="M373.787 57C373.787 48.1634 366.624 41 357.787 41H198.573V122H357.787C366.624 122 373.787 114.837 373.787 106V57Z" fill="#4F28E9" fill-opacity="0.5"/>
</g>
</g>
<path opacity="0.8" d="M143.178 88.436H148.578C149.73 88.436 150.486 88.1 150.846 87.428C151.206 86.756 151.47 85.616 151.638 84.008C152.574 84.008 153.234 84.044 153.618 84.116C153.714 85.508 153.762 86.72 153.762 87.752C153.762 88.784 153.75 89.636 153.726 90.308H136.194C136.194 90.164 136.194 89.948 136.194 89.66C136.194 89.348 136.254 89.012 136.374 88.652C137.166 88.532 137.742 88.34 138.102 88.076C138.462 87.812 138.642 87.344 138.642 86.672V69.572C137.994 69.26 137.142 69.104 136.086 69.104C136.086 68.384 136.146 67.832 136.266 67.448H153.366C153.366 67.952 153.366 68.732 153.366 69.788C153.366 70.844 153.306 72.056 153.186 73.424C152.706 73.472 152.082 73.496 151.314 73.496C151.098 71.552 150.81 70.4 150.45 70.04C149.946 69.536 149.25 69.284 148.362 69.284H143.178V77.852L148.362 77.456H149.766V80.084H148.362L143.178 79.796V88.436ZM165.619 75.764C164.083 75.764 162.943 76.232 162.199 77.168C161.455 78.08 161.083 79.664 161.083 81.92C161.083 85.952 162.355 87.968 164.899 87.968C165.883 87.968 166.759 87.704 167.527 87.176V75.944C166.879 75.824 166.243 75.764 165.619 75.764ZM174.835 88.724C173.683 90.092 172.399 90.776 170.983 90.776C169.567 90.776 168.523 90.188 167.851 89.012C166.483 90.164 164.923 90.74 163.171 90.74C161.443 90.74 159.871 90.02 158.455 88.58C157.063 87.14 156.367 85.052 156.367 82.316C156.367 79.58 157.327 77.408 159.247 75.8C161.167 74.168 163.615 73.352 166.591 73.352C166.999 73.352 167.311 73.364 167.527 73.388V67.448C167.287 67.424 166.963 67.412 166.555 67.412C166.147 67.412 165.655 67.424 165.079 67.448C165.127 66.704 165.211 66.164 165.331 65.828C167.419 65.084 169.639 64.628 171.991 64.46V86.168C171.991 87.392 172.351 88.004 173.071 88.004C173.239 88.004 173.683 87.932 174.403 87.788L174.835 88.724ZM183.27 70.652C182.742 71.18 182.106 71.444 181.362 71.444C180.618 71.444 179.982 71.18 179.454 70.652C178.926 70.124 178.662 69.488 178.662 68.744C178.662 68 178.926 67.364 179.454 66.836C179.982 66.308 180.618 66.044 181.362 66.044C182.13 66.044 182.766 66.308 183.27 66.836C183.798 67.34 184.062 67.976 184.062 68.744C184.062 69.488 183.798 70.124 183.27 70.652ZM185.79 88.652C185.79 88.748 185.79 88.916 185.79 89.156C185.79 89.396 185.754 89.78 185.682 90.308H176.718C176.694 90.14 176.682 89.912 176.682 89.624C176.682 89.312 176.742 88.988 176.862 88.652C177.654 88.532 178.23 88.34 178.59 88.076C178.974 87.788 179.166 87.32 179.166 86.672V76.556C178.782 76.508 178.374 76.484 177.942 76.484C177.534 76.484 177.126 76.496 176.718 76.52C176.766 75.824 176.85 75.272 176.97 74.864C179.058 74.168 181.278 73.724 183.63 73.532V88.184C184.23 88.448 184.95 88.604 185.79 88.652ZM194.805 90.74C193.437 90.74 192.333 90.332 191.493 89.516C190.653 88.676 190.233 87.44 190.233 85.808V76.196C189.561 76.1 188.793 76.052 187.929 76.052C187.929 75.548 187.953 75.08 188.001 74.648C188.601 74.408 189.333 74.18 190.197 73.964L193.761 68.744L194.661 68.996V73.928C196.341 73.88 197.865 73.772 199.233 73.604C199.233 74.516 199.125 75.332 198.909 76.052H194.661L194.697 85.592C194.697 87.008 195.249 87.716 196.353 87.716C197.265 87.716 198.189 87.356 199.125 86.636L199.881 87.608C198.417 89.696 196.725 90.74 194.805 90.74ZM217.306 88.076C218.05 88.412 218.95 88.58 220.006 88.58C221.062 88.58 221.998 88.016 222.814 86.888C223.654 85.76 224.074 84.104 224.074 81.92C224.074 79.712 223.726 78.164 223.03 77.276C222.358 76.364 221.59 75.908 220.726 75.908C219.886 75.908 219.154 76.22 218.53 76.844C217.93 77.468 217.522 78.32 217.306 79.4V88.076ZM212.842 95.06V76.556C212.458 76.508 212.05 76.484 211.618 76.484C211.186 76.484 210.778 76.496 210.394 76.52C210.442 75.896 210.538 75.368 210.682 74.936C212.65 74.216 214.678 73.748 216.766 73.532C216.982 74.516 217.126 75.464 217.198 76.376C218.158 74.36 219.658 73.352 221.698 73.352C223.738 73.352 225.442 74.108 226.81 75.62C228.178 77.108 228.862 79.196 228.862 81.884C228.862 84.548 227.926 86.696 226.054 88.328C224.206 89.936 221.998 90.74 219.43 90.74C218.686 90.74 217.978 90.632 217.306 90.416V96.248C218.314 96.728 219.406 96.992 220.582 97.04C220.606 97.208 220.618 97.436 220.618 97.724C220.618 98.012 220.57 98.348 220.474 98.732H210.358C210.358 98.588 210.358 98.36 210.358 98.048C210.358 97.736 210.418 97.4 210.538 97.04C211.33 96.92 211.906 96.716 212.266 96.428C212.65 96.164 212.842 95.708 212.842 95.06ZM233.447 86.636V76.556C233.063 76.508 232.655 76.484 232.223 76.484C231.815 76.484 231.407 76.496 230.999 76.52C231.047 75.8 231.131 75.272 231.251 74.936C233.243 74.216 235.319 73.748 237.479 73.532C237.719 75.02 237.863 76.664 237.911 78.464C238.511 76.952 239.363 75.728 240.467 74.792C241.595 73.832 242.843 73.352 244.211 73.352C244.331 73.784 244.391 74.336 244.391 75.008C244.391 75.656 244.271 76.496 244.031 77.528C240.383 77.528 238.343 78.92 237.911 81.704V87.968C238.919 88.352 240.035 88.58 241.259 88.652C241.259 88.772 241.259 88.976 241.259 89.264C241.259 89.528 241.211 89.876 241.115 90.308H230.999C230.975 90.14 230.963 89.912 230.963 89.624C230.963 89.312 231.023 88.988 231.143 88.652C231.935 88.532 232.511 88.34 232.871 88.076C233.255 87.788 233.447 87.308 233.447 86.636ZM257.552 82.64C257.552 77.816 256.244 75.404 253.628 75.404C251.204 75.404 249.992 77.432 249.992 81.488C249.992 81.68 249.992 81.872 249.992 82.064C250.184 86.432 251.516 88.616 253.988 88.616C256.364 88.616 257.552 86.624 257.552 82.64ZM253.808 73.352C256.352 73.352 258.404 74.108 259.964 75.62C261.524 77.132 262.304 79.268 262.304 82.028C262.304 84.788 261.512 86.936 259.928 88.472C258.344 89.984 256.28 90.74 253.736 90.74C251.192 90.74 249.14 89.984 247.58 88.472C246.044 86.96 245.276 84.824 245.276 82.064C245.276 79.304 246.068 77.168 247.652 75.656C249.236 74.12 251.288 73.352 253.808 73.352ZM284.882 88.652C284.882 88.748 284.882 88.916 284.882 89.156C284.882 89.396 284.846 89.78 284.774 90.308H275.81C275.786 90.14 275.774 89.912 275.774 89.624C275.774 89.312 275.834 88.988 275.954 88.652C276.746 88.532 277.322 88.34 277.682 88.076C278.066 87.788 278.258 87.32 278.258 86.672V76.052H271.238V88.076C271.862 88.412 272.666 88.604 273.65 88.652C273.65 88.748 273.65 88.916 273.65 89.156C273.65 89.396 273.614 89.78 273.542 90.308H264.326C264.326 90.14 264.326 89.912 264.326 89.624C264.326 89.312 264.374 88.988 264.47 88.652C265.262 88.532 265.838 88.34 266.198 88.076C266.582 87.788 266.774 87.308 266.774 86.636V76.196C266.318 76.1 265.61 76.052 264.65 76.052C264.626 75.884 264.614 75.68 264.614 75.44C264.614 75.176 264.65 74.912 264.722 74.648C265.466 74.312 266.15 74.084 266.774 73.964V71.912C266.774 69.536 267.47 67.736 268.862 66.512C270.254 65.264 272.09 64.64 274.37 64.64C276.674 64.64 278.69 65.108 280.418 66.044C282.17 66.98 283.046 68.036 283.046 69.212C283.046 69.86 282.806 70.4 282.326 70.832C281.846 71.24 281.294 71.444 280.67 71.444C280.046 71.444 279.518 71.276 279.086 70.94C278.654 70.604 278.282 70.208 277.97 69.752C277.658 69.272 277.334 68.792 276.998 68.312C276.158 67.208 275.114 66.656 273.866 66.656C272.114 66.68 271.238 67.784 271.238 69.968V73.928C276.398 73.856 280.226 73.724 282.722 73.532V88.22C283.298 88.46 284.018 88.604 284.882 88.652ZM296.286 88.652C296.286 88.748 296.286 88.916 296.286 89.156C296.286 89.396 296.25 89.78 296.178 90.308H287.214C287.19 90.14 287.178 89.912 287.178 89.624C287.178 89.312 287.238 88.988 287.358 88.652C288.15 88.532 288.726 88.34 289.086 88.076C289.47 87.788 289.662 87.32 289.662 86.672V67.448C289.446 67.424 289.134 67.412 288.726 67.412C288.318 67.412 287.814 67.424 287.214 67.448C287.262 66.704 287.346 66.164 287.466 65.828C289.506 65.084 291.726 64.628 294.126 64.46V88.184C294.726 88.448 295.446 88.604 296.286 88.652ZM307.101 75.548C306.309 75.548 305.577 75.896 304.905 76.592C304.257 77.288 303.825 78.38 303.609 79.868L306.957 79.616L309.513 79.544C309.441 76.88 308.637 75.548 307.101 75.548ZM303.465 81.488V81.848C303.465 85.928 305.013 87.968 308.109 87.968C309.741 87.968 311.457 87.536 313.257 86.672L313.869 87.716C311.901 89.756 309.549 90.776 306.813 90.776C305.565 90.776 304.341 90.5 303.141 89.948C301.965 89.372 300.933 88.424 300.045 87.104C299.181 85.784 298.749 84.224 298.749 82.424C298.749 79.64 299.613 77.432 301.341 75.8C303.093 74.168 305.145 73.352 307.497 73.352C309.321 73.352 310.857 73.916 312.105 75.044C313.377 76.172 314.013 77.936 314.013 80.336C313.869 80.768 313.677 81.152 313.437 81.488H303.465Z" fill="black"/>
</g>
<defs>
<filter id="filter0_d_225_325" x="0" y="0" width="391" height="175" filterUnits="userSpaceOnUse" color-interpolation-filters="sRGB">
<feFlood flood-opacity="0" result="BackgroundImageFix"/>
<feColorMatrix in="SourceAlpha" type="matrix" values="0 0 0 0 0 0 0 0 0 0 0 0 0 0 0 0 0 0 127 0" result="hardAlpha"/>
<feOffset dx="-29" dy="6"/>
<feGaussianBlur stdDeviation="22.5"/>
<feComposite in2="hardAlpha" operator="out"/>
<feColorMatrix type="matrix" values="0 0 0 0 1 0 0 0 0 0.976471 0 0 0 0 0.976471 0 0 0 0.25 0"/>
<feBlend mode="normal" in2="BackgroundImageFix" result="effect1_dropShadow_225_325"/>
<feBlend mode="normal" in="SourceGraphic" in2="effect1_dropShadow_225_325" result="shape"/>
</filter>
<filter id="filter1_f_225_325" x="-24" y="-59" width="497.787" height="281" filterUnits="userSpaceOnUse" color-interpolation-filters="sRGB">
<feFlood flood-opacity="0" result="BackgroundImageFix"/>
<feBlend mode="normal" in="SourceGraphic" in2="BackgroundImageFix" result="shape"/>
<feGaussianBlur stdDeviation="50" result="effect1_foregroundBlur_225_325"/>
</filter>
<linearGradient id="paint0_linear_225_325" x1="88.596" y1="41.5745" x2="141.083" y2="188.401" gradientUnits="userSpaceOnUse">
<stop stop-color="#7AE0FF"/>
<stop offset="1" stop-color="#999797" stop-opacity="0"/>
</linearGradient>
<linearGradient id="paint1_linear_225_325" x1="369.268" y1="41.9986" x2="161.635" y2="218.581" gradientUnits="userSpaceOnUse">
<stop stop-color="#5757EC"/>
<stop offset="1" stop-color="#FFFCFC" stop-opacity="0.5"/>
</linearGradient>
</defs>
</svg>
