<svg width="152" height="51" viewBox="0 0 152 51" fill="none" xmlns="http://www.w3.org/2000/svg">
<path d="M2.5 40C2.5 42.75 4.75 45 7.5 45H27.5C30.25 45 32.5 42.75 32.5 40V10H2.5V40ZM35 2.5H26.25L23.75 0H11.25L8.75 2.5H0V7.5H35V2.5Z" fill="black"/>
<path d="M57.388 35.472H63.076C63.964 35.472 64.648 35.232 65.128 34.752C65.44 34.44 65.644 33.948 65.74 33.276C65.86 32.58 65.944 31.92 65.992 31.296C66.64 31.296 67.18 31.32 67.612 31.368C67.78 33.072 67.864 34.392 67.864 35.328C67.864 36.24 67.852 36.9 67.828 37.308H50.404C50.404 37.14 50.404 36.912 50.404 36.624C50.404 36.336 50.452 36.012 50.548 35.652C51.34 35.532 51.916 35.34 52.276 35.076C52.636 34.812 52.816 34.344 52.816 33.672V16.536C52.144 16.248 51.316 16.104 50.332 16.104C50.332 16.008 50.332 15.84 50.332 15.6C50.332 15.36 50.368 14.976 50.44 14.448H59.764C59.788 14.616 59.8 14.844 59.8 15.132C59.8 15.396 59.74 15.72 59.62 16.104C58.852 16.2 58.288 16.392 57.928 16.68C57.568 16.944 57.388 17.412 57.388 18.084V35.472ZM78.4016 22.548C77.6096 22.548 76.8776 22.896 76.2056 23.592C75.5576 24.288 75.1256 25.38 74.9096 26.868L78.2576 26.616L80.8136 26.544C80.7416 23.88 79.9376 22.548 78.4016 22.548ZM74.7656 28.488V28.848C74.7656 32.928 76.3136 34.968 79.4096 34.968C81.0416 34.968 82.7576 34.536 84.5576 33.672L85.1696 34.716C83.2016 36.756 80.8496 37.776 78.1136 37.776C76.8656 37.776 75.6416 37.5 74.4416 36.948C73.2656 36.372 72.2336 35.424 71.3456 34.104C70.4816 32.784 70.0496 31.224 70.0496 29.424C70.0496 26.64 70.9136 24.432 72.6416 22.8C74.3936 21.168 76.4456 20.352 78.7976 20.352C80.6216 20.352 82.1576 20.916 83.4056 22.044C84.6776 23.172 85.3136 24.936 85.3136 27.336C85.1696 27.768 84.9776 28.152 84.7376 28.488H74.7656ZM92.4149 32.808C92.4149 33.456 92.5949 33.972 92.9549 34.356C93.3389 34.74 93.9149 34.932 94.6829 34.932C95.4749 34.932 96.1829 34.584 96.8069 33.888V29.208L95.2229 29.64C93.3509 30.168 92.4149 31.224 92.4149 32.808ZM100.515 37.776C99.6989 37.776 98.9549 37.608 98.2829 37.272C97.6349 36.912 97.1909 36.408 96.9509 35.76C95.7989 37.104 94.4189 37.776 92.8109 37.776C91.2269 37.776 89.9789 37.344 89.0669 36.48C88.1549 35.616 87.6989 34.512 87.6989 33.168C87.6989 31.824 88.1309 30.756 88.9949 29.964C89.8589 29.172 91.1669 28.596 92.9189 28.236L96.8069 27.444V26.148C96.8069 25.236 96.5789 24.576 96.1229 24.168C95.6909 23.736 94.8869 23.52 93.7109 23.52C92.5589 23.52 91.2269 23.784 89.7149 24.312L88.8149 22.98C90.8309 21.228 93.1589 20.352 95.7989 20.352C97.5989 20.352 98.9549 20.844 99.8669 21.828C100.779 22.812 101.235 24.204 101.235 26.004V33.168C101.235 34.392 101.619 35.004 102.387 35.004C102.507 35.004 102.951 34.932 103.719 34.788L104.079 35.724C102.975 37.092 101.787 37.776 100.515 37.776ZM104.121 22.44C104.025 22.008 103.977 21.672 103.977 21.432C103.977 21.168 103.989 20.964 104.013 20.82H112.977C113.073 21.108 113.121 21.648 113.121 22.44C112.089 22.488 111.357 22.596 110.925 22.764L114.813 35.004C114.909 34.332 115.173 33.36 115.605 32.088L118.233 24.744C118.377 24.336 118.449 24 118.449 23.736C118.449 23.472 118.401 23.268 118.305 23.124C118.089 22.788 117.525 22.56 116.613 22.44C116.493 22.08 116.433 21.756 116.433 21.468C116.433 21.18 116.433 20.964 116.433 20.82H123.957C123.981 21.348 123.873 21.888 123.633 22.44C122.769 22.488 122.049 22.644 121.473 22.908L115.605 37.524H111.861L106.677 24.528C106.437 23.856 106.149 23.376 105.813 23.088C105.477 22.8 104.913 22.584 104.121 22.44ZM132.718 22.548C131.926 22.548 131.194 22.896 130.522 23.592C129.874 24.288 129.442 25.38 129.226 26.868L132.574 26.616L135.13 26.544C135.058 23.88 134.254 22.548 132.718 22.548ZM129.082 28.488V28.848C129.082 32.928 130.63 34.968 133.726 34.968C135.358 34.968 137.074 34.536 138.874 33.672L139.486 34.716C137.518 36.756 135.166 37.776 132.43 37.776C131.182 37.776 129.958 37.5 128.758 36.948C127.582 36.372 126.55 35.424 125.662 34.104C124.798 32.784 124.366 31.224 124.366 29.424C124.366 26.64 125.23 24.432 126.958 22.8C128.71 21.168 130.762 20.352 133.114 20.352C134.938 20.352 136.474 20.916 137.722 22.044C138.994 23.172 139.63 24.936 139.63 27.336C139.486 27.768 139.294 28.152 139.054 28.488H129.082Z" fill="black"/>
</svg>
