<svg width="585" height="154" viewBox="0 0 585 154" fill="none" xmlns="http://www.w3.org/2000/svg">
<path d="M8 8C8 4.13401 11.134 1 15 1H110C113.866 1 117 4.13401 117 8V44H8V8Z" stroke="url(#paint0_linear_628_3411)" stroke-width="2"/>
<mask id="mask0_628_3411" style="mask-type:alpha" maskUnits="userSpaceOnUse" x="7" y="0" width="111" height="45">
<path d="M7 8C7 3.58172 10.5817 0 15 0H110C114.418 0 118 3.58172 118 8V45H7V8Z" fill="#D9D9D9"/>
</mask>
<g mask="url(#mask0_628_3411)">
<g filter="url(#filter0_f_628_3411)">
<path d="M7 8C7 3.58172 10.5817 0 15 0H54.3532C58.7714 0 62.3532 3.58172 62.3532 8V45H7V8Z" fill="#298DFF" fill-opacity="0.5"/>
<path d="M118.295 8C118.295 3.58172 114.713 0 110.295 0H60.8108C56.3925 0 52.8108 3.58172 52.8108 8V45H118.295V8Z" fill="#4F28E9" fill-opacity="0.5"/>
</g>
</g>
<path d="M118 86C118 89.866 114.866 93 111 93H16C12.134 93 9 89.866 9 86V50H118V86Z" stroke="url(#paint1_linear_628_3411)" stroke-width="2"/>
<mask id="mask1_628_3411" style="mask-type:alpha" maskUnits="userSpaceOnUse" x="8" y="49" width="111" height="45">
<path d="M119 86C119 90.4183 115.418 94 111 94H16C11.5817 94 8 90.4183 8 86V49H119V86Z" fill="#D9D9D9"/>
</mask>
<g mask="url(#mask1_628_3411)">
<g filter="url(#filter1_f_628_3411)">
<path d="M119 86C119 90.4183 115.418 94 111 94H71.6468C67.2286 94 63.6468 90.4183 63.6468 86V49H119V86Z" fill="#298DFF" fill-opacity="0.5"/>
<path d="M7.70508 86C7.70508 90.4183 11.2868 94 15.7051 94H65.1892C69.6075 94 73.1892 90.4183 73.1892 86V49H7.70508V86Z" fill="#4F28E9" fill-opacity="0.5"/>
</g>
</g>
<circle cx="6.4905" cy="47.5981" r="5.99061" fill="#24475B"/>
<circle cx="117.317" cy="47.6001" r="5.99061" fill="#24475B"/>
<rect x="9.48438" y="46.1006" width="104.836" height="2.99531" fill="#24475B"/>
<ellipse cx="109" cy="43.0017" rx="1.5" ry="1" fill="#0D5239"/>
<ellipse cx="16" cy="43" rx="1.5" ry="1" fill="#0D5239"/>
<ellipse cx="16" cy="52.5" rx="1.5" ry="0.5" fill="#0D5239"/>
<ellipse cx="109" cy="52.5017" rx="1.5" ry="0.5" fill="#0D5239"/>
<g filter="url(#filter2_d_628_3411)">
<path d="M42.0825 139.181C42.0824 141.475 41.5491 143.101 40.4824 144.061C39.4424 145.021 37.709 145.501 35.2823 145.501L27.4423 145.501L27.4428 117.501L34.8028 117.501C37.2028 117.501 39.0162 117.995 40.2428 118.981C41.4695 119.941 42.0828 121.528 42.0827 123.741L42.0825 139.181ZM38.6027 123.381C38.6028 122.501 38.3361 121.808 37.8028 121.301C37.2695 120.768 36.5628 120.501 35.6828 120.501L30.9228 120.501L30.9224 142.501L35.6424 142.501C36.6557 142.501 37.4024 142.275 37.8824 141.821C38.3624 141.341 38.6024 140.595 38.6025 139.581L38.6027 123.381ZM59.7558 145.502L58.2359 138.422L50.4359 138.422L48.8758 145.502L45.3158 145.501L52.0763 117.502L56.6763 117.502L63.3158 145.502L59.7558 145.502ZM54.3162 120.142L51.076 135.422L57.596 135.422L54.3162 120.142ZM75.876 132.502L75.8758 145.502L72.2758 145.502L72.276 132.502L65.1163 117.502L68.9563 117.502L74.2361 129.142L79.5163 117.502L83.1563 117.502L75.876 132.502ZM98.7384 138.702C98.7384 140.969 98.1117 142.676 96.8583 143.822C95.6316 144.942 93.8583 145.502 91.5383 145.502L86.2583 145.502L86.2583 142.462L91.9383 142.462C92.925 142.462 93.725 142.169 94.3384 141.582C94.9517 140.996 95.2584 140.289 95.2584 139.462L95.2585 135.302C95.2585 134.502 95.0452 133.862 94.6185 133.382C94.2185 132.876 93.6052 132.622 92.7785 132.622L91.9785 132.622C90.0052 132.622 88.4452 132.049 87.2985 130.902C86.1519 129.729 85.5786 128.036 85.5786 125.822L85.5787 124.302C85.5787 122.036 86.1921 120.342 87.4188 119.222C88.6721 118.076 90.4588 117.502 92.7788 117.502L98.0988 117.502L98.0987 120.542L92.3787 120.542C91.3921 120.542 90.5921 120.836 89.9787 121.422C89.3654 122.009 89.0587 122.716 89.0587 123.542L89.0586 126.582C89.0586 127.409 89.3253 128.102 89.8586 128.662C90.3919 129.196 91.0852 129.462 91.9386 129.462L92.7386 129.462C94.6319 129.462 96.0986 130.009 97.1385 131.102C98.2052 132.196 98.7385 133.849 98.7385 136.062L98.7384 138.702Z" fill="black"/>
</g>
<circle cx="136.247" cy="39.7478" r="3.24674" fill="url(#paint2_linear_628_3411)"/>
<circle cx="136.247" cy="55.9815" r="3.24674" fill="url(#paint3_linear_628_3411)"/>
<path d="M158.002 8C158.002 4.13401 161.136 1 165.002 1H260.002C263.868 1 267.002 4.13401 267.002 8V44H158.002V8Z" stroke="url(#paint4_linear_628_3411)" stroke-width="2"/>
<mask id="mask2_628_3411" style="mask-type:alpha" maskUnits="userSpaceOnUse" x="157" y="0" width="112" height="45">
<path d="M157.002 8C157.002 3.58172 160.584 0 165.002 0H260.002C264.42 0 268.002 3.58172 268.002 8V45H157.002V8Z" fill="#D9D9D9"/>
</mask>
<g mask="url(#mask2_628_3411)">
<g filter="url(#filter3_f_628_3411)">
<path d="M157.002 8C157.002 3.58172 160.584 0 165.002 0H204.355C208.773 0 212.355 3.58172 212.355 8V45H157.002V8Z" fill="#298DFF" fill-opacity="0.5"/>
<path d="M268.297 8C268.297 3.58172 264.715 0 260.297 0H210.813C206.394 0 202.813 3.58172 202.813 8V45H268.297V8Z" fill="#4F28E9" fill-opacity="0.5"/>
</g>
</g>
<path d="M268.002 86C268.002 89.866 264.868 93 261.002 93H166.002C162.136 93 159.002 89.866 159.002 86V50H268.002V86Z" stroke="url(#paint5_linear_628_3411)" stroke-width="2"/>
<mask id="mask3_628_3411" style="mask-type:alpha" maskUnits="userSpaceOnUse" x="158" y="49" width="112" height="45">
<path d="M269.002 86C269.002 90.4183 265.42 94 261.002 94H166.002C161.584 94 158.002 90.4183 158.002 86V49H269.002V86Z" fill="#D9D9D9"/>
</mask>
<g mask="url(#mask3_628_3411)">
<g filter="url(#filter4_f_628_3411)">
<path d="M269.002 86C269.002 90.4183 265.42 94 261.002 94H221.649C217.231 94 213.649 90.4183 213.649 86V49H269.002V86Z" fill="#298DFF" fill-opacity="0.5"/>
<path d="M157.707 86C157.707 90.4183 161.289 94 165.707 94H215.191C219.609 94 223.191 90.4183 223.191 86V49H157.707V86Z" fill="#4F28E9" fill-opacity="0.5"/>
</g>
</g>
<circle cx="156.492" cy="47.5981" r="5.99061" fill="#24475B"/>
<circle cx="267.319" cy="47.6001" r="5.99061" fill="#24475B"/>
<rect x="159.486" y="46.1006" width="104.836" height="2.99531" fill="#24475B"/>
<ellipse cx="259.002" cy="43.0017" rx="1.5" ry="1" fill="#0D5239"/>
<ellipse cx="166.002" cy="43" rx="1.5" ry="1" fill="#0D5239"/>
<ellipse cx="166.002" cy="52.5" rx="1.5" ry="0.5" fill="#0D5239"/>
<ellipse cx="259.002" cy="52.5017" rx="1.5" ry="0.5" fill="#0D5239"/>
<g filter="url(#filter5_d_628_3411)">
<path d="M176.977 145.501L176.977 132.621L168.737 132.621L168.737 145.501L165.257 145.501L165.258 117.501L168.738 117.501L168.737 129.661L176.977 129.661L176.978 117.501L180.458 117.501L180.457 145.501L176.977 145.501ZM202.609 138.702C202.609 140.969 201.983 142.675 200.729 143.822C199.503 144.942 197.729 145.502 195.409 145.502L194.049 145.502C191.729 145.502 189.943 144.942 188.689 143.822C187.463 142.675 186.849 140.968 186.849 138.702L186.85 124.302C186.85 122.035 187.463 120.342 188.69 119.222C189.943 118.075 191.73 117.502 194.05 117.502L195.41 117.502C197.73 117.502 199.503 118.075 200.73 119.222C201.983 120.342 202.61 122.035 202.61 124.302L202.609 138.702ZM199.13 123.542C199.13 122.715 198.823 122.008 198.21 121.422C197.596 120.835 196.796 120.542 195.81 120.542L193.65 120.542C192.663 120.542 191.863 120.835 191.25 121.422C190.636 122.008 190.33 122.715 190.33 123.542L190.329 139.462C190.329 140.288 190.636 140.995 191.249 141.582C191.863 142.168 192.663 142.462 193.649 142.462L195.809 142.462C196.796 142.462 197.596 142.168 198.209 141.582C198.823 140.995 199.129 140.288 199.129 139.462L199.13 123.542ZM223.807 138.702C223.807 140.969 223.18 142.676 221.927 143.822C220.7 144.942 218.927 145.502 216.607 145.502L216.007 145.502C213.687 145.502 211.9 144.942 210.647 143.822C209.42 142.675 208.807 140.969 208.807 138.702L208.808 117.502L212.288 117.502L212.287 139.462C212.287 140.289 212.594 140.995 213.207 141.582C213.82 142.169 214.62 142.462 215.607 142.462L217.007 142.462C217.994 142.462 218.794 142.169 219.407 141.582C220.02 140.996 220.327 140.289 220.327 139.462L220.328 117.502L223.808 117.502L223.807 138.702ZM237.453 133.902L233.893 133.902L233.893 145.502L230.413 145.502L230.414 117.502L237.574 117.502C239.84 117.503 241.547 118.009 242.694 119.023C243.867 120.009 244.454 121.583 244.454 123.743L244.454 127.583C244.454 130.596 243.254 132.476 240.853 133.223L246.413 145.503L242.613 145.503L237.453 133.902ZM240.974 123.383C240.974 122.369 240.734 121.636 240.254 121.183C239.8 120.729 239.067 120.503 238.054 120.502L233.894 120.502L233.894 130.902L238.054 130.902C239.067 130.903 239.8 130.676 240.254 130.223C240.734 129.743 240.974 128.996 240.974 127.983L240.974 123.383ZM263.155 138.703C263.155 140.97 262.528 142.676 261.275 143.823C260.048 144.943 258.275 145.503 255.955 145.503L250.675 145.503L250.675 142.463L256.355 142.463C257.341 142.463 258.141 142.17 258.755 141.583C259.368 140.996 259.675 140.29 259.675 139.463L259.675 135.303C259.675 134.503 259.461 133.863 259.035 133.383C258.635 132.876 258.021 132.623 257.195 132.623L256.395 132.623C254.421 132.623 252.861 132.049 251.715 130.903C250.568 129.729 249.995 128.036 249.995 125.823L249.995 124.303C249.995 122.036 250.608 120.343 251.835 119.223C253.088 118.076 254.875 117.503 257.195 117.503L262.515 117.503L262.515 120.543L256.795 120.543C255.808 120.543 255.008 120.836 254.395 121.423C253.782 122.009 253.475 122.716 253.475 123.543L253.475 126.583C253.475 127.409 253.741 128.103 254.275 128.663C254.808 129.196 255.501 129.463 256.355 129.463L257.155 129.463C259.048 129.463 260.515 130.01 261.555 131.103C262.621 132.196 263.155 133.85 263.155 136.063L263.155 138.703Z" fill="black"/>
</g>
<circle cx="287.247" cy="40.2467" r="3.24674" fill="url(#paint6_linear_628_3411)"/>
<circle cx="287.247" cy="56.4804" r="3.24674" fill="url(#paint7_linear_628_3411)"/>
<path d="M309 8C309 4.13401 312.134 1 316 1H411C414.866 1 418 4.13401 418 8V44H309V8Z" stroke="url(#paint8_linear_628_3411)" stroke-width="2"/>
<mask id="mask4_628_3411" style="mask-type:alpha" maskUnits="userSpaceOnUse" x="308" y="0" width="111" height="45">
<path d="M308 8C308 3.58172 311.582 0 316 0H411C415.418 0 419 3.58172 419 8V45H308V8Z" fill="#D9D9D9"/>
</mask>
<g mask="url(#mask4_628_3411)">
<g filter="url(#filter6_f_628_3411)">
<path d="M308 8C308 3.58172 311.582 0 316 0H355.353C359.771 0 363.353 3.58172 363.353 8V45H308V8Z" fill="#298DFF" fill-opacity="0.5"/>
<path d="M419.295 8C419.295 3.58172 415.713 0 411.295 0H361.811C357.393 0 353.811 3.58172 353.811 8V45H419.295V8Z" fill="#4F28E9" fill-opacity="0.5"/>
</g>
</g>
<path d="M418 86C418 89.866 414.866 93 411 93H316C312.134 93 309 89.866 309 86V50H418V86Z" stroke="url(#paint9_linear_628_3411)" stroke-width="2"/>
<mask id="mask5_628_3411" style="mask-type:alpha" maskUnits="userSpaceOnUse" x="308" y="49" width="111" height="45">
<path d="M419 86C419 90.4183 415.418 94 411 94H316C311.582 94 308 90.4183 308 86V49H419V86Z" fill="#D9D9D9"/>
</mask>
<g mask="url(#mask5_628_3411)">
<g filter="url(#filter7_f_628_3411)">
<path d="M419 86C419 90.4183 415.418 94 411 94H371.647C367.229 94 363.647 90.4183 363.647 86V49H419V86Z" fill="#298DFF" fill-opacity="0.5"/>
<path d="M307.705 86C307.705 90.4183 311.287 94 315.705 94H365.189C369.607 94 373.189 90.4183 373.189 86V49H307.705V86Z" fill="#4F28E9" fill-opacity="0.5"/>
</g>
</g>
<circle cx="306.494" cy="47.5981" r="5.99061" fill="#24475B"/>
<circle cx="417.321" cy="47.6001" r="5.99061" fill="#24475B"/>
<rect x="309.488" y="46.1006" width="104.836" height="2.99531" fill="#24475B"/>
<ellipse cx="409.004" cy="43.0017" rx="1.5" ry="1" fill="#0D5239"/>
<ellipse cx="316.004" cy="43" rx="1.5" ry="1" fill="#0D5239"/>
<ellipse cx="316.004" cy="52.5" rx="1.5" ry="0.5" fill="#0D5239"/>
<ellipse cx="409.004" cy="52.5017" rx="1.5" ry="0.5" fill="#0D5239"/>
<g filter="url(#filter8_d_628_3411)">
<path d="M314.378 145.501L314.378 120.381L310.098 136.101L306.778 136.101L302.498 120.381L302.498 145.501L299.298 145.501L299.298 117.501L304.938 117.501L308.578 131.821L312.178 117.501L317.698 117.502L317.698 145.502L314.378 145.501ZM322.893 145.502L322.893 142.582L325.693 142.582L325.694 120.422L322.894 120.422L322.894 117.502L331.974 117.502L331.974 120.422L329.174 120.422L329.173 142.582L331.973 142.582L331.973 145.502L322.893 145.502ZM346.549 145.502L340.429 120.462L340.429 145.502L337.189 145.502L337.189 117.502L342.869 117.502L349.029 142.542L349.029 117.502L352.269 117.502L352.269 145.502L346.549 145.502ZM373.864 138.703C373.864 140.969 373.237 142.676 371.984 143.822C370.757 144.942 368.984 145.502 366.664 145.502L366.064 145.502C363.744 145.502 361.957 144.942 360.704 143.822C359.477 142.676 358.864 140.969 358.864 138.702L358.864 117.502L362.344 117.502L362.344 139.462C362.344 140.289 362.65 140.996 363.264 141.582C363.877 142.169 364.677 142.462 365.664 142.462L367.064 142.462C368.05 142.462 368.85 142.169 369.464 141.582C370.077 140.996 370.384 140.289 370.384 139.462L370.384 117.502L373.864 117.503L373.864 138.703ZM387.31 120.543L387.31 145.503L383.83 145.503L383.83 120.543L377.67 120.543L377.67 117.503L393.47 117.503L393.47 120.543L387.31 120.543ZM397.462 145.503L397.463 117.503L410.583 117.503L410.583 120.423L400.943 120.423L400.942 129.583L409.582 129.583L409.582 132.503L400.942 132.503L400.942 142.583L410.582 142.583L410.582 145.503L397.462 145.503ZM428.328 138.703C428.328 140.97 427.702 142.677 426.448 143.823C425.222 144.943 423.448 145.503 421.128 145.503L415.848 145.503L415.848 142.463L421.528 142.463C422.515 142.463 423.315 142.17 423.928 141.583C424.542 140.997 424.848 140.29 424.848 139.463L424.848 135.303C424.849 134.503 424.635 133.863 424.209 133.383C423.809 132.877 423.195 132.623 422.369 132.623L421.569 132.623C419.595 132.623 418.035 132.05 416.889 130.903C415.742 129.73 415.169 128.037 415.169 125.823L415.169 124.303C415.169 122.037 415.782 120.343 417.009 119.223C418.262 118.077 420.049 117.503 422.369 117.503L427.689 117.503L427.689 120.543L421.969 120.543C420.982 120.543 420.182 120.837 419.569 121.423C418.955 122.01 418.649 122.717 418.649 123.543L418.649 126.583C418.649 127.41 418.915 128.103 419.449 128.663C419.982 129.197 420.675 129.463 421.529 129.463L422.329 129.463C424.222 129.463 425.689 130.01 426.729 131.103C427.795 132.197 428.329 133.85 428.328 136.063L428.328 138.703Z" fill="black"/>
</g>
<circle cx="438.247" cy="39.7478" r="3.24674" fill="url(#paint10_linear_628_3411)"/>
<circle cx="438.247" cy="55.9815" r="3.24674" fill="url(#paint11_linear_628_3411)"/>
<path d="M459.002 8C459.002 4.13401 462.136 1 466.002 1H561.002C564.868 1 568.002 4.13401 568.002 8V44H459.002V8Z" stroke="url(#paint12_linear_628_3411)" stroke-width="2"/>
<mask id="mask6_628_3411" style="mask-type:alpha" maskUnits="userSpaceOnUse" x="458" y="0" width="112" height="45">
<path d="M458.002 8C458.002 3.58172 461.584 0 466.002 0H561.002C565.42 0 569.002 3.58172 569.002 8V45H458.002V8Z" fill="#D9D9D9"/>
</mask>
<g mask="url(#mask6_628_3411)">
<g filter="url(#filter9_f_628_3411)">
<path d="M458.002 8C458.002 3.58172 461.584 0 466.002 0H505.355C509.773 0 513.355 3.58172 513.355 8V45H458.002V8Z" fill="#298DFF" fill-opacity="0.5"/>
<path d="M569.297 8C569.297 3.58172 565.715 0 561.297 0H511.813C507.394 0 503.813 3.58172 503.813 8V45H569.297V8Z" fill="#4F28E9" fill-opacity="0.5"/>
</g>
</g>
<path d="M568.002 86C568.002 89.866 564.868 93 561.002 93H466.002C462.136 93 459.002 89.866 459.002 86V50H568.002V86Z" stroke="url(#paint13_linear_628_3411)" stroke-width="2"/>
<mask id="mask7_628_3411" style="mask-type:alpha" maskUnits="userSpaceOnUse" x="458" y="49" width="112" height="45">
<path d="M569.002 86C569.002 90.4183 565.42 94 561.002 94H466.002C461.584 94 458.002 90.4183 458.002 86V49H569.002V86Z" fill="#D9D9D9"/>
</mask>
<g mask="url(#mask7_628_3411)">
<g filter="url(#filter10_f_628_3411)">
<path d="M569.002 86C569.002 90.4183 565.42 94 561.002 94H521.649C517.231 94 513.649 90.4183 513.649 86V49H569.002V86Z" fill="#298DFF" fill-opacity="0.5"/>
<path d="M457.707 86C457.707 90.4183 461.289 94 465.707 94H515.191C519.609 94 523.191 90.4183 523.191 86V49H457.707V86Z" fill="#4F28E9" fill-opacity="0.5"/>
</g>
</g>
<circle cx="456.496" cy="47.5981" r="5.99061" fill="#24475B"/>
<circle cx="567.323" cy="47.6001" r="5.99061" fill="#24475B"/>
<rect x="459.49" y="46.1006" width="104.836" height="2.99531" fill="#24475B"/>
<ellipse cx="559.006" cy="43.0017" rx="1.5" ry="1" fill="#0D5239"/>
<ellipse cx="466.006" cy="43" rx="1.5" ry="1" fill="#0D5239"/>
<ellipse cx="466.006" cy="52.5" rx="1.5" ry="0.5" fill="#0D5239"/>
<ellipse cx="559.006" cy="52.5017" rx="1.5" ry="0.5" fill="#0D5239"/>
<g filter="url(#filter11_d_628_3411)">
<path d="M461.066 138.701C461.066 140.968 460.439 142.675 459.186 143.821C457.959 144.941 456.186 145.501 453.866 145.501L448.586 145.501L448.586 142.461L454.266 142.461C455.252 142.461 456.052 142.168 456.666 141.581C457.279 140.995 457.586 140.288 457.586 139.461L457.586 135.301C457.586 134.501 457.373 133.861 456.946 133.381C456.546 132.875 455.933 132.621 455.106 132.621L454.306 132.621C452.333 132.621 450.773 132.048 449.626 130.901C448.479 129.728 447.906 128.035 447.906 125.821L447.906 124.301C447.906 122.035 448.519 120.341 449.746 119.221C450.999 118.075 452.786 117.501 455.106 117.501L460.426 117.501L460.426 120.541L454.706 120.541C453.719 120.541 452.919 120.835 452.306 121.421C451.693 122.008 451.386 122.715 451.386 123.541L451.386 126.581C451.386 127.408 451.653 128.101 452.186 128.661C452.719 129.195 453.413 129.461 454.266 129.461L455.066 129.461C456.959 129.461 458.426 130.008 459.466 131.101C460.533 132.195 461.066 133.848 461.066 136.061L461.066 138.701ZM466.684 145.502L466.684 117.502L479.804 117.502L479.804 120.422L470.164 120.422L470.164 129.582L478.804 129.582L478.804 132.502L470.164 132.502L470.164 142.582L479.804 142.582L479.804 145.502L466.684 145.502ZM492.39 145.502C490.07 145.502 488.283 144.942 487.03 143.822C485.803 142.675 485.19 140.969 485.19 138.702L485.19 124.302C485.19 122.035 485.804 120.342 487.031 119.222C488.284 118.075 490.071 117.502 492.391 117.502L497.271 117.502L497.27 120.542L491.99 120.542C491.004 120.542 490.204 120.835 489.59 121.422C488.977 122.009 488.67 122.715 488.67 123.542L488.67 139.462C488.67 140.289 488.977 140.995 489.59 141.582C490.203 142.169 491.003 142.462 491.99 142.462L497.27 142.462L497.27 145.502L492.39 145.502ZM516.849 138.702C516.849 140.969 516.222 142.676 514.969 143.822C513.742 144.942 511.968 145.502 509.648 145.502L508.288 145.502C505.968 145.502 504.182 144.942 502.929 143.822C501.702 142.676 501.089 140.969 501.089 138.702L501.089 124.302C501.089 122.035 501.702 120.342 502.929 119.222C504.182 118.076 505.969 117.502 508.289 117.502L509.649 117.502C511.969 117.502 513.742 118.076 514.969 119.222C516.222 120.342 516.849 122.036 516.849 124.302L516.849 138.702ZM513.369 123.542C513.369 122.716 513.062 122.009 512.449 121.422C511.836 120.836 511.036 120.542 510.049 120.542L507.889 120.542C506.902 120.542 506.102 120.836 505.489 121.422C504.876 122.009 504.569 122.716 504.569 123.542L504.569 139.462C504.569 140.289 504.875 140.996 505.489 141.582C506.102 142.169 506.902 142.462 507.889 142.462L510.049 142.462C511.035 142.462 511.835 142.169 512.449 141.582C513.062 140.996 513.369 140.289 513.369 139.462L513.369 123.542ZM532.606 145.503L526.487 120.463L526.486 145.503L523.246 145.503L523.247 117.503L528.927 117.503L535.086 142.543L535.087 117.503L538.327 117.503L538.326 145.503L532.606 145.503ZM559.761 139.183C559.761 141.477 559.228 143.103 558.161 144.063C557.121 145.023 555.388 145.503 552.961 145.503L545.121 145.503L545.122 117.503L552.482 117.503C554.882 117.503 556.695 117.996 557.922 118.983C559.148 119.943 559.762 121.53 559.762 123.743L559.761 139.183ZM556.282 123.383C556.282 122.503 556.015 121.81 555.482 121.303C554.948 120.77 554.242 120.503 553.362 120.503L548.602 120.503L548.601 142.503L553.321 142.503C554.335 142.503 555.081 142.276 555.561 141.823C556.041 141.343 556.281 140.596 556.281 139.583L556.282 123.383ZM578.136 138.704C578.136 140.97 577.509 142.677 576.256 143.823C575.029 144.943 573.256 145.503 570.936 145.503L565.656 145.503L565.656 142.463L571.336 142.463C572.323 142.463 573.123 142.17 573.736 141.583C574.349 140.997 574.656 140.29 574.656 139.463L574.656 135.303C574.656 134.503 574.443 133.863 574.016 133.383C573.616 132.877 573.003 132.623 572.176 132.623L571.376 132.623C569.403 132.623 567.843 132.05 566.696 130.903C565.55 129.73 564.976 128.037 564.976 125.823L564.976 124.303C564.976 122.037 565.59 120.343 566.816 119.223C568.07 118.077 569.856 117.503 572.176 117.503L577.496 117.504L577.496 120.544L571.776 120.543C570.79 120.543 569.99 120.837 569.376 121.423C568.763 122.01 568.456 122.717 568.456 123.543L568.456 126.583C568.456 127.41 568.723 128.103 569.256 128.663C569.79 129.197 570.483 129.463 571.336 129.463L572.136 129.463C574.03 129.463 575.496 130.01 576.536 131.103C577.603 132.197 578.136 133.85 578.136 136.064L578.136 138.704Z" fill="black"/>
</g>
<defs>
<filter id="filter0_f_628_3411" x="-93" y="-100" width="311.295" height="245" filterUnits="userSpaceOnUse" color-interpolation-filters="sRGB">
<feFlood flood-opacity="0" result="BackgroundImageFix"/>
<feBlend mode="normal" in="SourceGraphic" in2="BackgroundImageFix" result="shape"/>
<feGaussianBlur stdDeviation="50" result="effect1_foregroundBlur_628_3411"/>
</filter>
<filter id="filter1_f_628_3411" x="-92.2949" y="-51" width="311.295" height="245" filterUnits="userSpaceOnUse" color-interpolation-filters="sRGB">
<feFlood flood-opacity="0" result="BackgroundImageFix"/>
<feBlend mode="normal" in="SourceGraphic" in2="BackgroundImageFix" result="shape"/>
<feGaussianBlur stdDeviation="50" result="effect1_foregroundBlur_628_3411"/>
</filter>
<filter id="filter2_d_628_3411" x="23.4414" y="117.501" width="79.2969" height="36.0012" filterUnits="userSpaceOnUse" color-interpolation-filters="sRGB">
<feFlood flood-opacity="0" result="BackgroundImageFix"/>
<feColorMatrix in="SourceAlpha" type="matrix" values="0 0 0 0 0 0 0 0 0 0 0 0 0 0 0 0 0 0 127 0" result="hardAlpha"/>
<feOffset dy="4"/>
<feGaussianBlur stdDeviation="2"/>
<feComposite in2="hardAlpha" operator="out"/>
<feColorMatrix type="matrix" values="0 0 0 0 0 0 0 0 0 0 0 0 0 0 0 0 0 0 0.25 0"/>
<feBlend mode="normal" in2="BackgroundImageFix" result="effect1_dropShadow_628_3411"/>
<feBlend mode="normal" in="SourceGraphic" in2="effect1_dropShadow_628_3411" result="shape"/>
</filter>
<filter id="filter3_f_628_3411" x="57.002" y="-100" width="311.295" height="245" filterUnits="userSpaceOnUse" color-interpolation-filters="sRGB">
<feFlood flood-opacity="0" result="BackgroundImageFix"/>
<feBlend mode="normal" in="SourceGraphic" in2="BackgroundImageFix" result="shape"/>
<feGaussianBlur stdDeviation="50" result="effect1_foregroundBlur_628_3411"/>
</filter>
<filter id="filter4_f_628_3411" x="57.707" y="-51" width="311.295" height="245" filterUnits="userSpaceOnUse" color-interpolation-filters="sRGB">
<feFlood flood-opacity="0" result="BackgroundImageFix"/>
<feBlend mode="normal" in="SourceGraphic" in2="BackgroundImageFix" result="shape"/>
<feGaussianBlur stdDeviation="50" result="effect1_foregroundBlur_628_3411"/>
</filter>
<filter id="filter5_d_628_3411" x="161.258" y="117.501" width="105.896" height="36.0017" filterUnits="userSpaceOnUse" color-interpolation-filters="sRGB">
<feFlood flood-opacity="0" result="BackgroundImageFix"/>
<feColorMatrix in="SourceAlpha" type="matrix" values="0 0 0 0 0 0 0 0 0 0 0 0 0 0 0 0 0 0 127 0" result="hardAlpha"/>
<feOffset dy="4"/>
<feGaussianBlur stdDeviation="2"/>
<feComposite in2="hardAlpha" operator="out"/>
<feColorMatrix type="matrix" values="0 0 0 0 0 0 0 0 0 0 0 0 0 0 0 0 0 0 0.25 0"/>
<feBlend mode="normal" in2="BackgroundImageFix" result="effect1_dropShadow_628_3411"/>
<feBlend mode="normal" in="SourceGraphic" in2="effect1_dropShadow_628_3411" result="shape"/>
</filter>
<filter id="filter6_f_628_3411" x="208" y="-100" width="311.295" height="245" filterUnits="userSpaceOnUse" color-interpolation-filters="sRGB">
<feFlood flood-opacity="0" result="BackgroundImageFix"/>
<feBlend mode="normal" in="SourceGraphic" in2="BackgroundImageFix" result="shape"/>
<feGaussianBlur stdDeviation="50" result="effect1_foregroundBlur_628_3411"/>
</filter>
<filter id="filter7_f_628_3411" x="207.705" y="-51" width="311.295" height="245" filterUnits="userSpaceOnUse" color-interpolation-filters="sRGB">
<feFlood flood-opacity="0" result="BackgroundImageFix"/>
<feBlend mode="normal" in="SourceGraphic" in2="BackgroundImageFix" result="shape"/>
<feGaussianBlur stdDeviation="50" result="effect1_foregroundBlur_628_3411"/>
</filter>
<filter id="filter8_d_628_3411" x="295.299" y="117.501" width="137.029" height="36.0023" filterUnits="userSpaceOnUse" color-interpolation-filters="sRGB">
<feFlood flood-opacity="0" result="BackgroundImageFix"/>
<feColorMatrix in="SourceAlpha" type="matrix" values="0 0 0 0 0 0 0 0 0 0 0 0 0 0 0 0 0 0 127 0" result="hardAlpha"/>
<feOffset dy="4"/>
<feGaussianBlur stdDeviation="2"/>
<feComposite in2="hardAlpha" operator="out"/>
<feColorMatrix type="matrix" values="0 0 0 0 0 0 0 0 0 0 0 0 0 0 0 0 0 0 0.25 0"/>
<feBlend mode="normal" in2="BackgroundImageFix" result="effect1_dropShadow_628_3411"/>
<feBlend mode="normal" in="SourceGraphic" in2="effect1_dropShadow_628_3411" result="shape"/>
</filter>
<filter id="filter9_f_628_3411" x="358.002" y="-100" width="311.295" height="245" filterUnits="userSpaceOnUse" color-interpolation-filters="sRGB">
<feFlood flood-opacity="0" result="BackgroundImageFix"/>
<feBlend mode="normal" in="SourceGraphic" in2="BackgroundImageFix" result="shape"/>
<feGaussianBlur stdDeviation="50" result="effect1_foregroundBlur_628_3411"/>
</filter>
<filter id="filter10_f_628_3411" x="357.707" y="-51" width="311.295" height="245" filterUnits="userSpaceOnUse" color-interpolation-filters="sRGB">
<feFlood flood-opacity="0" result="BackgroundImageFix"/>
<feBlend mode="normal" in="SourceGraphic" in2="BackgroundImageFix" result="shape"/>
<feGaussianBlur stdDeviation="50" result="effect1_foregroundBlur_628_3411"/>
</filter>
<filter id="filter11_d_628_3411" x="443.906" y="117.501" width="138.23" height="36.0023" filterUnits="userSpaceOnUse" color-interpolation-filters="sRGB">
<feFlood flood-opacity="0" result="BackgroundImageFix"/>
<feColorMatrix in="SourceAlpha" type="matrix" values="0 0 0 0 0 0 0 0 0 0 0 0 0 0 0 0 0 0 127 0" result="hardAlpha"/>
<feOffset dy="4"/>
<feGaussianBlur stdDeviation="2"/>
<feComposite in2="hardAlpha" operator="out"/>
<feColorMatrix type="matrix" values="0 0 0 0 0 0 0 0 0 0 0 0 0 0 0 0 0 0 0.25 0"/>
<feBlend mode="normal" in2="BackgroundImageFix" result="effect1_dropShadow_628_3411"/>
<feBlend mode="normal" in="SourceGraphic" in2="effect1_dropShadow_628_3411" result="shape"/>
</filter>
<linearGradient id="paint0_linear_628_3411" x1="116.605" y1="0.554795" x2="15.8565" y2="58.1954" gradientUnits="userSpaceOnUse">
<stop stop-color="#5757EC"/>
<stop offset="1" stop-color="#FFFCFC" stop-opacity="0.5"/>
</linearGradient>
<linearGradient id="paint1_linear_628_3411" x1="9.39485" y1="93.4452" x2="110.144" y2="35.8046" gradientUnits="userSpaceOnUse">
<stop stop-color="#5757EC"/>
<stop offset="1" stop-color="#FFFCFC" stop-opacity="0.5"/>
</linearGradient>
<linearGradient id="paint2_linear_628_3411" x1="136.5" y1="36.5008" x2="136.5" y2="43.5008" gradientUnits="userSpaceOnUse">
<stop stop-color="#26A8FF"/>
<stop offset="1" stop-color="#D3D3D3"/>
</linearGradient>
<linearGradient id="paint3_linear_628_3411" x1="136.5" y1="52.7344" x2="136.5" y2="59.7344" gradientUnits="userSpaceOnUse">
<stop stop-color="#26A8FF"/>
<stop offset="1" stop-color="#D3D3D3"/>
</linearGradient>
<linearGradient id="paint4_linear_628_3411" x1="266.607" y1="0.554795" x2="165.858" y2="58.1954" gradientUnits="userSpaceOnUse">
<stop stop-color="#5757EC"/>
<stop offset="1" stop-color="#FFFCFC" stop-opacity="0.5"/>
</linearGradient>
<linearGradient id="paint5_linear_628_3411" x1="159.397" y1="93.4452" x2="260.145" y2="35.8046" gradientUnits="userSpaceOnUse">
<stop stop-color="#5757EC"/>
<stop offset="1" stop-color="#FFFCFC" stop-opacity="0.5"/>
</linearGradient>
<linearGradient id="paint6_linear_628_3411" x1="287.5" y1="36.9997" x2="287.5" y2="43.9997" gradientUnits="userSpaceOnUse">
<stop stop-color="#26A8FF"/>
<stop offset="1" stop-color="#D3D3D3"/>
</linearGradient>
<linearGradient id="paint7_linear_628_3411" x1="287.5" y1="53.2333" x2="287.5" y2="60.2333" gradientUnits="userSpaceOnUse">
<stop stop-color="#26A8FF"/>
<stop offset="1" stop-color="#D3D3D3"/>
</linearGradient>
<linearGradient id="paint8_linear_628_3411" x1="417.605" y1="0.554795" x2="316.856" y2="58.1954" gradientUnits="userSpaceOnUse">
<stop stop-color="#5757EC"/>
<stop offset="1" stop-color="#FFFCFC" stop-opacity="0.5"/>
</linearGradient>
<linearGradient id="paint9_linear_628_3411" x1="309.395" y1="93.4452" x2="410.144" y2="35.8046" gradientUnits="userSpaceOnUse">
<stop stop-color="#5757EC"/>
<stop offset="1" stop-color="#FFFCFC" stop-opacity="0.5"/>
</linearGradient>
<linearGradient id="paint10_linear_628_3411" x1="438.5" y1="36.5008" x2="438.5" y2="43.5008" gradientUnits="userSpaceOnUse">
<stop stop-color="#26A8FF"/>
<stop offset="1" stop-color="#D3D3D3"/>
</linearGradient>
<linearGradient id="paint11_linear_628_3411" x1="438.5" y1="52.7344" x2="438.5" y2="59.7344" gradientUnits="userSpaceOnUse">
<stop stop-color="#26A8FF"/>
<stop offset="1" stop-color="#D3D3D3"/>
</linearGradient>
<linearGradient id="paint12_linear_628_3411" x1="567.607" y1="0.554795" x2="466.858" y2="58.1954" gradientUnits="userSpaceOnUse">
<stop stop-color="#5757EC"/>
<stop offset="1" stop-color="#FFFCFC" stop-opacity="0.5"/>
</linearGradient>
<linearGradient id="paint13_linear_628_3411" x1="459.397" y1="93.4452" x2="560.145" y2="35.8046" gradientUnits="userSpaceOnUse">
<stop stop-color="#5757EC"/>
<stop offset="1" stop-color="#FFFCFC" stop-opacity="0.5"/>
</linearGradient>
</defs>
</svg>
