<svg width="224" height="141" viewBox="0 0 224 141" fill="none" xmlns="http://www.w3.org/2000/svg">
<path d="M2 16C2 8.26802 8.26801 2 16 2H208C215.732 2 222 8.26801 222 16V125C222 132.732 215.732 139 208 139H16C8.26802 139 2 132.732 2 125V16Z" stroke="url(#paint0_linear_628_3562)" stroke-width="4"/>
<mask id="mask0_628_3562" style="mask-type:alpha" maskUnits="userSpaceOnUse" x="0" y="0" width="224" height="141">
<path d="M0 16C0 7.16345 7.16344 0 16 0H208C216.837 0 224 7.16344 224 16V125C224 133.837 216.837 141 208 141H16C7.16345 141 0 133.837 0 125V16Z" fill="#D9D9D9"/>
</mask>
<g mask="url(#mask0_628_3562)">
<g filter="url(#filter0_f_628_3562)">
<path d="M0 16C0 7.16345 7.16344 0 16 0H111.704V141H16C7.16345 141 0 133.837 0 125V16Z" fill="#298DFF" fill-opacity="0.5"/>
<path d="M224.594 16C224.594 7.16345 217.43 0 208.594 0H92.4456V141H208.594C217.43 141 224.594 133.837 224.594 125V16Z" fill="#4F28E9" fill-opacity="0.5"/>
</g>
</g>
<path d="M92.5156 24.125C88.8239 24.127 85.284 25.5944 82.6736 28.2048C80.0632 30.8153 78.5958 34.3552 78.5938 38.0469C78.5938 45.7292 84.8333 51.9688 92.5156 51.9688C94.5735 51.9688 96.5099 51.4549 98.2894 50.6247L111.5 68.027V82.3438H101.375V87.4062H126.688V82.3438H116.562V68.027L138.87 38.6012L139.344 37.8899V34.25H105.805C104.273 28.3775 98.8032 24.125 92.5156 24.125ZM92.5156 29.1875C96.0341 29.1875 99.0716 31.3138 100.426 34.25H88.7188V37.8899L89.1946 38.5987L95.1253 46.4329C94.2886 46.7376 93.4061 46.8977 92.5156 46.9062C91.3484 46.9198 90.1903 46.6999 89.1093 46.2595C88.0283 45.8191 87.0462 45.167 86.2209 44.3416C85.3955 43.5163 84.7434 42.5342 84.303 41.4532C83.8626 40.3722 83.6427 39.2141 83.6562 38.0469C83.6427 36.8797 83.8626 35.7215 84.303 34.6405C84.7434 33.5595 85.3955 32.5775 86.2209 31.7521C87.0462 30.9267 88.0283 30.2746 89.1093 29.8342C90.1903 29.3938 91.3484 29.1739 92.5156 29.1875ZM96.1556 39.3125H131.907L128.11 44.375H105.172L108.969 49.4375H124.235L114.031 62.9645L96.1556 39.3125Z" fill="black"/>
<path opacity="0.8" d="M11.1837 111.28C11.0984 110.896 11.0557 110.597 11.0557 110.384C11.0557 110.149 11.0664 109.968 11.0877 109.84H19.0558C19.1411 110.096 19.1838 110.576 19.1838 111.28C18.2664 111.323 17.6158 111.419 17.2318 111.568L20.6878 122.448C20.7731 121.851 21.0078 120.987 21.3918 119.856L23.7278 113.328C23.8558 112.965 23.9198 112.667 23.9198 112.432C23.9198 112.197 23.8771 112.016 23.7918 111.888C23.5998 111.589 23.0984 111.387 22.2878 111.28C22.1811 110.96 22.1278 110.672 22.1278 110.416C22.1278 110.16 22.1278 109.968 22.1278 109.84H28.8158C28.8371 110.309 28.7411 110.789 28.5278 111.28C27.7598 111.323 27.1198 111.461 26.6078 111.696L21.3918 124.688H18.0638L13.4557 113.136C13.2424 112.539 12.9864 112.112 12.6878 111.856C12.3891 111.6 11.8878 111.408 11.1837 111.28ZM34.8755 107.024C34.4062 107.493 33.8408 107.728 33.1795 107.728C32.5182 107.728 31.9528 107.493 31.4835 107.024C31.0142 106.555 30.7795 105.989 30.7795 105.328C30.7795 104.667 31.0142 104.101 31.4835 103.632C31.9528 103.163 32.5182 102.928 33.1795 102.928C33.8622 102.928 34.4275 103.163 34.8755 103.632C35.3448 104.08 35.5795 104.645 35.5795 105.328C35.5795 105.989 35.3448 106.555 34.8755 107.024ZM37.1155 123.024C37.1155 123.109 37.1155 123.259 37.1155 123.472C37.1155 123.685 37.0835 124.027 37.0195 124.496H29.0515C29.0302 124.347 29.0195 124.144 29.0195 123.888C29.0195 123.611 29.0728 123.323 29.1795 123.024C29.8835 122.917 30.3955 122.747 30.7155 122.512C31.0568 122.256 31.2275 121.84 31.2275 121.264V112.272C30.8862 112.229 30.5235 112.208 30.1395 112.208C29.7768 112.208 29.4142 112.219 29.0515 112.24C29.0942 111.621 29.1688 111.131 29.2755 110.768C31.1315 110.149 33.1048 109.755 35.1955 109.584V122.608C35.7288 122.843 36.3688 122.981 37.1155 123.024ZM46.7285 111.376C46.0245 111.376 45.3738 111.685 44.7765 112.304C44.2005 112.923 43.8165 113.893 43.6245 115.216L46.6005 114.992L48.8725 114.928C48.8085 112.56 48.0938 111.376 46.7285 111.376ZM43.4965 116.656V116.976C43.4965 120.603 44.8725 122.416 47.6245 122.416C49.0752 122.416 50.6005 122.032 52.2005 121.264L52.7445 122.192C50.9952 124.005 48.9045 124.912 46.4725 124.912C45.3632 124.912 44.2752 124.667 43.2085 124.176C42.1632 123.664 41.2458 122.821 40.4565 121.648C39.6885 120.475 39.3045 119.088 39.3045 117.488C39.3045 115.013 40.0725 113.051 41.6085 111.6C43.1658 110.149 44.9898 109.424 47.0805 109.424C48.7018 109.424 50.0672 109.925 51.1765 110.928C52.3072 111.931 52.8725 113.499 52.8725 115.632C52.7445 116.016 52.5738 116.357 52.3605 116.656H43.4965ZM77.9688 109.84C78.0114 109.968 78.0328 110.149 78.0328 110.384C78.0328 110.597 77.9581 110.896 77.8088 111.28C77.3608 111.323 76.9554 111.397 76.5928 111.504L71.2808 124.688H69.6808L66.1928 115.728L62.2888 124.688H60.6888L55.8568 111.568C55.4301 111.397 55.0034 111.301 54.5768 111.28C54.4914 110.939 54.4488 110.651 54.4488 110.416C54.4488 110.181 54.4701 109.989 54.5128 109.84H61.8408C61.9261 110.203 61.9688 110.683 61.9688 111.28C61.2008 111.344 60.7421 111.472 60.5928 111.664C60.4434 111.856 60.3688 112.059 60.3688 112.272C60.3688 112.464 60.4008 112.667 60.4648 112.88L62.3528 118.544C62.5234 118.949 62.6408 119.408 62.7048 119.92H62.7688L66.5128 110.48H68.1128L71.0568 118.544C71.2274 118.949 71.3448 119.397 71.4088 119.888H71.4728L73.9688 112.912C74.0754 112.613 74.1288 112.368 74.1288 112.176C74.1288 111.963 74.0434 111.771 73.8728 111.6C73.7021 111.408 73.2328 111.301 72.4648 111.28C72.4434 111.131 72.4328 110.928 72.4328 110.672C72.4328 110.416 72.4754 110.139 72.5608 109.84H77.9688ZM94.1525 124.912C92.3392 124.912 90.7392 124.261 89.3525 122.96C87.9872 121.637 87.3045 119.792 87.3045 117.424C87.3045 115.035 88.0725 113.104 89.6085 111.632C91.1445 110.16 93.0432 109.424 95.3045 109.424C96.7765 109.424 98.1952 109.765 99.5605 110.448C99.5392 111.728 99.3898 113.125 99.1125 114.64C98.8778 114.64 98.5472 114.597 98.1205 114.512C98.0565 113.552 97.7472 112.795 97.1925 112.24C96.6592 111.685 95.9872 111.408 95.1765 111.408C94.0672 111.408 93.1712 111.877 92.4885 112.816C91.8272 113.755 91.4965 115.163 91.4965 117.04C91.4965 118.896 91.8378 120.272 92.5205 121.168C93.2245 122.043 94.1738 122.48 95.3685 122.48C96.5845 122.48 97.9712 122.117 99.5285 121.392L100.137 122.288C98.3872 124.037 96.3925 124.912 94.1525 124.912ZM112.623 117.68C112.623 113.392 111.46 111.248 109.135 111.248C106.98 111.248 105.903 113.051 105.903 116.656C105.903 116.827 105.903 116.997 105.903 117.168C106.073 121.051 107.257 122.992 109.455 122.992C111.567 122.992 112.623 121.221 112.623 117.68ZM109.295 109.424C111.556 109.424 113.38 110.096 114.767 111.44C116.153 112.784 116.847 114.683 116.847 117.136C116.847 119.589 116.143 121.499 114.735 122.864C113.327 124.208 111.492 124.88 109.231 124.88C106.969 124.88 105.145 124.208 103.759 122.864C102.393 121.52 101.711 119.621 101.711 117.168C101.711 114.715 102.415 112.816 103.823 111.472C105.231 110.107 107.055 109.424 109.295 109.424ZM125.684 124.912C123.87 124.912 122.27 124.261 120.884 122.96C119.518 121.637 118.836 119.792 118.836 117.424C118.836 115.035 119.604 113.104 121.14 111.632C122.676 110.16 124.574 109.424 126.836 109.424C128.308 109.424 129.726 109.765 131.092 110.448C131.07 111.728 130.921 113.125 130.644 114.64C130.409 114.64 130.078 114.597 129.652 114.512C129.588 113.552 129.278 112.795 128.724 112.24C128.19 111.685 127.518 111.408 126.708 111.408C125.598 111.408 124.702 111.877 124.02 112.816C123.358 113.755 123.028 115.163 123.028 117.04C123.028 118.896 123.369 120.272 124.052 121.168C124.756 122.043 125.705 122.48 126.9 122.48C128.116 122.48 129.502 122.117 131.06 121.392L131.668 122.288C129.918 124.037 127.924 124.912 125.684 124.912ZM150.842 123.024C150.842 123.088 150.842 123.237 150.842 123.472C150.842 123.685 150.789 124.027 150.682 124.496H145.466L141.37 118.544C141.199 118.288 141.039 118.107 140.89 118L139.258 119.6V122.608C139.791 122.843 140.431 122.981 141.178 123.024C141.178 123.109 141.178 123.259 141.178 123.472C141.178 123.685 141.146 124.027 141.082 124.496H133.114C133.093 124.347 133.082 124.144 133.082 123.888C133.082 123.611 133.135 123.323 133.242 123.024C133.946 122.917 134.458 122.747 134.778 122.512C135.119 122.256 135.29 121.84 135.29 121.264V104.176C135.098 104.155 134.821 104.144 134.458 104.144C134.095 104.144 133.647 104.155 133.114 104.176C133.157 103.515 133.231 103.035 133.338 102.736C135.151 102.075 137.125 101.669 139.258 101.52V117.2L144.794 111.728C143.919 111.557 143.173 111.323 142.554 111.024C142.554 110.533 142.618 110.128 142.746 109.808H149.882C149.882 110.491 149.85 110.981 149.786 111.28C148.421 111.28 147.258 111.76 146.298 112.72L143.418 115.536C143.93 115.792 144.463 116.325 145.018 117.136L147.706 121.072C148.218 121.819 148.677 122.32 149.082 122.576C149.509 122.832 150.095 122.981 150.842 123.024ZM158.066 124.88C156.85 124.88 155.869 124.517 155.122 123.792C154.375 123.045 154.002 121.947 154.002 120.496V111.952C153.405 111.867 152.722 111.824 151.954 111.824C151.954 111.376 151.975 110.96 152.018 110.576C152.551 110.363 153.202 110.16 153.97 109.968L157.138 105.328L157.938 105.552V109.936C159.431 109.893 160.786 109.797 162.002 109.648C162.002 110.459 161.906 111.184 161.714 111.824H157.938L157.97 120.304C157.97 121.563 158.461 122.192 159.442 122.192C160.253 122.192 161.074 121.872 161.906 121.232L162.578 122.096C161.277 123.952 159.773 124.88 158.066 124.88ZM168.404 120.496C168.404 121.072 168.564 121.531 168.884 121.872C169.225 122.213 169.737 122.384 170.42 122.384C171.124 122.384 171.753 122.075 172.308 121.456V117.296L170.9 117.68C169.236 118.149 168.404 119.088 168.404 120.496ZM175.604 124.912C174.878 124.912 174.217 124.763 173.62 124.464C173.044 124.144 172.649 123.696 172.436 123.12C171.412 124.315 170.185 124.912 168.756 124.912C167.348 124.912 166.238 124.528 165.428 123.76C164.617 122.992 164.212 122.011 164.212 120.816C164.212 119.621 164.596 118.672 165.364 117.968C166.132 117.264 167.294 116.752 168.852 116.432L172.308 115.728V114.576C172.308 113.765 172.105 113.179 171.7 112.816C171.316 112.432 170.601 112.24 169.556 112.24C168.532 112.24 167.348 112.475 166.004 112.944L165.204 111.76C166.996 110.203 169.065 109.424 171.411 109.424C173.012 109.424 174.217 109.861 175.028 110.736C175.838 111.611 176.244 112.848 176.244 114.448V120.816C176.244 121.904 176.585 122.448 177.268 122.448C177.374 122.448 177.769 122.384 178.452 122.256L178.772 123.088C177.79 124.304 176.734 124.912 175.604 124.912ZM185.657 107.024C185.187 107.493 184.622 107.728 183.961 107.728C183.299 107.728 182.734 107.493 182.265 107.024C181.795 106.555 181.561 105.989 181.561 105.328C181.561 104.667 181.795 104.101 182.265 103.632C182.734 103.163 183.299 102.928 183.961 102.928C184.643 102.928 185.209 103.163 185.657 103.632C186.126 104.08 186.361 104.645 186.361 105.328C186.361 105.989 186.126 106.555 185.657 107.024ZM187.897 123.024C187.897 123.109 187.897 123.259 187.897 123.472C187.897 123.685 187.865 124.027 187.801 124.496H179.833C179.811 124.347 179.801 124.144 179.801 123.888C179.801 123.611 179.854 123.323 179.961 123.024C180.665 122.917 181.177 122.747 181.497 122.512C181.838 122.256 182.009 121.84 182.009 121.264V112.272C181.667 112.229 181.305 112.208 180.921 112.208C180.558 112.208 180.195 112.219 179.833 112.24C179.875 111.621 179.95 111.131 180.057 110.768C181.913 110.149 183.886 109.755 185.977 109.584V122.608C186.51 122.843 187.15 122.981 187.897 123.024ZM198.022 123.024C198.022 123.109 198.022 123.259 198.022 123.472C198.022 123.685 197.99 124.027 197.926 124.496H189.958C189.936 124.347 189.926 124.144 189.926 123.888C189.926 123.611 189.979 123.323 190.086 123.024C190.79 122.917 191.302 122.747 191.622 122.512C191.963 122.256 192.134 121.84 192.134 121.264V104.176C191.942 104.155 191.664 104.144 191.302 104.144C190.939 104.144 190.491 104.155 189.958 104.176C190 103.515 190.075 103.035 190.182 102.736C191.995 102.075 193.968 101.669 196.102 101.52V122.608C196.635 122.843 197.275 122.981 198.022 123.024ZM205.235 123.056C206.024 123.056 206.653 122.875 207.123 122.512C207.592 122.149 207.827 121.701 207.827 121.168C207.827 120.635 207.592 120.165 207.123 119.76C206.653 119.333 206.088 118.949 205.427 118.608C204.765 118.267 204.104 117.904 203.443 117.52C202.781 117.136 202.216 116.635 201.747 116.016C201.277 115.376 201.043 114.64 201.043 113.808C201.043 112.357 201.555 111.269 202.579 110.544C203.624 109.797 204.893 109.424 206.387 109.424C207.88 109.424 209.299 109.648 210.643 110.096C210.643 110.352 210.643 110.811 210.643 111.472C210.643 112.112 210.579 112.976 210.451 114.064C209.896 114.064 209.48 114.021 209.203 113.936C209.224 113.701 209.235 113.488 209.235 113.296C209.235 111.845 208.445 111.12 206.867 111.12C206.227 111.12 205.693 111.291 205.267 111.632C204.861 111.973 204.659 112.421 204.659 112.976C204.659 113.531 204.893 114.011 205.363 114.416C205.853 114.8 206.44 115.152 207.123 115.472C207.827 115.771 208.52 116.112 209.203 116.496C209.907 116.859 210.493 117.36 210.963 118C211.453 118.64 211.699 119.387 211.699 120.24C211.699 121.627 211.101 122.757 209.907 123.632C208.712 124.485 207.229 124.912 205.459 124.912C203.688 124.912 202.099 124.699 200.691 124.272C200.648 123.781 200.627 123.184 200.627 122.48C200.627 121.755 200.701 120.923 200.851 119.984C200.893 119.984 201.331 120.016 202.163 120.08C202.163 120.208 202.163 120.432 202.163 120.752C202.163 121.051 202.237 121.392 202.387 121.776C202.557 122.16 202.824 122.437 203.187 122.608C203.763 122.907 204.445 123.056 205.235 123.056Z" fill="black"/>
<defs>
<filter id="filter0_f_628_3562" x="-100" y="-100" width="424.594" height="341" filterUnits="userSpaceOnUse" color-interpolation-filters="sRGB">
<feFlood flood-opacity="0" result="BackgroundImageFix"/>
<feBlend mode="normal" in="SourceGraphic" in2="BackgroundImageFix" result="shape"/>
<feGaussianBlur stdDeviation="50" result="effect1_foregroundBlur_628_3562"/>
</filter>
<linearGradient id="paint0_linear_628_3562" x1="221.185" y1="1.73836" x2="-16.4167" y2="89.2887" gradientUnits="userSpaceOnUse">
<stop stop-color="#5757EC"/>
<stop offset="1" stop-color="#FFFCFC" stop-opacity="0.5"/>
</linearGradient>
</defs>
</svg>
