<svg width="200" height="150" viewBox="0 0 200 150" fill="none" xmlns="http://www.w3.org/2000/svg">
<path d="M16 2H184C191.732 2 198 8.26801 198 16V134C198 141.732 191.732 148 184 148H16C8.26801 148 2 141.732 2 134V16C2 8.26802 8.26801 2 16 2Z" stroke="url(#paint0_linear_1151_555)" stroke-width="4"/>
<mask id="mask0_1151_555" style="mask-type:alpha" maskUnits="userSpaceOnUse" x="0" y="0" width="200" height="150">
<path d="M0 16C0 7.16345 7.16344 0 16 0H184C192.837 0 200 7.16344 200 16V134C200 142.837 192.837 150 184 150H16C7.16344 150 0 142.837 0 134V16Z" fill="#D9D9D9"/>
</mask>
<g mask="url(#mask0_1151_555)">
<g filter="url(#filter0_f_1151_555)">
<path d="M0 16C0 7.16345 7.16344 0 16 0H99.7355V150H16C7.16346 150 0 142.837 0 134V16Z" fill="#298DFF" fill-opacity="0.5"/>
<path d="M200.529 16C200.529 7.16345 193.366 0 184.529 0H82.5399V150H184.529C193.366 150 200.529 142.837 200.529 134V16Z" fill="#4F28E9" fill-opacity="0.5"/>
</g>
</g>
<defs>
<filter id="filter0_f_1151_555" x="-100" y="-100" width="400.529" height="350" filterUnits="userSpaceOnUse" color-interpolation-filters="sRGB">
<feFlood flood-opacity="0" result="BackgroundImageFix"/>
<feBlend mode="normal" in="SourceGraphic" in2="BackgroundImageFix" result="shape"/>
<feGaussianBlur stdDeviation="50" result="effect1_foregroundBlur_1151_555"/>
</filter>
<linearGradient id="paint0_linear_1151_555" x1="197.487" y1="1.84932" x2="-22.4289" y2="69.8595" gradientUnits="userSpaceOnUse">
<stop stop-color="#5757EC"/>
<stop offset="1" stop-color="#FFFCFC" stop-opacity="0.5"/>
</linearGradient>
</defs>
</svg>
