<svg width="746" height="76" viewBox="0 0 746 76" fill="none" xmlns="http://www.w3.org/2000/svg">
<path d="M2 16C2 8.26801 8.26801 2 16 2H730C737.732 2 744 8.26801 744 16V60C744 67.732 737.732 74 730 74H16C8.26801 74 2 67.732 2 60V16Z" stroke="url(#paint0_linear_653_1392)" stroke-width="4"/>
<mask id="mask0_653_1392" style="mask-type:alpha" maskUnits="userSpaceOnUse" x="0" y="0" width="746" height="76">
<path d="M0 16C0 7.16344 7.16344 0 16 0H730C738.837 0 746 7.16344 746 16V60C746 68.8366 738.837 76 730 76H16C7.16344 76 0 68.8366 0 60V16Z" fill="#D9D9D9"/>
</mask>
<g mask="url(#mask0_653_1392)">
<g filter="url(#filter0_f_653_1392)">
<path d="M0 16C0 7.16344 7.16344 0 16 0H372.013V76H16C7.16342 76 0 68.8366 0 60V16Z" fill="#298DFF" fill-opacity="0.5"/>
<path d="M747.977 16C747.977 7.16344 740.813 0 731.977 0H307.876V76H731.977C740.813 76 747.977 68.8366 747.977 60V16Z" fill="#4F28E9" fill-opacity="0.5"/>
</g>
</g>
<defs>
<filter id="filter0_f_653_1392" x="-100" y="-100" width="947.977" height="276" filterUnits="userSpaceOnUse" color-interpolation-filters="sRGB">
<feFlood flood-opacity="0" result="BackgroundImageFix"/>
<feBlend mode="normal" in="SourceGraphic" in2="BackgroundImageFix" result="shape"/>
<feGaussianBlur stdDeviation="50" result="effect1_foregroundBlur_653_1392"/>
</filter>
<linearGradient id="paint0_linear_653_1392" x1="736.626" y1="0.936988" x2="591.277" y2="331.851" gradientUnits="userSpaceOnUse">
<stop stop-color="#5757EC"/>
<stop offset="1" stop-color="#FFFCFC" stop-opacity="0.5"/>
</linearGradient>
</defs>
</svg>
