<svg width="224" height="141" viewBox="0 0 224 141" fill="none" xmlns="http://www.w3.org/2000/svg">
<mask id="mask0_889_552" style="mask-type:alpha" maskUnits="userSpaceOnUse" x="0" y="0" width="224" height="141">
<path d="M0 16C0 7.16345 7.16344 0 16 0H208C216.837 0 224 7.16344 224 16V125C224 133.837 216.837 141 208 141H16C7.16345 141 0 133.837 0 125V16Z" fill="#D9D9D9"/>
</mask>
<g mask="url(#mask0_889_552)">
<g filter="url(#filter0_f_889_552)">
<path d="M0 16C0 7.16345 7.16344 0 16 0H111.704V141H16C7.16345 141 0 133.837 0 125V16Z" fill="#298DFF" fill-opacity="0.5"/>
<path d="M224.594 16C224.594 7.16345 217.43 0 208.594 0H92.4456V141H208.594C217.43 141 224.594 133.837 224.594 125V16Z" fill="#4F28E9" fill-opacity="0.5"/>
</g>
</g>
<defs>
<filter id="filter0_f_889_552" x="-100" y="-100" width="424.594" height="341" filterUnits="userSpaceOnUse" color-interpolation-filters="sRGB">
<feFlood flood-opacity="0" result="BackgroundImageFix"/>
<feBlend mode="normal" in="SourceGraphic" in2="BackgroundImageFix" result="shape"/>
<feGaussianBlur stdDeviation="50" result="effect1_foregroundBlur_889_552"/>
</filter>
</defs>
</svg>
