<svg width="320" height="235" viewBox="0 0 320 235" fill="none" xmlns="http://www.w3.org/2000/svg">
<g filter="url(#filter0_d_181_42)">
<rect x="75" y="40" width="226" height="143" rx="17" stroke="url(#paint0_linear_181_42)" stroke-width="2" shape-rendering="crispEdges"/>
<path d="M78 57C78 49.268 84.268 43 92 43H288C295.732 43 302 49.268 302 57V166C302 173.732 295.732 180 288 180H92C84.268 180 78 173.732 78 166V57Z" stroke="url(#paint1_linear_181_42)" stroke-width="4"/>
<mask id="mask0_181_42" style="mask-type:alpha" maskUnits="userSpaceOnUse" x="76" y="41" width="228" height="141">
<path d="M76 57C76 48.1634 83.1634 41 92 41H288C296.837 41 304 48.1634 304 57V166C304 174.837 296.837 182 288 182H92C83.1634 182 76 174.837 76 166V57Z" fill="#D9D9D9"/>
</mask>
<g mask="url(#mask0_181_42)">
<g filter="url(#filter1_f_181_42)">
<path d="M76 57C76 48.1634 83.1634 41 92 41H189.698V182H92C83.1634 182 76 174.837 76 166V57Z" fill="#298DFF" fill-opacity="0.5"/>
<path d="M304.604 57C304.604 48.1634 297.441 41 288.604 41H170.097V182H288.604C297.441 182 304.604 174.837 304.604 166V57Z" fill="#4F28E9" fill-opacity="0.5"/>
</g>
</g>
<path opacity="0.8" d="M116.555 143.652C116.027 144.18 115.391 144.444 114.647 144.444C113.903 144.444 113.267 144.18 112.739 143.652C112.211 143.124 111.947 142.488 111.947 141.744C111.947 141 112.211 140.364 112.739 139.836C113.267 139.308 113.903 139.044 114.647 139.044C115.415 139.044 116.051 139.308 116.555 139.836C117.083 140.34 117.347 140.976 117.347 141.744C117.347 142.488 117.083 143.124 116.555 143.652ZM112.451 163.02V149.556C112.067 149.508 111.659 149.484 111.227 149.484C110.819 149.484 110.411 149.496 110.003 149.52C110.051 148.824 110.135 148.272 110.255 147.864C112.343 147.168 114.563 146.724 116.915 146.532V162.444C116.915 167.028 114.491 170.172 109.643 171.876L108.707 170.508C110.075 169.62 111.035 168.636 111.587 167.556C112.163 166.476 112.451 164.964 112.451 163.02ZM133.04 155.64C133.04 150.816 131.732 148.404 129.116 148.404C126.692 148.404 125.48 150.432 125.48 154.488C125.48 154.68 125.48 154.872 125.48 155.064C125.672 159.432 127.004 161.616 129.476 161.616C131.852 161.616 133.04 159.624 133.04 155.64ZM129.296 146.352C131.84 146.352 133.892 147.108 135.452 148.62C137.012 150.132 137.792 152.268 137.792 155.028C137.792 157.788 137 159.936 135.416 161.472C133.832 162.984 131.768 163.74 129.224 163.74C126.68 163.74 124.628 162.984 123.068 161.472C121.532 159.96 120.764 157.824 120.764 155.064C120.764 152.304 121.556 150.168 123.14 148.656C124.724 147.12 126.776 146.352 129.296 146.352ZM146.438 143.652C145.91 144.18 145.274 144.444 144.53 144.444C143.786 144.444 143.15 144.18 142.622 143.652C142.094 143.124 141.83 142.488 141.83 141.744C141.83 141 142.094 140.364 142.622 139.836C143.15 139.308 143.786 139.044 144.53 139.044C145.298 139.044 145.934 139.308 146.438 139.836C146.966 140.34 147.23 140.976 147.23 141.744C147.23 142.488 146.966 143.124 146.438 143.652ZM148.958 161.652C148.958 161.748 148.958 161.916 148.958 162.156C148.958 162.396 148.922 162.78 148.85 163.308H139.886C139.862 163.14 139.85 162.912 139.85 162.624C139.85 162.312 139.91 161.988 140.03 161.652C140.822 161.532 141.398 161.34 141.758 161.076C142.142 160.788 142.334 160.32 142.334 159.672V149.556C141.95 149.508 141.542 149.484 141.11 149.484C140.702 149.484 140.294 149.496 139.886 149.52C139.934 148.824 140.018 148.272 140.138 147.864C142.226 147.168 144.446 146.724 146.798 146.532V161.184C147.398 161.448 148.118 161.604 148.958 161.652ZM169.061 151.932V161.184C170.093 161.472 170.909 161.628 171.509 161.652C171.533 161.772 171.545 161.976 171.545 162.264C171.545 162.528 171.485 162.876 171.365 163.308H162.509C162.485 163.14 162.473 162.912 162.473 162.624C162.473 162.312 162.533 161.988 162.653 161.652C163.373 161.532 163.877 161.34 164.165 161.076C164.453 160.812 164.597 160.344 164.597 159.672V152.436C164.597 151.404 164.357 150.636 163.877 150.132C163.421 149.604 162.785 149.34 161.969 149.34C160.313 149.34 159.053 150.456 158.189 152.688V161.184C158.789 161.448 159.509 161.604 160.349 161.652C160.349 161.748 160.349 161.916 160.349 162.156C160.349 162.396 160.313 162.78 160.241 163.308H151.277C151.253 163.14 151.241 162.912 151.241 162.624C151.241 162.312 151.301 161.988 151.421 161.652C152.213 161.532 152.789 161.34 153.149 161.076C153.533 160.788 153.725 160.32 153.725 159.672V149.556C153.341 149.508 152.933 149.484 152.501 149.484C152.093 149.484 151.685 149.496 151.277 149.52C151.325 148.8 151.409 148.272 151.529 147.936C153.521 147.216 155.597 146.748 157.757 146.532C157.949 147.516 158.081 148.632 158.153 149.88C159.353 147.528 161.225 146.352 163.769 146.352C165.329 146.352 166.601 146.844 167.585 147.828C168.569 148.788 169.061 150.156 169.061 151.932ZM188.912 161.076C189.656 161.412 190.556 161.58 191.612 161.58C192.668 161.58 193.604 161.016 194.42 159.888C195.26 158.76 195.68 157.104 195.68 154.92C195.68 152.712 195.332 151.164 194.636 150.276C193.964 149.364 193.196 148.908 192.332 148.908C191.492 148.908 190.76 149.22 190.136 149.844C189.536 150.468 189.128 151.32 188.912 152.4V161.076ZM184.448 168.06V149.556C184.064 149.508 183.656 149.484 183.224 149.484C182.792 149.484 182.384 149.496 182 149.52C182.048 148.896 182.144 148.368 182.288 147.936C184.256 147.216 186.284 146.748 188.372 146.532C188.588 147.516 188.732 148.464 188.804 149.376C189.764 147.36 191.264 146.352 193.304 146.352C195.344 146.352 197.048 147.108 198.416 148.62C199.784 150.108 200.468 152.196 200.468 154.884C200.468 157.548 199.532 159.696 197.66 161.328C195.812 162.936 193.604 163.74 191.036 163.74C190.292 163.74 189.584 163.632 188.912 163.416V169.248C189.92 169.728 191.012 169.992 192.188 170.04C192.212 170.208 192.224 170.436 192.224 170.724C192.224 171.012 192.176 171.348 192.08 171.732H181.964C181.964 171.588 181.964 171.36 181.964 171.048C181.964 170.736 182.024 170.4 182.144 170.04C182.936 169.92 183.512 169.716 183.872 169.428C184.256 169.164 184.448 168.708 184.448 168.06ZM207.501 158.808C207.501 159.456 207.681 159.972 208.041 160.356C208.425 160.74 209.001 160.932 209.769 160.932C210.561 160.932 211.269 160.584 211.893 159.888V155.208L210.309 155.64C208.437 156.168 207.501 157.224 207.501 158.808ZM215.601 163.776C214.785 163.776 214.041 163.608 213.369 163.272C212.721 162.912 212.277 162.408 212.037 161.76C210.885 163.104 209.505 163.776 207.897 163.776C206.313 163.776 205.065 163.344 204.153 162.48C203.241 161.616 202.785 160.512 202.785 159.168C202.785 157.824 203.217 156.756 204.081 155.964C204.945 155.172 206.253 154.596 208.005 154.236L211.893 153.444V152.148C211.893 151.236 211.665 150.576 211.209 150.168C210.777 149.736 209.973 149.52 208.797 149.52C207.645 149.52 206.313 149.784 204.801 150.312L203.901 148.98C205.917 147.228 208.245 146.352 210.885 146.352C212.685 146.352 214.041 146.844 214.953 147.828C215.865 148.812 216.321 150.204 216.321 152.004V159.168C216.321 160.392 216.705 161.004 217.473 161.004C217.593 161.004 218.037 160.932 218.805 160.788L219.165 161.724C218.061 163.092 216.873 163.776 215.601 163.776ZM222.807 159.636V149.556C222.423 149.508 222.015 149.484 221.583 149.484C221.175 149.484 220.767 149.496 220.359 149.52C220.407 148.8 220.491 148.272 220.611 147.936C222.603 147.216 224.679 146.748 226.839 146.532C227.079 148.02 227.223 149.664 227.271 151.464C227.871 149.952 228.723 148.728 229.827 147.792C230.955 146.832 232.203 146.352 233.571 146.352C233.691 146.784 233.751 147.336 233.751 148.008C233.751 148.656 233.631 149.496 233.391 150.528C229.743 150.528 227.703 151.92 227.271 154.704V160.968C228.279 161.352 229.395 161.58 230.619 161.652C230.619 161.772 230.619 161.976 230.619 162.264C230.619 162.528 230.571 162.876 230.475 163.308H220.359C220.335 163.14 220.323 162.912 220.323 162.624C220.323 162.312 220.383 161.988 220.503 161.652C221.295 161.532 221.871 161.34 222.231 161.076C222.615 160.788 222.807 160.308 222.807 159.636ZM241.188 163.74C239.82 163.74 238.716 163.332 237.876 162.516C237.036 161.676 236.616 160.44 236.616 158.808V149.196C235.944 149.1 235.176 149.052 234.312 149.052C234.312 148.548 234.336 148.08 234.384 147.648C234.984 147.408 235.716 147.18 236.58 146.964L240.144 141.744L241.044 141.996V146.928C242.724 146.88 244.248 146.772 245.616 146.604C245.616 147.516 245.508 148.332 245.292 149.052H241.044L241.08 158.592C241.08 160.008 241.632 160.716 242.736 160.716C243.648 160.716 244.572 160.356 245.508 159.636L246.264 160.608C244.8 162.696 243.108 163.74 241.188 163.74ZM251.089 171.732H250.405C250.093 170.796 249.937 169.98 249.937 169.284C249.937 168.588 249.961 168.048 250.009 167.664H251.017C252.097 167.664 252.925 167.472 253.501 167.088C254.077 166.704 254.617 165.972 255.121 164.892L255.265 164.604L249.433 150.528C249.169 149.856 248.869 149.376 248.533 149.088C248.197 148.8 247.645 148.584 246.877 148.44C246.781 148.008 246.733 147.672 246.733 147.432C246.733 147.168 246.745 146.964 246.769 146.82H255.733C255.829 147.108 255.877 147.648 255.877 148.44C254.845 148.488 254.113 148.584 253.681 148.728L257.317 160.32C257.509 159.552 257.725 158.856 257.965 158.232L260.953 150.744C261.121 150.312 261.205 149.964 261.205 149.7C261.205 149.436 261.157 149.232 261.061 149.088C260.821 148.776 260.245 148.56 259.333 148.44C259.237 148.008 259.189 147.672 259.189 147.432C259.189 147.168 259.201 146.964 259.225 146.82H266.245C266.269 147.348 266.161 147.888 265.921 148.44C265.345 148.536 264.817 148.656 264.337 148.8L256.273 166.836C255.553 168.444 254.785 169.656 253.969 170.472C253.153 171.312 252.193 171.732 251.089 171.732Z" fill="black"/>
<path d="M211.833 83.3333V92.5M211.833 92.5V101.667M211.833 92.5H221M211.833 92.5H202.667M196.556 77.2222C196.556 80.4638 195.268 83.5725 192.976 85.8646C190.684 88.1568 187.575 89.4444 184.333 89.4444C181.092 89.4444 177.983 88.1568 175.691 85.8646C173.399 83.5725 172.111 80.4638 172.111 77.2222C172.111 73.9807 173.399 70.8719 175.691 68.5798C177.983 66.2877 181.092 65 184.333 65C187.575 65 190.684 66.2877 192.976 68.5798C195.268 70.8719 196.556 73.9807 196.556 77.2222ZM166 116.944C166 112.082 167.932 107.419 171.37 103.981C174.808 100.543 179.471 98.6111 184.333 98.6111C189.196 98.6111 193.859 100.543 197.297 103.981C200.735 107.419 202.667 112.082 202.667 116.944V120H166V116.944Z" stroke="black" stroke-width="4" stroke-linecap="round" stroke-linejoin="round"/>
</g>
<defs>
<filter id="filter0_d_181_42" x="0" y="0" width="320" height="235" filterUnits="userSpaceOnUse" color-interpolation-filters="sRGB">
<feFlood flood-opacity="0" result="BackgroundImageFix"/>
<feColorMatrix in="SourceAlpha" type="matrix" values="0 0 0 0 0 0 0 0 0 0 0 0 0 0 0 0 0 0 127 0" result="hardAlpha"/>
<feOffset dx="-29" dy="6"/>
<feGaussianBlur stdDeviation="22.5"/>
<feComposite in2="hardAlpha" operator="out"/>
<feColorMatrix type="matrix" values="0 0 0 0 1 0 0 0 0 0.976471 0 0 0 0 0.976471 0 0 0 0.25 0"/>
<feBlend mode="normal" in2="BackgroundImageFix" result="effect1_dropShadow_181_42"/>
<feBlend mode="normal" in="SourceGraphic" in2="effect1_dropShadow_181_42" result="shape"/>
</filter>
<filter id="filter1_f_181_42" x="-24" y="-59" width="428.604" height="341" filterUnits="userSpaceOnUse" color-interpolation-filters="sRGB">
<feFlood flood-opacity="0" result="BackgroundImageFix"/>
<feBlend mode="normal" in="SourceGraphic" in2="BackgroundImageFix" result="shape"/>
<feGaussianBlur stdDeviation="50" result="effect1_foregroundBlur_181_42"/>
</filter>
<linearGradient id="paint0_linear_181_42" x1="85.5" y1="42" x2="227" y2="213.5" gradientUnits="userSpaceOnUse">
<stop stop-color="#7AE0FF"/>
<stop offset="1" stop-color="#999797" stop-opacity="0"/>
</linearGradient>
<linearGradient id="paint1_linear_181_42" x1="301.135" y1="42.7384" x2="60.3274" y2="133.054" gradientUnits="userSpaceOnUse">
<stop stop-color="#5757EC"/>
<stop offset="1" stop-color="#FFFCFC" stop-opacity="0.5"/>
</linearGradient>
</defs>
</svg>
