<svg width="320" height="235" viewBox="0 0 320 235" fill="none" xmlns="http://www.w3.org/2000/svg">
<g filter="url(#filter0_d_181_53)">
<rect x="75" y="40" width="226" height="143" rx="17" stroke="url(#paint0_linear_181_53)" stroke-width="2" shape-rendering="crispEdges"/>
<path d="M78 57C78 49.268 84.268 43 92 43H288C295.732 43 302 49.268 302 57V166C302 173.732 295.732 180 288 180H92C84.268 180 78 173.732 78 166V57Z" stroke="url(#paint1_linear_181_53)" stroke-width="4"/>
<mask id="mask0_181_53" style="mask-type:alpha" maskUnits="userSpaceOnUse" x="76" y="41" width="228" height="141">
<path d="M76 57C76 48.1634 83.1634 41 92 41H288C296.837 41 304 48.1634 304 57V166C304 174.837 296.837 182 288 182H92C83.1634 182 76 174.837 76 166V57Z" fill="#D9D9D9"/>
</mask>
<g mask="url(#mask0_181_53)">
<g filter="url(#filter1_f_181_53)">
<path d="M76 57C76 48.1634 83.1634 41 92 41H189.698V182H92C83.1634 182 76 174.837 76 166V57Z" fill="#298DFF" fill-opacity="0.5"/>
<path d="M304.604 57C304.604 48.1634 297.441 41 288.604 41H170.097V182H288.604C297.441 182 304.604 174.837 304.604 166V57Z" fill="#4F28E9" fill-opacity="0.5"/>
</g>
</g>
<path opacity="0.8" d="M101.047 163.776C99.0066 163.776 97.2066 163.044 95.6466 161.58C94.1106 160.092 93.3426 158.016 93.3426 155.352C93.3426 152.664 94.2066 150.492 95.9346 148.836C97.6626 147.18 99.7986 146.352 102.343 146.352C103.999 146.352 105.595 146.736 107.131 147.504C107.107 148.944 106.939 150.516 106.627 152.22C106.363 152.22 105.991 152.172 105.511 152.076C105.439 150.996 105.091 150.144 104.467 149.52C103.867 148.896 103.111 148.584 102.199 148.584C100.951 148.584 99.9426 149.112 99.1746 150.168C98.4306 151.224 98.0586 152.808 98.0586 154.92C98.0586 157.008 98.4426 158.556 99.2106 159.564C100.003 160.548 101.071 161.04 102.415 161.04C103.783 161.04 105.343 160.632 107.095 159.816L107.779 160.824C105.811 162.792 103.567 163.776 101.047 163.776ZM111.854 159.636V149.556C111.47 149.508 111.062 149.484 110.63 149.484C110.222 149.484 109.814 149.496 109.406 149.52C109.454 148.8 109.538 148.272 109.658 147.936C111.65 147.216 113.726 146.748 115.886 146.532C116.126 148.02 116.27 149.664 116.318 151.464C116.918 149.952 117.77 148.728 118.874 147.792C120.002 146.832 121.25 146.352 122.618 146.352C122.738 146.784 122.798 147.336 122.798 148.008C122.798 148.656 122.678 149.496 122.438 150.528C118.79 150.528 116.75 151.92 116.318 154.704V160.968C117.326 161.352 118.442 161.58 119.666 161.652C119.666 161.772 119.666 161.976 119.666 162.264C119.666 162.528 119.618 162.876 119.522 163.308H109.406C109.382 163.14 109.37 162.912 109.37 162.624C109.37 162.312 109.43 161.988 109.55 161.652C110.342 161.532 110.918 161.34 111.278 161.076C111.662 160.788 111.854 160.308 111.854 159.636ZM132.034 148.548C131.242 148.548 130.51 148.896 129.838 149.592C129.19 150.288 128.758 151.38 128.542 152.868L131.89 152.616L134.446 152.544C134.374 149.88 133.57 148.548 132.034 148.548ZM128.398 154.488V154.848C128.398 158.928 129.946 160.968 133.042 160.968C134.674 160.968 136.39 160.536 138.19 159.672L138.802 160.716C136.834 162.756 134.482 163.776 131.746 163.776C130.498 163.776 129.274 163.5 128.074 162.948C126.898 162.372 125.866 161.424 124.978 160.104C124.114 158.784 123.682 157.224 123.682 155.424C123.682 152.64 124.546 150.432 126.274 148.8C128.026 147.168 130.078 146.352 132.43 146.352C134.254 146.352 135.79 146.916 137.038 148.044C138.31 149.172 138.946 150.936 138.946 153.336C138.802 153.768 138.61 154.152 138.37 154.488H128.398ZM146.048 158.808C146.048 159.456 146.228 159.972 146.588 160.356C146.972 160.74 147.548 160.932 148.316 160.932C149.108 160.932 149.816 160.584 150.44 159.888V155.208L148.856 155.64C146.984 156.168 146.048 157.224 146.048 158.808ZM154.148 163.776C153.332 163.776 152.588 163.608 151.916 163.272C151.268 162.912 150.824 162.408 150.584 161.76C149.432 163.104 148.052 163.776 146.444 163.776C144.86 163.776 143.612 163.344 142.7 162.48C141.788 161.616 141.332 160.512 141.332 159.168C141.332 157.824 141.764 156.756 142.628 155.964C143.492 155.172 144.8 154.596 146.552 154.236L150.44 153.444V152.148C150.44 151.236 150.212 150.576 149.756 150.168C149.324 149.736 148.52 149.52 147.344 149.52C146.192 149.52 144.86 149.784 143.348 150.312L142.448 148.98C144.464 147.228 146.792 146.352 149.432 146.352C151.232 146.352 152.588 146.844 153.5 147.828C154.412 148.812 154.868 150.204 154.868 152.004V159.168C154.868 160.392 155.252 161.004 156.02 161.004C156.14 161.004 156.584 160.932 157.352 160.788L157.712 161.724C156.608 163.092 155.42 163.776 154.148 163.776ZM165.602 163.74C164.234 163.74 163.13 163.332 162.29 162.516C161.45 161.676 161.03 160.44 161.03 158.808V149.196C160.358 149.1 159.59 149.052 158.726 149.052C158.726 148.548 158.75 148.08 158.798 147.648C159.398 147.408 160.13 147.18 160.994 146.964L164.558 141.744L165.458 141.996V146.928C167.138 146.88 168.662 146.772 170.03 146.604C170.03 147.516 169.922 148.332 169.706 149.052H165.458L165.494 158.592C165.494 160.008 166.046 160.716 167.15 160.716C168.062 160.716 168.986 160.356 169.922 159.636L170.678 160.608C169.214 162.696 167.522 163.74 165.602 163.74ZM180.831 148.548C180.039 148.548 179.307 148.896 178.635 149.592C177.987 150.288 177.555 151.38 177.339 152.868L180.687 152.616L183.243 152.544C183.171 149.88 182.367 148.548 180.831 148.548ZM177.195 154.488V154.848C177.195 158.928 178.743 160.968 181.839 160.968C183.471 160.968 185.187 160.536 186.987 159.672L187.599 160.716C185.631 162.756 183.279 163.776 180.543 163.776C179.295 163.776 178.071 163.5 176.871 162.948C175.695 162.372 174.663 161.424 173.775 160.104C172.911 158.784 172.479 157.224 172.479 155.424C172.479 152.64 173.343 150.432 175.071 148.8C176.823 147.168 178.875 146.352 181.227 146.352C183.051 146.352 184.587 146.916 185.835 148.044C187.107 149.172 187.743 150.936 187.743 153.336C187.599 153.768 187.407 154.152 187.167 154.488H177.195ZM205.717 161.076C206.461 161.412 207.361 161.58 208.417 161.58C209.473 161.58 210.409 161.016 211.225 159.888C212.065 158.76 212.485 157.104 212.485 154.92C212.485 152.712 212.137 151.164 211.441 150.276C210.769 149.364 210.001 148.908 209.137 148.908C208.297 148.908 207.565 149.22 206.941 149.844C206.341 150.468 205.933 151.32 205.717 152.4V161.076ZM201.253 168.06V149.556C200.869 149.508 200.461 149.484 200.029 149.484C199.597 149.484 199.189 149.496 198.805 149.52C198.853 148.896 198.949 148.368 199.093 147.936C201.061 147.216 203.089 146.748 205.177 146.532C205.393 147.516 205.537 148.464 205.609 149.376C206.569 147.36 208.069 146.352 210.109 146.352C212.149 146.352 213.853 147.108 215.221 148.62C216.589 150.108 217.273 152.196 217.273 154.884C217.273 157.548 216.337 159.696 214.465 161.328C212.617 162.936 210.409 163.74 207.841 163.74C207.097 163.74 206.389 163.632 205.717 163.416V169.248C206.725 169.728 207.817 169.992 208.993 170.04C209.017 170.208 209.029 170.436 209.029 170.724C209.029 171.012 208.981 171.348 208.885 171.732H198.769C198.769 171.588 198.769 171.36 198.769 171.048C198.769 170.736 198.829 170.4 198.949 170.04C199.741 169.92 200.317 169.716 200.677 169.428C201.061 169.164 201.253 168.708 201.253 168.06ZM224.306 158.808C224.306 159.456 224.486 159.972 224.846 160.356C225.23 160.74 225.806 160.932 226.574 160.932C227.366 160.932 228.074 160.584 228.698 159.888V155.208L227.114 155.64C225.242 156.168 224.306 157.224 224.306 158.808ZM232.406 163.776C231.59 163.776 230.846 163.608 230.174 163.272C229.526 162.912 229.082 162.408 228.842 161.76C227.69 163.104 226.31 163.776 224.702 163.776C223.118 163.776 221.87 163.344 220.958 162.48C220.046 161.616 219.59 160.512 219.59 159.168C219.59 157.824 220.022 156.756 220.886 155.964C221.75 155.172 223.058 154.596 224.81 154.236L228.698 153.444V152.148C228.698 151.236 228.47 150.576 228.014 150.168C227.582 149.736 226.778 149.52 225.602 149.52C224.45 149.52 223.118 149.784 221.606 150.312L220.706 148.98C222.722 147.228 225.049 146.352 227.689 146.352C229.49 146.352 230.846 146.844 231.758 147.828C232.67 148.812 233.126 150.204 233.126 152.004V159.168C233.126 160.392 233.51 161.004 234.278 161.004C234.398 161.004 234.842 160.932 235.61 160.788L235.97 161.724C234.866 163.092 233.678 163.776 232.406 163.776ZM239.611 159.636V149.556C239.227 149.508 238.819 149.484 238.387 149.484C237.979 149.484 237.571 149.496 237.163 149.52C237.211 148.8 237.295 148.272 237.415 147.936C239.407 147.216 241.483 146.748 243.643 146.532C243.883 148.02 244.027 149.664 244.075 151.464C244.675 149.952 245.527 148.728 246.631 147.792C247.759 146.832 249.007 146.352 250.375 146.352C250.495 146.784 250.555 147.336 250.555 148.008C250.555 148.656 250.435 149.496 250.195 150.528C246.547 150.528 244.507 151.92 244.075 154.704V160.968C245.083 161.352 246.199 161.58 247.423 161.652C247.423 161.772 247.423 161.976 247.423 162.264C247.423 162.528 247.375 162.876 247.279 163.308H237.163C237.139 163.14 237.127 162.912 237.127 162.624C237.127 162.312 237.187 161.988 237.307 161.652C238.099 161.532 238.675 161.34 239.035 161.076C239.419 160.788 239.611 160.308 239.611 159.636ZM257.992 163.74C256.624 163.74 255.52 163.332 254.68 162.516C253.84 161.676 253.42 160.44 253.42 158.808V149.196C252.748 149.1 251.98 149.052 251.116 149.052C251.116 148.548 251.14 148.08 251.188 147.648C251.788 147.408 252.52 147.18 253.384 146.964L256.948 141.744L257.848 141.996V146.928C259.528 146.88 261.052 146.772 262.42 146.604C262.42 147.516 262.312 148.332 262.096 149.052H257.848L257.884 158.592C257.884 160.008 258.436 160.716 259.54 160.716C260.452 160.716 261.376 160.356 262.312 159.636L263.068 160.608C261.604 162.696 259.912 163.74 257.992 163.74ZM267.894 171.732H267.21C266.898 170.796 266.742 169.98 266.742 169.284C266.742 168.588 266.766 168.048 266.814 167.664H267.822C268.902 167.664 269.73 167.472 270.306 167.088C270.882 166.704 271.422 165.972 271.926 164.892L272.07 164.604L266.238 150.528C265.974 149.856 265.674 149.376 265.338 149.088C265.002 148.8 264.45 148.584 263.682 148.44C263.586 148.008 263.538 147.672 263.538 147.432C263.538 147.168 263.55 146.964 263.574 146.82H272.538C272.634 147.108 272.682 147.648 272.682 148.44C271.65 148.488 270.918 148.584 270.486 148.728L274.122 160.32C274.314 159.552 274.53 158.856 274.77 158.232L277.758 150.744C277.926 150.312 278.01 149.964 278.01 149.7C278.01 149.436 277.962 149.232 277.866 149.088C277.626 148.776 277.05 148.56 276.138 148.44C276.042 148.008 275.994 147.672 275.994 147.432C275.994 147.168 276.006 146.964 276.03 146.82H283.05C283.074 147.348 282.966 147.888 282.726 148.44C282.15 148.536 281.622 148.656 281.142 148.8L273.078 166.836C272.358 168.444 271.59 169.656 270.774 170.472C269.958 171.312 268.998 171.732 267.894 171.732Z" fill="black"/>
<path d="M187.5 69.2877C189.202 67.3582 191.451 65.9928 193.948 65.373C196.445 64.7532 199.072 64.9086 201.478 65.8183C203.885 66.728 205.957 68.349 207.42 70.4655C208.883 72.5821 209.666 75.0939 209.666 77.6667C209.666 80.2395 208.883 82.7512 207.42 84.8678C205.957 86.9844 203.885 88.6054 201.478 89.5151C199.072 90.4248 196.445 90.5801 193.948 89.9603C191.451 89.3406 189.202 87.9751 187.5 86.0457M197 122H159V118.833C159 113.794 161.002 108.961 164.565 105.398C168.128 101.835 172.961 99.8333 178 99.8333C183.039 99.8333 187.872 101.835 191.435 105.398C194.998 108.961 197 113.794 197 118.833V122ZM197 122H216V118.833C216 115.498 215.123 112.221 213.455 109.332C211.788 106.444 209.39 104.045 206.501 102.377C203.613 100.709 200.336 99.8308 197.001 99.8307C193.665 99.8305 190.389 100.708 187.5 102.376M190.667 77.6667C190.667 81.0261 189.332 84.2479 186.957 86.6234C184.581 88.9988 181.359 90.3333 178 90.3333C174.641 90.3333 171.419 88.9988 169.043 86.6234C166.668 84.2479 165.333 81.0261 165.333 77.6667C165.333 74.3073 166.668 71.0854 169.043 68.71C171.419 66.3345 174.641 65 178 65C181.359 65 184.581 66.3345 186.957 68.71C189.332 71.0854 190.667 74.3073 190.667 77.6667Z" stroke="black" stroke-width="4" stroke-linecap="round" stroke-linejoin="round"/>
</g>
<defs>
<filter id="filter0_d_181_53" x="0" y="0" width="320" height="235" filterUnits="userSpaceOnUse" color-interpolation-filters="sRGB">
<feFlood flood-opacity="0" result="BackgroundImageFix"/>
<feColorMatrix in="SourceAlpha" type="matrix" values="0 0 0 0 0 0 0 0 0 0 0 0 0 0 0 0 0 0 127 0" result="hardAlpha"/>
<feOffset dx="-29" dy="6"/>
<feGaussianBlur stdDeviation="22.5"/>
<feComposite in2="hardAlpha" operator="out"/>
<feColorMatrix type="matrix" values="0 0 0 0 1 0 0 0 0 0.976471 0 0 0 0 0.976471 0 0 0 0.25 0"/>
<feBlend mode="normal" in2="BackgroundImageFix" result="effect1_dropShadow_181_53"/>
<feBlend mode="normal" in="SourceGraphic" in2="effect1_dropShadow_181_53" result="shape"/>
</filter>
<filter id="filter1_f_181_53" x="-24" y="-59" width="428.604" height="341" filterUnits="userSpaceOnUse" color-interpolation-filters="sRGB">
<feFlood flood-opacity="0" result="BackgroundImageFix"/>
<feBlend mode="normal" in="SourceGraphic" in2="BackgroundImageFix" result="shape"/>
<feGaussianBlur stdDeviation="50" result="effect1_foregroundBlur_181_53"/>
</filter>
<linearGradient id="paint0_linear_181_53" x1="85.5" y1="42" x2="227" y2="213.5" gradientUnits="userSpaceOnUse">
<stop stop-color="#7AE0FF"/>
<stop offset="1" stop-color="#999797" stop-opacity="0"/>
</linearGradient>
<linearGradient id="paint1_linear_181_53" x1="301.135" y1="42.7384" x2="60.3274" y2="133.054" gradientUnits="userSpaceOnUse">
<stop stop-color="#5757EC"/>
<stop offset="1" stop-color="#FFFCFC" stop-opacity="0.5"/>
</linearGradient>
</defs>
</svg>
