<svg width="322" height="235" viewBox="0 0 322 235" fill="none" xmlns="http://www.w3.org/2000/svg">
<g filter="url(#filter0_d_181_38)">
<rect x="75" y="40" width="230" height="143" rx="17" stroke="url(#paint0_linear_181_38)" stroke-width="2" shape-rendering="crispEdges"/>
<path d="M78 57C78 49.268 84.268 43 92 43H288C295.732 43 302 49.268 302 57V166C302 173.732 295.732 180 288 180H92C84.268 180 78 173.732 78 166V57Z" stroke="url(#paint1_linear_181_38)" stroke-width="4"/>
<mask id="mask0_181_38" style="mask-type:alpha" maskUnits="userSpaceOnUse" x="76" y="41" width="228" height="141">
<path d="M76 57C76 48.1634 83.1634 41 92 41H288C296.837 41 304 48.1634 304 57V166C304 174.837 296.837 182 288 182H92C83.1634 182 76 174.837 76 166V57Z" fill="#D9D9D9"/>
</mask>
<g mask="url(#mask0_181_38)">
<g filter="url(#filter1_f_181_38)">
<path d="M76 57C76 48.1634 83.1634 41 92 41H189.698V182H92C83.1634 182 76 174.837 76 166V57Z" fill="#298DFF" fill-opacity="0.5"/>
<path d="M304.604 57C304.604 48.1634 297.441 41 288.604 41H170.097V182H288.604C297.441 182 304.604 174.837 304.604 166V57Z" fill="#4F28E9" fill-opacity="0.5"/>
</g>
</g>
<path opacity="0.8" d="M99.342 171.732H98.658C98.346 170.796 98.19 169.98 98.19 169.284C98.19 168.588 98.214 168.048 98.262 167.664H99.27C100.35 167.664 101.178 167.472 101.754 167.088C102.33 166.704 102.87 165.972 103.374 164.892L103.518 164.604L97.686 150.528C97.422 149.856 97.122 149.376 96.786 149.088C96.45 148.8 95.898 148.584 95.13 148.44C95.034 148.008 94.986 147.672 94.986 147.432C94.986 147.168 94.998 146.964 95.022 146.82H103.986C104.082 147.108 104.13 147.648 104.13 148.44C103.098 148.488 102.366 148.584 101.934 148.728L105.57 160.32C105.762 159.552 105.978 158.856 106.218 158.232L109.206 150.744C109.374 150.312 109.458 149.964 109.458 149.7C109.458 149.436 109.41 149.232 109.314 149.088C109.074 148.776 108.498 148.56 107.586 148.44C107.49 148.008 107.442 147.672 107.442 147.432C107.442 147.168 107.454 146.964 107.478 146.82H114.498C114.522 147.348 114.414 147.888 114.174 148.44C113.598 148.536 113.07 148.656 112.59 148.8L104.526 166.836C103.806 168.444 103.038 169.656 102.222 170.472C101.406 171.312 100.446 171.732 99.342 171.732ZM127.614 155.64C127.614 150.816 126.306 148.404 123.69 148.404C121.266 148.404 120.054 150.432 120.054 154.488C120.054 154.68 120.054 154.872 120.054 155.064C120.246 159.432 121.578 161.616 124.05 161.616C126.426 161.616 127.614 159.624 127.614 155.64ZM123.87 146.352C126.414 146.352 128.466 147.108 130.026 148.62C131.586 150.132 132.366 152.268 132.366 155.028C132.366 157.788 131.574 159.936 129.99 161.472C128.406 162.984 126.342 163.74 123.798 163.74C121.254 163.74 119.202 162.984 117.642 161.472C116.106 159.96 115.338 157.824 115.338 155.064C115.338 152.304 116.13 150.168 117.714 148.656C119.298 147.12 121.35 146.352 123.87 146.352ZM151.343 150.06V160.464C152.111 160.584 152.831 160.644 153.503 160.644C153.575 160.932 153.611 161.208 153.611 161.472C153.611 161.736 153.599 161.964 153.575 162.156C151.775 162.972 149.711 163.416 147.383 163.488C147.167 162.384 147.023 161.28 146.951 160.176C145.655 162.552 143.783 163.74 141.335 163.74C139.775 163.74 138.503 163.248 137.519 162.264C136.535 161.256 136.043 159.864 136.043 158.088V149.412C135.683 149.388 135.311 149.376 134.927 149.376C134.567 149.376 134.243 149.376 133.955 149.376C134.003 148.656 134.087 148.128 134.207 147.792C136.319 147 138.407 146.544 140.471 146.424V157.584C140.471 158.592 140.711 159.372 141.191 159.924C141.695 160.452 142.343 160.716 143.135 160.716C144.743 160.716 146.003 159.564 146.915 157.26V150.96C146.915 149.52 146.411 148.584 145.403 148.152C145.499 147.696 145.619 147.36 145.763 147.144C147.083 146.64 148.499 146.388 150.011 146.388C150.491 146.388 150.983 146.412 151.487 146.46C151.391 147.324 151.343 148.524 151.343 150.06ZM158.388 159.636V149.556C158.004 149.508 157.596 149.484 157.164 149.484C156.756 149.484 156.348 149.496 155.94 149.52C155.988 148.8 156.072 148.272 156.192 147.936C158.184 147.216 160.26 146.748 162.42 146.532C162.66 148.02 162.804 149.664 162.852 151.464C163.452 149.952 164.304 148.728 165.408 147.792C166.536 146.832 167.784 146.352 169.152 146.352C169.272 146.784 169.332 147.336 169.332 148.008C169.332 148.656 169.212 149.496 168.972 150.528C165.324 150.528 163.284 151.92 162.852 154.704V160.968C163.86 161.352 164.976 161.58 166.2 161.652C166.2 161.772 166.2 161.976 166.2 162.264C166.2 162.528 166.152 162.876 166.056 163.308H155.94C155.916 163.14 155.904 162.912 155.904 162.624C155.904 162.312 155.964 161.988 156.084 161.652C156.876 161.532 157.452 161.34 157.812 161.076C158.196 160.788 158.388 160.308 158.388 159.636ZM185.84 161.076C186.584 161.412 187.484 161.58 188.54 161.58C189.596 161.58 190.532 161.016 191.348 159.888C192.188 158.76 192.608 157.104 192.608 154.92C192.608 152.712 192.26 151.164 191.564 150.276C190.892 149.364 190.124 148.908 189.26 148.908C188.42 148.908 187.688 149.22 187.064 149.844C186.464 150.468 186.056 151.32 185.84 152.4V161.076ZM181.376 168.06V149.556C180.992 149.508 180.584 149.484 180.152 149.484C179.72 149.484 179.312 149.496 178.928 149.52C178.976 148.896 179.072 148.368 179.216 147.936C181.184 147.216 183.212 146.748 185.3 146.532C185.516 147.516 185.66 148.464 185.732 149.376C186.692 147.36 188.192 146.352 190.232 146.352C192.272 146.352 193.976 147.108 195.344 148.62C196.712 150.108 197.396 152.196 197.396 154.884C197.396 157.548 196.46 159.696 194.588 161.328C192.74 162.936 190.532 163.74 187.964 163.74C187.22 163.74 186.512 163.632 185.84 163.416V169.248C186.848 169.728 187.94 169.992 189.116 170.04C189.14 170.208 189.152 170.436 189.152 170.724C189.152 171.012 189.104 171.348 189.008 171.732H178.892C178.892 171.588 178.892 171.36 178.892 171.048C178.892 170.736 178.952 170.4 179.072 170.04C179.864 169.92 180.44 169.716 180.8 169.428C181.184 169.164 181.376 168.708 181.376 168.06ZM201.981 159.636V149.556C201.597 149.508 201.189 149.484 200.757 149.484C200.349 149.484 199.941 149.496 199.533 149.52C199.581 148.8 199.665 148.272 199.785 147.936C201.777 147.216 203.853 146.748 206.013 146.532C206.253 148.02 206.397 149.664 206.445 151.464C207.045 149.952 207.897 148.728 209.001 147.792C210.129 146.832 211.377 146.352 212.745 146.352C212.865 146.784 212.925 147.336 212.925 148.008C212.925 148.656 212.805 149.496 212.565 150.528C208.917 150.528 206.877 151.92 206.445 154.704V160.968C207.453 161.352 208.569 161.58 209.793 161.652C209.793 161.772 209.793 161.976 209.793 162.264C209.793 162.528 209.745 162.876 209.649 163.308H199.533C199.509 163.14 199.497 162.912 199.497 162.624C199.497 162.312 199.557 161.988 199.677 161.652C200.469 161.532 201.045 161.34 201.405 161.076C201.789 160.788 201.981 160.308 201.981 159.636ZM226.086 155.64C226.086 150.816 224.778 148.404 222.162 148.404C219.738 148.404 218.526 150.432 218.526 154.488C218.526 154.68 218.526 154.872 218.526 155.064C218.718 159.432 220.05 161.616 222.522 161.616C224.898 161.616 226.086 159.624 226.086 155.64ZM222.342 146.352C224.886 146.352 226.938 147.108 228.498 148.62C230.058 150.132 230.838 152.268 230.838 155.028C230.838 157.788 230.046 159.936 228.462 161.472C226.878 162.984 224.814 163.74 222.27 163.74C219.726 163.74 217.674 162.984 216.114 161.472C214.578 159.96 213.81 157.824 213.81 155.064C213.81 152.304 214.602 150.168 216.186 148.656C217.77 147.12 219.822 146.352 222.342 146.352ZM253.416 161.652C253.416 161.748 253.416 161.916 253.416 162.156C253.416 162.396 253.38 162.78 253.308 163.308H244.344C244.32 163.14 244.308 162.912 244.308 162.624C244.308 162.312 244.368 161.988 244.488 161.652C245.28 161.532 245.856 161.34 246.216 161.076C246.6 160.788 246.792 160.32 246.792 159.672V149.052H239.772V161.076C240.396 161.412 241.2 161.604 242.184 161.652C242.184 161.748 242.184 161.916 242.184 162.156C242.184 162.396 242.148 162.78 242.076 163.308H232.86C232.86 163.14 232.86 162.912 232.86 162.624C232.86 162.312 232.908 161.988 233.004 161.652C233.796 161.532 234.372 161.34 234.732 161.076C235.116 160.788 235.308 160.308 235.308 159.636V149.196C234.852 149.1 234.144 149.052 233.184 149.052C233.16 148.884 233.148 148.68 233.148 148.44C233.148 148.176 233.184 147.912 233.256 147.648C234 147.312 234.684 147.084 235.308 146.964V144.912C235.308 142.536 236.004 140.736 237.396 139.512C238.788 138.264 240.624 137.64 242.904 137.64C245.208 137.64 247.224 138.108 248.952 139.044C250.704 139.98 251.58 141.036 251.58 142.212C251.58 142.86 251.34 143.4 250.86 143.832C250.38 144.24 249.828 144.444 249.204 144.444C248.58 144.444 248.052 144.276 247.62 143.94C247.188 143.604 246.816 143.208 246.504 142.752C246.192 142.272 245.868 141.792 245.532 141.312C244.692 140.208 243.648 139.656 242.4 139.656C240.648 139.68 239.772 140.784 239.772 142.968V146.928C244.932 146.856 248.76 146.724 251.256 146.532V161.22C251.832 161.46 252.552 161.604 253.416 161.652ZM264.82 161.652C264.82 161.748 264.82 161.916 264.82 162.156C264.82 162.396 264.784 162.78 264.712 163.308H255.748C255.724 163.14 255.712 162.912 255.712 162.624C255.712 162.312 255.772 161.988 255.892 161.652C256.684 161.532 257.26 161.34 257.62 161.076C258.004 160.788 258.196 160.32 258.196 159.672V140.448C257.98 140.424 257.668 140.412 257.26 140.412C256.852 140.412 256.348 140.424 255.748 140.448C255.796 139.704 255.88 139.164 256 138.828C258.04 138.084 260.26 137.628 262.66 137.46V161.184C263.26 161.448 263.98 161.604 264.82 161.652ZM275.635 148.548C274.843 148.548 274.111 148.896 273.439 149.592C272.791 150.288 272.359 151.38 272.143 152.868L275.491 152.616L278.047 152.544C277.975 149.88 277.171 148.548 275.635 148.548ZM271.999 154.488V154.848C271.999 158.928 273.547 160.968 276.643 160.968C278.275 160.968 279.991 160.536 281.791 159.672L282.403 160.716C280.435 162.756 278.083 163.776 275.347 163.776C274.099 163.776 272.875 163.5 271.675 162.948C270.499 162.372 269.467 161.424 268.579 160.104C267.715 158.784 267.283 157.224 267.283 155.424C267.283 152.64 268.147 150.432 269.875 148.8C271.627 147.168 273.679 146.352 276.031 146.352C277.855 146.352 279.391 146.916 280.639 148.044C281.911 149.172 282.547 150.936 282.547 153.336C282.403 153.768 282.211 154.152 281.971 154.488H271.999Z" fill="black"/>
<path d="M202.045 77.3333C202.045 80.6043 200.722 83.7414 198.368 86.0543C196.014 88.3673 192.821 89.6667 189.491 89.6667C186.162 89.6667 182.969 88.3673 180.615 86.0543C178.261 83.7414 176.938 80.6043 176.938 77.3333C176.938 74.0623 178.261 70.9253 180.615 68.6123C182.969 66.2994 186.162 65 189.491 65C192.821 65 196.014 66.2994 198.368 68.6123C200.722 70.9253 202.045 74.0623 202.045 77.3333ZM170.661 117.417C170.661 112.51 172.645 107.805 176.176 104.335C179.708 100.866 184.497 98.9167 189.491 98.9167C194.486 98.9167 199.275 100.866 202.807 104.335C206.338 107.805 208.322 112.51 208.322 117.417V120.5H170.661V117.417Z" stroke="black" stroke-width="4" stroke-linecap="round" stroke-linejoin="round"/>
</g>
<defs>
<filter id="filter0_d_181_38" x="0" y="0" width="322" height="235" filterUnits="userSpaceOnUse" color-interpolation-filters="sRGB">
<feFlood flood-opacity="0" result="BackgroundImageFix"/>
<feColorMatrix in="SourceAlpha" type="matrix" values="0 0 0 0 0 0 0 0 0 0 0 0 0 0 0 0 0 0 127 0" result="hardAlpha"/>
<feOffset dx="-29" dy="6"/>
<feGaussianBlur stdDeviation="22.5"/>
<feComposite in2="hardAlpha" operator="out"/>
<feColorMatrix type="matrix" values="0 0 0 0 1 0 0 0 0 0.976471 0 0 0 0 0.976471 0 0 0 0.25 0"/>
<feBlend mode="normal" in2="BackgroundImageFix" result="effect1_dropShadow_181_38"/>
<feBlend mode="normal" in="SourceGraphic" in2="effect1_dropShadow_181_38" result="shape"/>
</filter>
<filter id="filter1_f_181_38" x="-24" y="-59" width="428.604" height="341" filterUnits="userSpaceOnUse" color-interpolation-filters="sRGB">
<feFlood flood-opacity="0" result="BackgroundImageFix"/>
<feBlend mode="normal" in="SourceGraphic" in2="BackgroundImageFix" result="shape"/>
<feGaussianBlur stdDeviation="50" result="effect1_foregroundBlur_181_38"/>
</filter>
<linearGradient id="paint0_linear_181_38" x1="85.6696" y1="42" x2="226.673" y2="215.95" gradientUnits="userSpaceOnUse">
<stop stop-color="#7AE0FF"/>
<stop offset="1" stop-color="#999797" stop-opacity="0"/>
</linearGradient>
<linearGradient id="paint1_linear_181_38" x1="301.135" y1="42.7384" x2="60.3274" y2="133.054" gradientUnits="userSpaceOnUse">
<stop stop-color="#5757EC"/>
<stop offset="1" stop-color="#FFFCFC" stop-opacity="0.5"/>
</linearGradient>
</defs>
</svg>
