<svg width="322" height="235" viewBox="0 0 322 235" fill="none" xmlns="http://www.w3.org/2000/svg">
<g filter="url(#filter0_d_181_38)">
<rect x="75" y="40" width="230" height="143" rx="17" stroke="url(#paint0_linear_181_38)" stroke-width="2" shape-rendering="crispEdges"/>
<path d="M78 57C78 49.268 84.268 43 92 43H288C295.732 43 302 49.268 302 57V166C302 173.732 295.732 180 288 180H92C84.268 180 78 173.732 78 166V57Z" stroke="url(#paint1_linear_181_38)" stroke-width="4"/>
<mask id="mask0_181_38" style="mask-type:alpha" maskUnits="userSpaceOnUse" x="76" y="41" width="228" height="141">
<path d="M76 57C76 48.1634 83.1634 41 92 41H288C296.837 41 304 48.1634 304 57V166C304 174.837 296.837 182 288 182H92C83.1634 182 76 174.837 76 166V57Z" fill="#D9D9D9"/>
</mask>
<g mask="url(#mask0_181_38)">
<g filter="url(#filter1_f_181_38)">
<path d="M76 57C76 48.1634 83.1634 41 92 41H189.698V182H92C83.1634 182 76 174.837 76 166V57Z" fill="#298DFF" fill-opacity="0.5"/>
<path d="M304.604 57C304.604 48.1634 297.441 41 288.604 41H170.097V182H288.604C297.441 182 304.604 174.837 304.604 166V57Z" fill="#4F28E9" fill-opacity="0.5"/>
</g>
</g>
</g>
<defs>
<filter id="filter0_d_181_38" x="0" y="0" width="322" height="235" filterUnits="userSpaceOnUse" color-interpolation-filters="sRGB">
<feFlood flood-opacity="0" result="BackgroundImageFix"/>
<feColorMatrix in="SourceAlpha" type="matrix" values="0 0 0 0 0 0 0 0 0 0 0 0 0 0 0 0 0 0 127 0" result="hardAlpha"/>
<feOffset dx="-29" dy="6"/>
<feGaussianBlur stdDeviation="22.5"/>
<feComposite in2="hardAlpha" operator="out"/>
<feColorMatrix type="matrix" values="0 0 0 0 1 0 0 0 0 0.976471 0 0 0 0 0.976471 0 0 0 0.25 0"/>
<feBlend mode="normal" in2="BackgroundImageFix" result="effect1_dropShadow_181_38"/>
<feBlend mode="normal" in="SourceGraphic" in2="effect1_dropShadow_181_38" result="shape"/>
</filter>
<filter id="filter1_f_181_38" x="-24" y="-59" width="428.604" height="341" filterUnits="userSpaceOnUse" color-interpolation-filters="sRGB">
<feFlood flood-opacity="0" result="BackgroundImageFix"/>
<feBlend mode="normal" in="SourceGraphic" in2="BackgroundImageFix" result="shape"/>
<feGaussianBlur stdDeviation="50" result="effect1_foregroundBlur_181_38"/>
</filter>
<linearGradient id="paint0_linear_181_38" x1="85.6696" y1="42" x2="226.673" y2="215.95" gradientUnits="userSpaceOnUse">
<stop stop-color="#7AE0FF"/>
<stop offset="1" stop-color="#999797" stop-opacity="0"/>
</linearGradient>
<linearGradient id="paint1_linear_181_38" x1="301.135" y1="42.7384" x2="60.3274" y2="133.054" gradientUnits="userSpaceOnUse">
<stop stop-color="#5757EC"/>
<stop offset="1" stop-color="#FFFCFC" stop-opacity="0.5"/>
</linearGradient>
</defs>
</svg>
