<svg width="827" height="946" viewBox="0 0 827 946" fill="none" xmlns="http://www.w3.org/2000/svg">
<path d="M16 5H811C818.732 5 825 11.268 825 19V930C825 937.732 818.732 944 811 944H16C8.268 944 2 937.732 2 930V19C2 11.268 8.26801 5 16 5Z" stroke="url(#paint0_linear_1171_556)" stroke-width="4"/>
<mask id="mask0_1171_556" style="mask-type:alpha" maskUnits="userSpaceOnUse" x="0" y="0" width="827" height="946">
<path d="M0 16C0 7.16342 7.16344 0 16 0H810.793C819.63 0 826.793 7.16344 826.793 16V930C826.793 938.837 819.63 946 810.793 946H16C7.16346 946 0 938.837 0 930V16Z" fill="#D9D9D9"/>
</mask>
<g mask="url(#mask0_1171_556)">
<g filter="url(#filter0_f_1171_556)">
<path d="M0 16C0 7.16342 7.16344 0 16 0H412.303V946H16C7.16345 946 0 938.837 0 930V16Z" fill="#298DFF" fill-opacity="0.5"/>
<path d="M828.98 16C828.98 7.16342 821.817 0 812.98 0H341.216V946H812.98C821.817 946 828.98 938.837 828.98 930V16Z" fill="#4F28E9" fill-opacity="0.5"/>
</g>
</g>
<defs>
<filter id="filter0_f_1171_556" x="-100" y="-100" width="1028.98" height="1146" filterUnits="userSpaceOnUse" color-interpolation-filters="sRGB">
<feFlood flood-opacity="0" result="BackgroundImageFix"/>
<feBlend mode="normal" in="SourceGraphic" in2="BackgroundImageFix" result="shape"/>
<feGaussianBlur stdDeviation="50" result="effect1_foregroundBlur_1171_556"/>
</filter>
<linearGradient id="paint0_linear_1171_556" x1="816.608" y1="14.626" x2="-140.127" y2="209.236" gradientUnits="userSpaceOnUse">
<stop stop-color="#5757EC"/>
<stop offset="1" stop-color="#FFFCFC" stop-opacity="0.5"/>
</linearGradient>
</defs>
</svg>
