<svg width="61" height="61" viewBox="0 0 61 61" fill="none" xmlns="http://www.w3.org/2000/svg">
<path d="M30.5 6.28767C32.2019 4.35822 34.451 2.99278 36.948 2.37301C39.445 1.75325 42.0716 1.90856 44.4781 2.81827C46.8847 3.72799 48.9572 5.34897 50.4199 7.46554C51.8825 9.5821 52.666 12.0939 52.666 14.6667C52.666 17.2395 51.8825 19.7512 50.4199 21.8678C48.9572 23.9844 46.8847 25.6054 44.4781 26.5151C42.0716 27.4248 39.445 27.5801 36.948 26.9603C34.451 26.3406 32.2019 24.9751 30.5 23.0457M40 59H2V55.8333C2 50.7942 4.00178 45.9615 7.56497 42.3983C11.1282 38.8351 15.9609 36.8333 21 36.8333C26.0391 36.8333 30.8718 38.8351 34.435 42.3983C37.9982 45.9615 40 50.7942 40 55.8333V59ZM40 59H59V55.8333C59.0005 52.4979 58.1229 49.2211 56.4555 46.3324C54.7881 43.4437 52.3896 41.0448 49.5012 39.3768C46.6127 37.7089 43.3361 36.8308 40.0007 36.8307C36.6652 36.8305 33.3886 37.7085 30.5 39.3762M33.6667 14.6667C33.6667 18.0261 32.3321 21.2479 29.9567 23.6234C27.5812 25.9988 24.3594 27.3333 21 27.3333C17.6406 27.3333 14.4188 25.9988 12.0433 23.6234C9.66785 21.2479 8.33333 18.0261 8.33333 14.6667C8.33333 11.3073 9.66785 8.08544 12.0433 5.70998C14.4188 3.33452 17.6406 2 21 2C24.3594 2 27.5812 3.33452 29.9567 5.70998C32.3321 8.08544 33.6667 11.3073 33.6667 14.6667Z" stroke="black" stroke-width="4" stroke-linecap="round" stroke-linejoin="round"/>
</svg>
