<svg width="756" height="993" viewBox="0 0 756 993" fill="none" xmlns="http://www.w3.org/2000/svg">
<path d="M16 2H740C747.732 2 754 8.26801 754 16V977C754 984.732 747.732 991 740 991H16C8.268 991 2 984.732 2 977V16C2 8.26803 8.26802 2 16 2Z" stroke="url(#paint0_linear_1143_577)" stroke-width="4"/>
<mask id="mask0_1143_577" style="mask-type:alpha" maskUnits="userSpaceOnUse" x="0" y="0" width="756" height="993">
<path d="M0 16C0 7.16346 7.16344 0 16 0H740C748.837 0 756 7.16344 756 16V977C756 985.837 748.837 993 740 993H16C7.16343 993 0 985.837 0 977V16Z" fill="#D9D9D9"/>
</mask>
<g mask="url(#mask0_1143_577)">
<g filter="url(#filter0_f_1143_577)">
<path d="M0 16C0 7.16346 7.16344 0 16 0H377V993H16C7.16344 993 0 985.837 0 977V16Z" fill="#298DFF" fill-opacity="0.5"/>
<path d="M758 16C758 7.16346 750.837 0 742 0H312V993H742C750.837 993 758 985.837 758 977V16Z" fill="#4F28E9" fill-opacity="0.5"/>
</g>
</g>
<defs>
<filter id="filter0_f_1143_577" x="-100" y="-100" width="958" height="1193" filterUnits="userSpaceOnUse" color-interpolation-filters="sRGB">
<feFlood flood-opacity="0" result="BackgroundImageFix"/>
<feBlend mode="normal" in="SourceGraphic" in2="BackgroundImageFix" result="shape"/>
<feGaussianBlur stdDeviation="50" result="effect1_foregroundBlur_1143_577"/>
</filter>
<linearGradient id="paint0_linear_1143_577" x1="746.5" y1="12.2425" x2="-136.743" y2="168.209" gradientUnits="userSpaceOnUse">
<stop stop-color="#5757EC"/>
<stop offset="1" stop-color="#FFFCFC" stop-opacity="0.5"/>
</linearGradient>
</defs>
</svg>
