<svg width="756" height="365" viewBox="0 0 756 365" fill="none" xmlns="http://www.w3.org/2000/svg">
<mask id="mask0_461_546" style="mask-type:alpha" maskUnits="userSpaceOnUse" x="0" y="0" width="756" height="365">
<path d="M0 16C0 7.16345 7.16344 0 16 0H740C748.837 0 756 7.16344 756 16V349C756 357.837 748.837 365 740 365H16C7.16343 365 0 357.837 0 349V16Z" fill="#D9D9D9"/>
</mask>
<g mask="url(#mask0_461_546)">
<g filter="url(#filter0_f_461_546)">
<path d="M0 16C0 7.16345 7.16344 0 16 0H377V365H16C7.16344 365 0 357.837 0 349V16Z" fill="#298DFF" fill-opacity="0.5"/>
<path d="M758 16C758 7.16345 750.837 0 742 0H312V365H742C750.837 365 758 357.837 758 349V16Z" fill="#4F28E9" fill-opacity="0.5"/>
</g>
</g>
<defs>
<filter id="filter0_f_461_546" x="-100" y="-100" width="958" height="565" filterUnits="userSpaceOnUse" color-interpolation-filters="sRGB">
<feFlood flood-opacity="0" result="BackgroundImageFix"/>
<feBlend mode="normal" in="SourceGraphic" in2="BackgroundImageFix" result="shape"/>
<feGaussianBlur stdDeviation="50" result="effect1_foregroundBlur_461_546"/>
</filter>
</defs>
</svg>
