<svg width="59" height="59" viewBox="0 0 59 59" fill="none" xmlns="http://www.w3.org/2000/svg">
<path d="M47.8333 20.3333V29.5M47.8333 29.5V38.6667M47.8333 29.5H57M47.8333 29.5H38.6667M32.5556 14.2222C32.5556 17.4638 31.2679 20.5725 28.9758 22.8646C26.6836 25.1568 23.5749 26.4444 20.3333 26.4444C17.0918 26.4444 13.983 25.1568 11.6909 22.8646C9.39881 20.5725 8.11111 17.4638 8.11111 14.2222C8.11111 10.9807 9.39881 7.87192 11.6909 5.57981C13.983 3.28769 17.0918 2 20.3333 2C23.5749 2 26.6836 3.28769 28.9758 5.57981C31.2679 7.87192 32.5556 10.9807 32.5556 14.2222ZM2 53.9444C2 49.0821 3.93154 44.419 7.36971 40.9808C10.8079 37.5427 15.471 35.6111 20.3333 35.6111C25.1956 35.6111 29.8588 37.5427 33.297 40.9808C36.7351 44.419 38.6667 49.0821 38.6667 53.9444V57H2V53.9444Z" stroke="black" stroke-width="4" stroke-linecap="round" stroke-linejoin="round"/>
</svg>
