<svg width="756" height="365" viewBox="0 0 756 365" fill="none" xmlns="http://www.w3.org/2000/svg">
<path d="M2 16C2 8.26802 8.26801 2 16 2H740C747.732 2 754 8.26801 754 16V349C754 356.732 747.732 363 740 363H16C8.268 363 2 356.732 2 349V16Z" stroke="url(#paint0_linear_182_352)" stroke-width="4"/>
<mask id="mask0_182_352" style="mask-type:alpha" maskUnits="userSpaceOnUse" x="0" y="0" width="756" height="365">
<path d="M0 16C0 7.16345 7.16344 0 16 0H740C748.837 0 756 7.16344 756 16V349C756 357.837 748.837 365 740 365H16C7.16343 365 0 357.837 0 349V16Z" fill="#D9D9D9"/>
</mask>
<g mask="url(#mask0_182_352)">
<g filter="url(#filter0_f_182_352)">
<path d="M0 16C0 7.16345 7.16344 0 16 0H377V365H16C7.16344 365 0 357.837 0 349V16Z" fill="#298DFF" fill-opacity="0.5"/>
<path d="M758 16C758 7.16345 750.837 0 742 0H312V365H742C750.837 365 758 357.837 758 349V16Z" fill="#4F28E9" fill-opacity="0.5"/>
</g>
</g>
<path d="M2 16C2 8.26802 8.26801 2 16 2H740C747.732 2 754 8.26801 754 16V349C754 356.732 747.732 363 740 363H16C8.268 363 2 356.732 2 349V16Z" stroke="url(#paint1_linear_182_352)" stroke-width="4"/>
<defs>
<filter id="filter0_f_182_352" x="-100" y="-100" width="958" height="565" filterUnits="userSpaceOnUse" color-interpolation-filters="sRGB">
<feFlood flood-opacity="0" result="BackgroundImageFix"/>
<feBlend mode="normal" in="SourceGraphic" in2="BackgroundImageFix" result="shape"/>
<feGaussianBlur stdDeviation="50" result="effect1_foregroundBlur_182_352"/>
</filter>
<linearGradient id="paint0_linear_182_352" x1="746.5" y1="4.50001" x2="6.49997" y2="360" gradientUnits="userSpaceOnUse">
<stop stop-color="#5757EC"/>
<stop offset="1" stop-color="#FFFCFC" stop-opacity="0.5"/>
</linearGradient>
<linearGradient id="paint1_linear_182_352" x1="746.5" y1="4.50001" x2="6.49997" y2="360" gradientUnits="userSpaceOnUse">
<stop stop-color="#5757EC"/>
<stop offset="1" stop-color="#FFFCFC" stop-opacity="0.5"/>
</linearGradient>
</defs>
</svg>
