<svg width="756" height="927" viewBox="0 0 756 927" fill="none" xmlns="http://www.w3.org/2000/svg">
<path d="M2 16C2 8.268 8.26801 2 16 2H740C747.732 2 754 8.26801 754 16V911C754 918.732 747.732 925 740 925H16C8.268 925 2 918.732 2 911V16Z" stroke="url(#paint0_linear_330_1595)" stroke-width="4"/>
<mask id="mask0_330_1595" style="mask-type:alpha" maskUnits="userSpaceOnUse" x="0" y="0" width="756" height="927">
<path d="M0 16C0 7.16342 7.16344 0 16 0H740C748.837 0 756 7.16344 756 16V911C756 919.837 748.837 927 740 927H16C7.16343 927 0 919.837 0 911V16Z" fill="#D9D9D9"/>
</mask>
<g mask="url(#mask0_330_1595)">
<g filter="url(#filter0_f_330_1595)">
<path d="M0 16C0 7.16342 7.16344 0 16 0H377V927H16C7.16344 927 0 919.837 0 911V16Z" fill="#298DFF" fill-opacity="0.5"/>
<path d="M758 16C758 7.16342 750.837 0 742 0H312V927H742C750.837 927 758 919.837 758 911V16Z" fill="#4F28E9" fill-opacity="0.5"/>
</g>
</g>
<defs>
<filter id="filter0_f_330_1595" x="-100" y="-100" width="958" height="1127" filterUnits="userSpaceOnUse" color-interpolation-filters="sRGB">
<feFlood flood-opacity="0" result="BackgroundImageFix"/>
<feBlend mode="normal" in="SourceGraphic" in2="BackgroundImageFix" result="shape"/>
<feGaussianBlur stdDeviation="50" result="effect1_foregroundBlur_330_1595"/>
</filter>
<linearGradient id="paint0_linear_330_1595" x1="746.5" y1="11.4288" x2="-132.822" y2="177.758" gradientUnits="userSpaceOnUse">
<stop stop-color="#5757EC"/>
<stop offset="1" stop-color="#FFFCFC" stop-opacity="0.5"/>
</linearGradient>
</defs>
</svg>
