<svg width="1461" height="946" viewBox="0 0 1461 946" fill="none" xmlns="http://www.w3.org/2000/svg">
<path d="M16 5H1445C1452.73 5 1459 11.268 1459 19V930C1459 937.732 1452.73 944 1445 944H16C8.26801 944 2 937.732 2 930V19C2 11.268 8.26801 5 16 5Z" stroke="url(#paint0_linear_1171_556)" stroke-width="4"/>
<mask id="mask0_1171_556" style="mask-type:alpha" maskUnits="userSpaceOnUse" x="0" y="0" width="1461" height="946">
<path d="M0 16C0 7.16342 7.16344 0 16 0H1445C1453.84 0 1461 7.16344 1461 16V930C1461 938.837 1453.84 946 1445 946H16C7.16344 946 0 938.837 0 930V16Z" fill="#D9D9D9"/>
</mask>
<g mask="url(#mask0_1171_556)">
<g filter="url(#filter0_f_1171_556)">
<path d="M0 16C0 7.16342 7.16344 0 16 0H728.567V946H16C7.16341 946 0 938.837 0 930V16Z" fill="#298DFF" fill-opacity="0.5"/>
<path d="M1464.87 16C1464.87 7.16342 1457.7 0 1448.87 0H602.953V946H1448.87C1457.7 946 1464.87 938.837 1464.87 930V16Z" fill="#4F28E9" fill-opacity="0.5"/>
</g>
</g>
<defs>
<filter id="filter0_f_1171_556" x="-100" y="-100" width="1664.87" height="1146" filterUnits="userSpaceOnUse" color-interpolation-filters="sRGB">
<feFlood flood-opacity="0" result="BackgroundImageFix"/>
<feBlend mode="normal" in="SourceGraphic" in2="BackgroundImageFix" result="shape"/>
<feGaussianBlur stdDeviation="50" result="effect1_foregroundBlur_1171_556"/>
</filter>
<linearGradient id="paint0_linear_1171_556" x1="1442.64" y1="14.626" x2="-116.19" y2="574.792" gradientUnits="userSpaceOnUse">
<stop stop-color="#5757EC"/>
<stop offset="1" stop-color="#FFFCFC" stop-opacity="0.5"/>
</linearGradient>
</defs>
</svg>
