<svg width="224" height="141" viewBox="0 0 224 141" fill="none" xmlns="http://www.w3.org/2000/svg">
<path d="M2 16C2 8.26802 8.26801 2 16 2H208C215.732 2 222 8.26801 222 16V125C222 132.732 215.732 139 208 139H16C8.26802 139 2 132.732 2 125V16Z" stroke="url(#paint0_linear_634_1104)" stroke-width="4"/>
<mask id="mask0_634_1104" style="mask-type:alpha" maskUnits="userSpaceOnUse" x="0" y="0" width="224" height="141">
<path d="M0 16C0 7.16345 7.16344 0 16 0H208C216.837 0 224 7.16344 224 16V125C224 133.837 216.837 141 208 141H16C7.16345 141 0 133.837 0 125V16Z" fill="#D9D9D9"/>
</mask>
<g mask="url(#mask0_634_1104)">
<g filter="url(#filter0_f_634_1104)">
<path d="M0 16C0 7.16345 7.16344 0 16 0H111.704V141H16C7.16345 141 0 133.837 0 125V16Z" fill="#298DFF" fill-opacity="0.5"/>
<path d="M224.594 16C224.594 7.16345 217.43 0 208.594 0H92.4456V141H208.594C217.43 141 224.594 133.837 224.594 125V16Z" fill="#4F28E9" fill-opacity="0.5"/>
</g>
</g>
<path fill-rule="evenodd" clip-rule="evenodd" d="M101.375 24.125H98V43.0503C98.0003 44.1867 97.5836 45.2837 96.8289 46.1334C93.2373 50.1767 91.2524 55.3963 91.25 60.8045V83.9587C91.25 84.4649 91.6601 84.875 92.1663 84.875H107.209C107.715 84.875 108.125 84.4649 108.125 83.9587V60.8045C108.125 55.3961 106.14 50.1749 102.548 46.1334C101.792 45.284 101.375 44.187 101.375 43.0503V24.125ZM101.375 20.75C102.27 20.75 103.129 21.1056 103.761 21.7385C104.394 22.3714 104.75 23.2299 104.75 24.125V43.0503C104.75 43.3608 104.863 43.6578 105.071 43.8907C109.211 48.5522 111.498 54.5699 111.5 60.8045V83.9587C111.5 85.0968 111.048 86.1883 110.243 86.9931C109.438 87.7979 108.347 88.25 107.209 88.25H92.1663C91.6028 88.25 91.0447 88.139 90.5241 87.9233C90.0035 87.7077 89.5304 87.3916 89.1319 86.9931C88.7334 86.5946 88.4173 86.1216 88.2017 85.6009C87.986 85.0803 87.875 84.5222 87.875 83.9587V60.8045C87.8768 54.5699 90.1642 48.5522 94.3044 43.8907C94.5105 43.6593 94.6246 43.3602 94.625 43.0503V24.125C94.625 23.2299 94.9806 22.3714 95.6135 21.7385C96.2465 21.1056 97.1049 20.75 98 20.75H101.375Z" fill="black"/>
<path fill-rule="evenodd" clip-rule="evenodd" d="M108.125 64.625H91.25V74.75H108.125V64.625ZM87.875 61.25V78.125H111.5V61.25H87.875ZM119.936 44.375L118.547 57.4497C118.45 58.3553 118.544 59.2712 118.824 60.1379C119.104 61.0046 119.563 61.8026 120.172 62.4802C120.781 63.1577 121.525 63.6995 122.357 64.0705C123.189 64.4414 124.089 64.6331 125 64.6331C125.911 64.6331 126.811 64.4414 127.643 64.0705C128.475 63.6995 129.219 63.1577 129.828 62.4802C130.437 61.8026 130.896 61.0046 131.176 60.1379C131.456 59.2712 131.55 58.3553 131.453 57.4497L130.064 44.375H119.936ZM133.1 41H116.9L115.191 57.092C115.044 58.468 115.188 59.8595 115.614 61.1761C116.04 62.4927 116.738 63.7049 117.664 64.734C118.589 65.7631 119.72 66.586 120.984 67.1494C122.248 67.7127 123.616 68.0038 125 68.0038C126.384 68.0038 127.752 67.7127 129.016 67.1494C130.28 66.586 131.411 65.7631 132.336 64.734C133.262 63.7049 133.96 62.4927 134.386 61.1761C134.812 59.8595 134.956 58.468 134.809 57.092L133.1 41Z" fill="black"/>
<path fill-rule="evenodd" clip-rule="evenodd" d="M123.312 86.5625V66.3125H126.688V86.5625H123.312Z" fill="black"/>
<path fill-rule="evenodd" clip-rule="evenodd" d="M116.562 86.5625C116.562 86.1149 116.74 85.6857 117.057 85.3693C117.373 85.0528 117.802 84.875 118.25 84.875H131.75C132.198 84.875 132.627 85.0528 132.943 85.3693C133.26 85.6857 133.438 86.1149 133.438 86.5625C133.438 87.0101 133.26 87.4393 132.943 87.7557C132.627 88.0722 132.198 88.25 131.75 88.25H118.25C117.802 88.25 117.373 88.0722 117.057 87.7557C116.74 87.4393 116.562 87.0101 116.562 86.5625ZM132.594 57.875H117.406V54.5H132.594V57.875Z" fill="black"/>
<path opacity="0.8" d="M17.0473 123.056C17.8366 123.056 18.4659 122.875 18.9353 122.512C19.4046 122.149 19.6393 121.701 19.6393 121.168C19.6393 120.635 19.4046 120.165 18.9353 119.76C18.4659 119.333 17.9006 118.949 17.2393 118.608C16.5779 118.267 15.9166 117.904 15.2552 117.52C14.5939 117.136 14.0286 116.635 13.5593 116.016C13.0899 115.376 12.8553 114.64 12.8553 113.808C12.8553 112.357 13.3673 111.269 14.3913 110.544C15.4366 109.797 16.7059 109.424 18.1993 109.424C19.6926 109.424 21.1113 109.648 22.4553 110.096C22.4553 110.352 22.4553 110.811 22.4553 111.472C22.4553 112.112 22.3913 112.976 22.2633 114.064C21.7086 114.064 21.2926 114.021 21.0153 113.936C21.0366 113.701 21.0473 113.488 21.0473 113.296C21.0473 111.845 20.2579 111.12 18.6793 111.12C18.0393 111.12 17.5059 111.291 17.0793 111.632C16.6739 111.973 16.4713 112.421 16.4713 112.976C16.4713 113.531 16.7059 114.011 17.1753 114.416C17.6659 114.8 18.2526 115.152 18.9353 115.472C19.6393 115.771 20.3326 116.112 21.0153 116.496C21.7193 116.859 22.3059 117.36 22.7753 118C23.2659 118.64 23.5113 119.387 23.5113 120.24C23.5113 121.627 22.9139 122.757 21.7193 123.632C20.5246 124.485 19.0419 124.912 17.2713 124.912C15.5006 124.912 13.9113 124.699 12.5033 124.272C12.4606 123.781 12.4393 123.184 12.4393 122.48C12.4393 121.755 12.5139 120.923 12.6633 119.984C12.7059 119.984 13.1433 120.016 13.9753 120.08C13.9753 120.208 13.9753 120.432 13.9753 120.752C13.9753 121.051 14.0499 121.392 14.1993 121.776C14.3699 122.16 14.6366 122.437 14.9993 122.608C15.5753 122.907 16.2579 123.056 17.0473 123.056ZM32.8848 111.376C32.1808 111.376 31.5301 111.685 30.9328 112.304C30.3568 112.923 29.9728 113.893 29.7808 115.216L32.7568 114.992L35.0288 114.928C34.9648 112.56 34.2501 111.376 32.8848 111.376ZM29.6528 116.656V116.976C29.6528 120.603 31.0288 122.416 33.7808 122.416C35.2314 122.416 36.7568 122.032 38.3568 121.264L38.9008 122.192C37.1514 124.005 35.0608 124.912 32.6288 124.912C31.5194 124.912 30.4314 124.667 29.3648 124.176C28.3194 123.664 27.4021 122.821 26.6128 121.648C25.8448 120.475 25.4608 119.088 25.4608 117.488C25.4608 115.013 26.2288 113.051 27.7648 111.6C29.3221 110.149 31.1461 109.424 33.2368 109.424C34.8581 109.424 36.2234 109.925 37.3328 110.928C38.4634 111.931 39.0288 113.499 39.0288 115.632C38.9008 116.016 38.7301 116.357 38.5168 116.656H29.6528ZM49.053 123.024C49.053 123.109 49.053 123.259 49.053 123.472C49.053 123.685 49.021 124.027 48.957 124.496H40.989C40.9677 124.347 40.957 124.144 40.957 123.888C40.957 123.611 41.0103 123.323 41.117 123.024C41.821 122.917 42.333 122.747 42.653 122.512C42.9943 122.256 43.165 121.84 43.165 121.264V104.176C42.973 104.155 42.6957 104.144 42.333 104.144C41.9703 104.144 41.5223 104.155 40.989 104.176C41.0317 103.515 41.1063 103.035 41.213 102.736C43.0263 102.075 44.9997 101.669 47.133 101.52V122.608C47.6663 122.843 48.3063 122.981 49.053 123.024ZM58.666 111.376C57.962 111.376 57.3113 111.685 56.714 112.304C56.138 112.923 55.754 113.893 55.562 115.216L58.538 114.992L60.81 114.928C60.746 112.56 60.0313 111.376 58.666 111.376ZM55.434 116.656V116.976C55.434 120.603 56.81 122.416 59.562 122.416C61.0127 122.416 62.538 122.032 64.138 121.264L64.682 122.192C62.9327 124.005 60.842 124.912 58.41 124.912C57.3007 124.912 56.2127 124.667 55.146 124.176C54.1007 123.664 53.1833 122.821 52.394 121.648C51.626 120.475 51.242 119.088 51.242 117.488C51.242 115.013 52.01 113.051 53.546 111.6C55.1033 110.149 56.9273 109.424 59.018 109.424C60.6393 109.424 62.0047 109.925 63.114 110.928C64.2447 111.931 64.81 113.499 64.81 115.632C64.682 116.016 64.5113 116.357 64.298 116.656H55.434ZM73.7463 124.912C71.9329 124.912 70.3329 124.261 68.9463 122.96C67.5809 121.637 66.8983 119.792 66.8983 117.424C66.8983 115.035 67.6663 113.104 69.2023 111.632C70.7383 110.16 72.6369 109.424 74.8983 109.424C76.3703 109.424 77.7889 109.765 79.1543 110.448C79.1329 111.728 78.9836 113.125 78.7063 114.64C78.4716 114.64 78.1409 114.597 77.7143 114.512C77.6503 113.552 77.3409 112.795 76.7863 112.24C76.2529 111.685 75.5809 111.408 74.7703 111.408C73.6609 111.408 72.7649 111.877 72.0823 112.816C71.4209 113.755 71.0903 115.163 71.0903 117.04C71.0903 118.896 71.4316 120.272 72.1143 121.168C72.8183 122.043 73.7676 122.48 74.9623 122.48C76.1783 122.48 77.5649 122.117 79.1223 121.392L79.7303 122.288C77.9809 124.037 75.9863 124.912 73.7463 124.912ZM87.1285 124.88C85.9125 124.88 84.9312 124.517 84.1845 123.792C83.4378 123.045 83.0645 121.947 83.0645 120.496V111.952C82.4672 111.867 81.7845 111.824 81.0165 111.824C81.0165 111.376 81.0378 110.96 81.0805 110.576C81.6138 110.363 82.2645 110.16 83.0325 109.968L86.2005 105.328L87.0005 105.552V109.936C88.4938 109.893 89.8485 109.797 91.0645 109.648C91.0645 110.459 90.9685 111.184 90.7765 111.824H87.0005L87.0325 120.304C87.0325 121.563 87.5232 122.192 88.5045 122.192C89.3152 122.192 90.1365 121.872 90.9685 121.232L91.6405 122.096C90.3392 123.952 88.8352 124.88 87.1285 124.88ZM105.466 120.496C105.466 121.072 105.626 121.531 105.946 121.872C106.287 122.213 106.799 122.384 107.482 122.384C108.186 122.384 108.815 122.075 109.37 121.456V117.296L107.962 117.68C106.298 118.149 105.466 119.088 105.466 120.496ZM112.666 124.912C111.941 124.912 111.279 124.763 110.682 124.464C110.106 124.144 109.711 123.696 109.498 123.12C108.474 124.315 107.247 124.912 105.818 124.912C104.41 124.912 103.301 124.528 102.49 123.76C101.679 122.992 101.274 122.011 101.274 120.816C101.274 119.621 101.658 118.672 102.426 117.968C103.194 117.264 104.357 116.752 105.914 116.432L109.37 115.728V114.576C109.37 113.765 109.167 113.179 108.762 112.816C108.378 112.432 107.663 112.24 106.618 112.24C105.594 112.24 104.41 112.475 103.066 112.944L102.266 111.76C104.058 110.203 106.127 109.424 108.474 109.424C110.074 109.424 111.279 109.861 112.09 110.736C112.901 111.611 113.306 112.848 113.306 114.448V120.816C113.306 121.904 113.647 122.448 114.33 122.448C114.437 122.448 114.831 122.384 115.514 122.256L115.834 123.088C114.853 124.304 113.797 124.912 112.666 124.912ZM142.399 114.384V122.608C143.295 122.864 144.01 123.003 144.543 123.024C144.565 123.131 144.575 123.312 144.575 123.568C144.575 123.803 144.522 124.112 144.415 124.496H136.575C136.554 124.347 136.543 124.155 136.543 123.92C136.543 123.685 136.586 123.387 136.671 123.024C137.311 122.917 137.759 122.747 138.015 122.512C138.293 122.277 138.431 121.861 138.431 121.264V114.832C138.431 113.915 138.218 113.232 137.791 112.784C137.386 112.315 136.821 112.08 136.095 112.08C134.602 112.08 133.471 113.104 132.703 115.152V122.608C133.237 122.843 133.887 122.981 134.655 123.024C134.655 123.131 134.655 123.312 134.655 123.568C134.655 123.803 134.613 124.112 134.527 124.496H126.879C126.858 124.347 126.847 124.144 126.847 123.888C126.847 123.611 126.901 123.323 127.007 123.024C127.647 122.917 128.095 122.747 128.351 122.512C128.607 122.277 128.735 121.861 128.735 121.264V114.832C128.735 113.915 128.522 113.232 128.095 112.784C127.69 112.315 127.125 112.08 126.399 112.08C124.927 112.08 123.807 113.072 123.039 115.056V122.608C123.573 122.843 124.213 122.981 124.959 123.024C124.959 123.109 124.959 123.259 124.959 123.472C124.959 123.685 124.927 124.027 124.863 124.496H116.895C116.874 124.347 116.863 124.144 116.863 123.888C116.863 123.611 116.917 123.323 117.023 123.024C117.727 122.917 118.239 122.747 118.559 122.512C118.901 122.256 119.071 121.84 119.071 121.264V112.272C118.73 112.229 118.367 112.208 117.983 112.208C117.621 112.208 117.258 112.219 116.895 112.24C116.938 111.6 117.013 111.131 117.119 110.832C118.89 110.192 120.735 109.776 122.655 109.584C122.826 110.459 122.943 111.451 123.007 112.56C124.074 110.469 125.738 109.424 127.999 109.424C129.13 109.424 130.09 109.723 130.879 110.32C131.69 110.896 132.234 111.728 132.511 112.816C133.023 111.707 133.727 110.864 134.623 110.288C135.541 109.712 136.629 109.424 137.887 109.424C139.146 109.424 140.213 109.861 141.087 110.736C141.962 111.589 142.399 112.805 142.399 114.384ZM157.279 117.68C157.279 113.392 156.116 111.248 153.791 111.248C151.636 111.248 150.559 113.051 150.559 116.656C150.559 116.827 150.559 116.997 150.559 117.168C150.73 121.051 151.914 122.992 154.111 122.992C156.223 122.992 157.279 121.221 157.279 117.68ZM153.951 109.424C156.212 109.424 158.036 110.096 159.423 111.44C160.81 112.784 161.503 114.683 161.503 117.136C161.503 119.589 160.799 121.499 159.391 122.864C157.983 124.208 156.148 124.88 153.887 124.88C151.626 124.88 149.802 124.208 148.415 122.864C147.05 121.52 146.367 119.621 146.367 117.168C146.367 114.715 147.071 112.816 148.479 111.472C149.887 110.107 151.711 109.424 153.951 109.424ZM178.372 112.72V121.968C179.055 122.075 179.695 122.128 180.292 122.128C180.356 122.384 180.388 122.629 180.388 122.864C180.388 123.099 180.377 123.301 180.356 123.472C178.756 124.197 176.921 124.592 174.852 124.656C174.66 123.675 174.532 122.693 174.468 121.712C173.316 123.824 171.652 124.88 169.476 124.88C168.089 124.88 166.959 124.443 166.084 123.568C165.209 122.672 164.772 121.435 164.772 119.856V112.144C164.452 112.123 164.121 112.112 163.78 112.112C163.46 112.112 163.172 112.112 162.916 112.112C162.959 111.472 163.033 111.003 163.14 110.704C165.017 110 166.873 109.595 168.708 109.488V119.408C168.708 120.304 168.921 120.997 169.348 121.488C169.796 121.957 170.372 122.192 171.076 122.192C172.505 122.192 173.625 121.168 174.436 119.12V113.52C174.436 112.24 173.988 111.408 173.092 111.024C173.177 110.619 173.284 110.32 173.412 110.128C174.585 109.68 175.844 109.456 177.188 109.456C177.615 109.456 178.052 109.477 178.5 109.52C178.415 110.288 178.372 111.355 178.372 112.72ZM198.266 114.384V122.608C199.183 122.864 199.908 123.003 200.442 123.024C200.463 123.131 200.474 123.312 200.474 123.568C200.474 123.803 200.42 124.112 200.314 124.496H192.442C192.42 124.347 192.41 124.144 192.41 123.888C192.41 123.611 192.463 123.323 192.57 123.024C193.21 122.917 193.658 122.747 193.914 122.512C194.17 122.277 194.298 121.861 194.298 121.264V114.832C194.298 113.915 194.084 113.232 193.658 112.784C193.252 112.315 192.687 112.08 191.962 112.08C190.49 112.08 189.37 113.072 188.602 115.056V122.608C189.135 122.843 189.775 122.981 190.522 123.024C190.522 123.109 190.522 123.259 190.522 123.472C190.522 123.685 190.49 124.027 190.426 124.496H182.458C182.436 124.347 182.426 124.144 182.426 123.888C182.426 123.611 182.479 123.323 182.586 123.024C183.29 122.917 183.802 122.747 184.122 122.512C184.463 122.256 184.634 121.84 184.634 121.264V112.272C184.292 112.229 183.93 112.208 183.546 112.208C183.183 112.208 182.82 112.219 182.458 112.24C182.5 111.6 182.575 111.131 182.682 110.832C184.452 110.192 186.298 109.776 188.218 109.584C188.388 110.459 188.506 111.451 188.57 112.56C189.636 110.469 191.3 109.424 193.562 109.424C194.948 109.424 196.079 109.861 196.954 110.736C197.828 111.589 198.266 112.805 198.266 114.384ZM207.847 124.88C206.631 124.88 205.65 124.517 204.903 123.792C204.157 123.045 203.783 121.947 203.783 120.496V111.952C203.186 111.867 202.503 111.824 201.735 111.824C201.735 111.376 201.757 110.96 201.799 110.576C202.333 110.363 202.983 110.16 203.751 109.968L206.919 105.328L207.719 105.552V109.936C209.213 109.893 210.567 109.797 211.783 109.648C211.783 110.459 211.687 111.184 211.495 111.824H207.719L207.751 120.304C207.751 121.563 208.242 122.192 209.223 122.192C210.034 122.192 210.855 121.872 211.687 121.232L212.359 122.096C211.058 123.952 209.554 124.88 207.847 124.88Z" fill="black"/>
<defs>
<filter id="filter0_f_634_1104" x="-100" y="-100" width="424.594" height="341" filterUnits="userSpaceOnUse" color-interpolation-filters="sRGB">
<feFlood flood-opacity="0" result="BackgroundImageFix"/>
<feBlend mode="normal" in="SourceGraphic" in2="BackgroundImageFix" result="shape"/>
<feGaussianBlur stdDeviation="50" result="effect1_foregroundBlur_634_1104"/>
</filter>
<linearGradient id="paint0_linear_634_1104" x1="221.185" y1="1.73836" x2="-16.4167" y2="89.2887" gradientUnits="userSpaceOnUse">
<stop stop-color="#5757EC"/>
<stop offset="1" stop-color="#FFFCFC" stop-opacity="0.5"/>
</linearGradient>
</defs>
</svg>
