<svg width="756" height="621" viewBox="0 0 756 621" fill="none" xmlns="http://www.w3.org/2000/svg">
<path d="M2 16C2 8.26801 8.26801 2 16 2H740C747.732 2 754 8.26801 754 16V605C754 612.732 747.732 619 740 619H16C8.268 619 2 612.732 2 605V16Z" stroke="url(#paint0_linear_193_120)" stroke-width="4"/>
<mask id="mask0_193_120" style="mask-type:alpha" maskUnits="userSpaceOnUse" x="0" y="0" width="756" height="621">
<path d="M0 16C0 7.16344 7.16344 0 16 0H740C748.837 0 756 7.16344 756 16V605C756 613.837 748.837 621 740 621H16C7.16343 621 0 613.837 0 605V16Z" fill="#D9D9D9"/>
</mask>
<g mask="url(#mask0_193_120)">
<g filter="url(#filter0_f_193_120)">
<path d="M0 16C0 7.16344 7.16344 0 16 0H377V621H16C7.16344 621 0 613.837 0 605V16Z" fill="#298DFF" fill-opacity="0.5"/>
<path d="M758 16C758 7.16344 750.837 0 742 0H312V621H742C750.837 621 758 613.837 758 605V16Z" fill="#4F28E9" fill-opacity="0.5"/>
</g>
</g>
<defs>
<filter id="filter0_f_193_120" x="-100" y="-100" width="958" height="821" filterUnits="userSpaceOnUse" color-interpolation-filters="sRGB">
<feFlood flood-opacity="0" result="BackgroundImageFix"/>
<feBlend mode="normal" in="SourceGraphic" in2="BackgroundImageFix" result="shape"/>
<feGaussianBlur stdDeviation="50" result="effect1_foregroundBlur_193_120"/>
</filter>
<linearGradient id="paint0_linear_193_120" x1="746.5" y1="7.65618" x2="-97.03" y2="245.839" gradientUnits="userSpaceOnUse">
<stop stop-color="#5757EC"/>
<stop offset="1" stop-color="#FFFCFC" stop-opacity="0.5"/>
</linearGradient>
</defs>
</svg>
