<svg width="34" height="34" viewBox="0 0 34 34" fill="none" xmlns="http://www.w3.org/2000/svg">
<path d="M15.584 24.0834H18.4173V15.5834H15.584V24.0834ZM17.0007 12.75C17.402 12.75 17.7387 12.614 18.0107 12.342C18.2827 12.07 18.4183 11.7338 18.4173 11.3334C18.4164 10.9329 18.2804 10.5967 18.0093 10.3247C17.7383 10.0527 17.402 9.91671 17.0007 9.91671C16.5993 9.91671 16.263 10.0527 15.992 10.3247C15.7209 10.5967 15.5849 10.9329 15.584 11.3334C15.583 11.7338 15.719 12.0705 15.992 12.3435C16.2649 12.6164 16.6012 12.7519 17.0007 12.75ZM17.0007 31.1667C15.0409 31.1667 13.1993 30.7946 11.4757 30.0504C9.75204 29.3062 8.25274 28.297 6.97774 27.023C5.70274 25.7489 4.6936 24.2496 3.95032 22.525C3.20704 20.8005 2.83493 18.9588 2.83399 17C2.83304 15.0413 3.20515 13.1996 3.95032 11.475C4.69549 9.75049 5.70463 8.25118 6.97774 6.97712C8.25085 5.70307 9.75015 4.69393 11.4757 3.94971C13.2012 3.20549 15.0428 2.83337 17.0007 2.83337C18.9585 2.83337 20.8002 3.20549 22.5257 3.94971C24.2512 4.69393 25.7505 5.70307 27.0236 6.97712C28.2967 8.25118 29.3063 9.75049 30.0524 11.475C30.7985 13.1996 31.1702 15.0413 31.1673 17C31.1645 18.9588 30.7924 20.8005 30.051 22.525C29.3096 24.2496 28.3005 25.7489 27.0236 27.023C25.7467 28.297 24.2474 29.3066 22.5257 30.0518C20.8039 30.797 18.9623 31.1686 17.0007 31.1667ZM17.0007 28.3334C20.1645 28.3334 22.8444 27.2355 25.0402 25.0396C27.2361 22.8438 28.334 20.1639 28.334 17C28.334 13.8362 27.2361 11.1563 25.0402 8.96046C22.8444 6.76462 20.1645 5.66671 17.0007 5.66671C13.8368 5.66671 11.1569 6.76462 8.96107 8.96046C6.76524 11.1563 5.66732 13.8362 5.66732 17C5.66732 20.1639 6.76524 22.8438 8.96107 25.0396C11.1569 27.2355 13.8368 28.3334 17.0007 28.3334Z" fill="black"/>
</svg>
