<svg width="206" height="58" viewBox="0 0 206 58" fill="none" xmlns="http://www.w3.org/2000/svg">
<path d="M89.6438 18.448C89.6678 18.616 89.6798 18.856 89.6798 19.168C89.6798 19.456 89.6198 19.768 89.4998 20.104C88.7078 20.2 88.1318 20.392 87.7718 20.68C87.4118 20.944 87.2318 21.412 87.2318 22.084V34C87.2318 36.688 86.4038 38.656 84.7478 39.904C83.1158 41.152 80.8718 41.776 78.0158 41.776C75.1598 41.776 72.9158 41.152 71.2838 39.904C69.6518 38.656 68.8358 36.688 68.8358 34V20.572C68.1398 20.26 67.3118 20.104 66.3518 20.104C66.3278 20.008 66.3158 19.852 66.3158 19.636C66.3158 19.396 66.3638 19 66.4598 18.448H75.7838C75.7838 18.616 75.7838 18.856 75.7838 19.168C75.7838 19.456 75.7358 19.768 75.6398 20.104C74.8718 20.2 74.2958 20.392 73.9118 20.68C73.5518 20.944 73.3718 21.412 73.3718 22.084V34.072C73.3718 37.696 74.9198 39.508 78.0158 39.508C81.1118 39.508 82.6598 37.696 82.6598 34.072V20.536C81.9638 20.248 81.1238 20.104 80.1398 20.104C80.1398 19.408 80.1878 18.856 80.2838 18.448H89.6438ZM97.3188 39.688C98.2068 39.688 98.9148 39.484 99.4428 39.076C99.9708 38.668 100.235 38.164 100.235 37.564C100.235 36.964 99.9708 36.436 99.4428 35.98C98.9148 35.5 98.2788 35.068 97.5348 34.684C96.7908 34.3 96.0468 33.892 95.3028 33.46C94.5588 33.028 93.9228 32.464 93.3948 31.768C92.8668 31.048 92.6028 30.22 92.6028 29.284C92.6028 27.652 93.1788 26.428 94.3308 25.612C95.5068 24.772 96.9348 24.352 98.6148 24.352C100.295 24.352 101.891 24.604 103.403 25.108C103.403 25.396 103.403 25.912 103.403 26.656C103.403 27.376 103.331 28.348 103.187 29.572C102.563 29.572 102.095 29.524 101.783 29.428C101.807 29.164 101.819 28.924 101.819 28.708C101.819 27.076 100.931 26.26 99.1548 26.26C98.4348 26.26 97.8348 26.452 97.3548 26.836C96.8988 27.22 96.6708 27.724 96.6708 28.348C96.6708 28.972 96.9348 29.512 97.4628 29.968C98.0148 30.4 98.6748 30.796 99.4428 31.156C100.235 31.492 101.015 31.876 101.783 32.308C102.575 32.716 103.235 33.28 103.763 34C104.315 34.72 104.591 35.56 104.591 36.52C104.591 38.08 103.919 39.352 102.575 40.336C101.231 41.296 99.5628 41.776 97.5708 41.776C95.5788 41.776 93.7908 41.536 92.2068 41.056C92.1588 40.504 92.1348 39.832 92.1348 39.04C92.1348 38.224 92.2188 37.288 92.3868 36.232C92.4348 36.232 92.9268 36.268 93.8628 36.34C93.8628 36.484 93.8628 36.736 93.8628 37.096C93.8628 37.432 93.9468 37.816 94.1148 38.248C94.3068 38.68 94.6068 38.992 95.0148 39.184C95.6628 39.52 96.4308 39.688 97.3188 39.688ZM115.136 26.548C114.344 26.548 113.612 26.896 112.94 27.592C112.292 28.288 111.86 29.38 111.644 30.868L114.992 30.616L117.548 30.544C117.476 27.88 116.672 26.548 115.136 26.548ZM111.5 32.488V32.848C111.5 36.928 113.048 38.968 116.144 38.968C117.776 38.968 119.492 38.536 121.292 37.672L121.904 38.716C119.936 40.756 117.584 41.776 114.848 41.776C113.6 41.776 112.376 41.5 111.176 40.948C110 40.372 108.968 39.424 108.08 38.104C107.216 36.784 106.784 35.224 106.784 33.424C106.784 30.64 107.648 28.432 109.376 26.8C111.128 25.168 113.18 24.352 115.532 24.352C117.356 24.352 118.892 24.916 120.14 26.044C121.412 27.172 122.048 28.936 122.048 31.336C121.904 31.768 121.712 32.152 121.472 32.488H111.5ZM126.701 37.636V27.556C126.317 27.508 125.909 27.484 125.477 27.484C125.069 27.484 124.661 27.496 124.253 27.52C124.301 26.8 124.385 26.272 124.505 25.936C126.497 25.216 128.573 24.748 130.733 24.532C130.973 26.02 131.117 27.664 131.165 29.464C131.765 27.952 132.617 26.728 133.721 25.792C134.849 24.832 136.097 24.352 137.465 24.352C137.585 24.784 137.645 25.336 137.645 26.008C137.645 26.656 137.525 27.496 137.285 28.528C133.637 28.528 131.597 29.92 131.165 32.704V38.968C132.173 39.352 133.289 39.58 134.513 39.652C134.513 39.772 134.513 39.976 134.513 40.264C134.513 40.528 134.465 40.876 134.369 41.308H124.253C124.229 41.14 124.217 40.912 124.217 40.624C124.217 40.312 124.277 39.988 124.397 39.652C125.189 39.532 125.765 39.34 126.125 39.076C126.509 38.788 126.701 38.308 126.701 37.636ZM147.458 39.652C147.458 39.748 147.458 39.916 147.458 40.156C147.458 40.396 147.422 40.78 147.35 41.308H138.386C138.362 41.14 138.35 40.912 138.35 40.624C138.35 40.312 138.41 39.988 138.53 39.652C139.322 39.532 139.898 39.34 140.258 39.076C140.642 38.788 140.834 38.32 140.834 37.672V18.448C140.618 18.424 140.306 18.412 139.898 18.412C139.49 18.412 138.986 18.424 138.386 18.448C138.434 17.704 138.518 17.164 138.638 16.828C140.678 16.084 142.898 15.628 145.298 15.46V39.184C145.898 39.448 146.618 39.604 147.458 39.652ZM156.329 21.652C155.801 22.18 155.165 22.444 154.421 22.444C153.677 22.444 153.041 22.18 152.513 21.652C151.985 21.124 151.721 20.488 151.721 19.744C151.721 19 151.985 18.364 152.513 17.836C153.041 17.308 153.677 17.044 154.421 17.044C155.189 17.044 155.825 17.308 156.329 17.836C156.857 18.34 157.121 18.976 157.121 19.744C157.121 20.488 156.857 21.124 156.329 21.652ZM158.849 39.652C158.849 39.748 158.849 39.916 158.849 40.156C158.849 40.396 158.813 40.78 158.741 41.308H149.777C149.753 41.14 149.741 40.912 149.741 40.624C149.741 40.312 149.801 39.988 149.921 39.652C150.713 39.532 151.289 39.34 151.649 39.076C152.033 38.788 152.225 38.32 152.225 37.672V27.556C151.841 27.508 151.433 27.484 151.001 27.484C150.593 27.484 150.185 27.496 149.777 27.52C149.825 26.824 149.909 26.272 150.029 25.864C152.117 25.168 154.337 24.724 156.689 24.532V39.184C157.289 39.448 158.009 39.604 158.849 39.652ZM166.963 39.688C167.851 39.688 168.559 39.484 169.087 39.076C169.615 38.668 169.879 38.164 169.879 37.564C169.879 36.964 169.615 36.436 169.087 35.98C168.559 35.5 167.923 35.068 167.179 34.684C166.435 34.3 165.691 33.892 164.947 33.46C164.203 33.028 163.567 32.464 163.039 31.768C162.511 31.048 162.247 30.22 162.247 29.284C162.247 27.652 162.823 26.428 163.975 25.612C165.151 24.772 166.579 24.352 168.259 24.352C169.939 24.352 171.535 24.604 173.047 25.108C173.047 25.396 173.047 25.912 173.047 26.656C173.047 27.376 172.975 28.348 172.831 29.572C172.207 29.572 171.739 29.524 171.427 29.428C171.451 29.164 171.463 28.924 171.463 28.708C171.463 27.076 170.575 26.26 168.799 26.26C168.079 26.26 167.479 26.452 166.999 26.836C166.543 27.22 166.315 27.724 166.315 28.348C166.315 28.972 166.579 29.512 167.107 29.968C167.659 30.4 168.319 30.796 169.087 31.156C169.879 31.492 170.659 31.876 171.427 32.308C172.219 32.716 172.879 33.28 173.407 34C173.959 34.72 174.235 35.56 174.235 36.52C174.235 38.08 173.563 39.352 172.219 40.336C170.875 41.296 169.207 41.776 167.215 41.776C165.223 41.776 163.435 41.536 161.851 41.056C161.803 40.504 161.779 39.832 161.779 39.04C161.779 38.224 161.863 37.288 162.031 36.232C162.079 36.232 162.571 36.268 163.507 36.34C163.507 36.484 163.507 36.736 163.507 37.096C163.507 37.432 163.591 37.816 163.759 38.248C163.951 38.68 164.251 38.992 164.659 39.184C165.307 39.52 166.075 39.688 166.963 39.688ZM182.981 41.74C181.613 41.74 180.509 41.332 179.669 40.516C178.829 39.676 178.409 38.44 178.409 36.808V27.196C177.737 27.1 176.969 27.052 176.105 27.052C176.105 26.548 176.129 26.08 176.177 25.648C176.777 25.408 177.509 25.18 178.373 24.964L181.937 19.744L182.837 19.996V24.928C184.517 24.88 186.041 24.772 187.409 24.604C187.409 25.516 187.301 26.332 187.085 27.052H182.837L182.873 36.592C182.873 38.008 183.425 38.716 184.529 38.716C185.441 38.716 186.365 38.356 187.301 37.636L188.057 38.608C186.593 40.696 184.901 41.74 182.981 41.74Z" fill="black"/>
<path d="M17.7873 29C14.5478 29.1079 11.8982 30.4888 9.83853 33.1429H5.81913C4.17938 33.1429 2.79958 32.7059 1.67975 31.832C0.559916 30.9581 0 29.6797 0 27.9967C0 20.3798 1.23981 16.5714 3.71944 16.5714C3.83943 16.5714 4.27436 16.798 5.02425 17.2511C5.77414 17.7042 6.74899 18.1628 7.94881 18.6267C9.14863 19.0906 10.3385 19.3225 11.5183 19.3225C12.8581 19.3225 14.1879 19.0744 15.5077 18.5781C15.4077 19.3765 15.3577 20.0885 15.3577 20.7143C15.3577 23.7135 16.1676 26.4754 17.7873 29ZM49.9125 49.6172C49.9125 52.2065 49.1827 54.2509 47.7229 55.7506C46.2631 57.2502 44.3234 58 41.9037 58H15.6877C13.268 58 11.3283 57.2502 9.86853 55.7506C8.40874 54.2509 7.67885 52.2065 7.67885 49.6172C7.67885 48.4736 7.71385 47.357 7.78384 46.2673C7.85383 45.1776 7.99381 44.0017 8.20377 42.7394C8.41374 41.4771 8.6787 40.3065 8.99866 39.2277C9.31861 38.1488 9.74854 37.0969 10.2885 36.072C10.8284 35.0471 11.4483 34.1732 12.1482 33.4503C12.8481 32.7275 13.703 32.1503 14.7128 31.7187C15.7227 31.2872 16.8375 31.0714 18.0573 31.0714C18.2573 31.0714 18.6872 31.3034 19.3471 31.7673C20.007 32.2312 20.7369 32.7491 21.5368 33.3209C22.3367 33.8927 23.4065 34.4105 24.7463 34.8744C26.0861 35.3384 27.4359 35.5703 28.7957 35.5703C30.1555 35.5703 31.5053 35.3384 32.8451 34.8744C34.1849 34.4105 35.2547 33.8927 36.0546 33.3209C36.8545 32.7491 37.5844 32.2312 38.2443 31.7673C38.9042 31.3034 39.3341 31.0714 39.5341 31.0714C40.7539 31.0714 41.8687 31.2872 42.8786 31.7187C43.8884 32.1503 44.7433 32.7275 45.4432 33.4503C46.1431 34.1732 46.763 35.0471 47.3029 36.072C47.8429 37.0969 48.2728 38.1488 48.5927 39.2277C48.9127 40.3065 49.1777 41.4771 49.3876 42.7394C49.5976 44.0017 49.7376 45.1776 49.8076 46.2673C49.8775 47.357 49.9125 48.4736 49.9125 49.6172ZM19.1971 8.28571C19.1971 10.5729 18.4472 12.5257 16.9475 14.144C15.4477 15.7623 13.638 16.5714 11.5183 16.5714C9.3986 16.5714 7.58887 15.7623 6.08909 14.144C4.58931 12.5257 3.83943 10.5729 3.83943 8.28571C3.83943 5.99851 4.58931 4.04576 6.08909 2.42746C7.58887 0.809152 9.3986 0 11.5183 0C13.638 0 15.4477 0.809152 16.9475 2.42746C18.4472 4.04576 19.1971 5.99851 19.1971 8.28571ZM40.314 20.7143C40.314 24.1451 39.1891 27.0742 36.9395 29.5017C34.6898 31.9291 31.9752 33.1429 28.7957 33.1429C25.6162 33.1429 22.9016 31.9291 20.6519 29.5017C18.4023 27.0742 17.2774 24.1451 17.2774 20.7143C17.2774 17.2835 18.4023 14.3544 20.6519 11.9269C22.9016 9.49944 25.6162 8.28571 28.7957 8.28571C31.9752 8.28571 34.6898 9.49944 36.9395 11.9269C39.1891 14.3544 40.314 17.2835 40.314 20.7143ZM57.5914 27.9967C57.5914 29.6797 57.0315 30.9581 55.9116 31.832C54.7918 32.7059 53.412 33.1429 51.7723 33.1429H47.7529C45.6932 30.4888 43.0436 29.1079 39.8041 29C41.4238 26.4754 42.2337 23.7135 42.2337 20.7143C42.2337 20.0885 42.1837 19.3765 42.0837 18.5781C43.4035 19.0744 44.7333 19.3225 46.0731 19.3225C47.2529 19.3225 48.4428 19.0906 49.6426 18.6267C50.8424 18.1628 51.8173 17.7042 52.5671 17.2511C53.317 16.798 53.752 16.5714 53.872 16.5714C56.3516 16.5714 57.5914 20.3798 57.5914 27.9967ZM53.752 8.28571C53.752 10.5729 53.0021 12.5257 51.5023 14.144C50.0025 15.7623 48.1928 16.5714 46.0731 16.5714C43.9534 16.5714 42.1437 15.7623 40.6439 14.144C39.1442 12.5257 38.3943 10.5729 38.3943 8.28571C38.3943 5.99851 39.1442 4.04576 40.6439 2.42746C42.1437 0.809152 43.9534 0 46.0731 0C48.1928 0 50.0025 0.809152 51.5023 2.42746C53.0021 4.04576 53.752 5.99851 53.752 8.28571Z" fill="black"/>
</svg>
