<svg width="186" height="52" viewBox="0 0 186 52" fill="none" xmlns="http://www.w3.org/2000/svg">
<path d="M83.3 18.448C83.324 18.616 83.336 18.856 83.336 19.168C83.336 19.456 83.276 19.768 83.156 20.104C82.364 20.2 81.788 20.392 81.428 20.68C81.068 20.944 80.888 21.412 80.888 22.084V34C80.888 36.688 80.06 38.656 78.404 39.904C76.772 41.152 74.528 41.776 71.672 41.776C68.816 41.776 66.572 41.152 64.94 39.904C63.308 38.656 62.492 36.688 62.492 34V20.572C61.796 20.26 60.968 20.104 60.008 20.104C59.984 20.008 59.972 19.852 59.972 19.636C59.972 19.396 60.02 19 60.116 18.448H69.44C69.44 18.616 69.44 18.856 69.44 19.168C69.44 19.456 69.392 19.768 69.296 20.104C68.528 20.2 67.952 20.392 67.568 20.68C67.208 20.944 67.028 21.412 67.028 22.084V34.072C67.028 37.696 68.576 39.508 71.672 39.508C74.768 39.508 76.316 37.696 76.316 34.072V20.536C75.62 20.248 74.78 20.104 73.796 20.104C73.796 19.408 73.844 18.856 73.94 18.448H83.3ZM90.975 39.688C91.863 39.688 92.571 39.484 93.099 39.076C93.627 38.668 93.891 38.164 93.891 37.564C93.891 36.964 93.627 36.436 93.099 35.98C92.571 35.5 91.935 35.068 91.191 34.684C90.447 34.3 89.703 33.892 88.959 33.46C88.215 33.028 87.579 32.464 87.051 31.768C86.523 31.048 86.259 30.22 86.259 29.284C86.259 27.652 86.835 26.428 87.987 25.612C89.163 24.772 90.591 24.352 92.271 24.352C93.951 24.352 95.547 24.604 97.059 25.108C97.059 25.396 97.059 25.912 97.059 26.656C97.059 27.376 96.987 28.348 96.843 29.572C96.219 29.572 95.751 29.524 95.439 29.428C95.463 29.164 95.475 28.924 95.475 28.708C95.475 27.076 94.587 26.26 92.811 26.26C92.091 26.26 91.491 26.452 91.011 26.836C90.555 27.22 90.327 27.724 90.327 28.348C90.327 28.972 90.591 29.512 91.119 29.968C91.671 30.4 92.331 30.796 93.099 31.156C93.891 31.492 94.671 31.876 95.439 32.308C96.231 32.716 96.891 33.28 97.419 34C97.971 34.72 98.247 35.56 98.247 36.52C98.247 38.08 97.575 39.352 96.231 40.336C94.887 41.296 93.219 41.776 91.227 41.776C89.235 41.776 87.447 41.536 85.863 41.056C85.815 40.504 85.791 39.832 85.791 39.04C85.791 38.224 85.875 37.288 86.043 36.232C86.091 36.232 86.583 36.268 87.519 36.34C87.519 36.484 87.519 36.736 87.519 37.096C87.519 37.432 87.603 37.816 87.771 38.248C87.963 38.68 88.263 38.992 88.671 39.184C89.319 39.52 90.087 39.688 90.975 39.688ZM108.792 26.548C108 26.548 107.268 26.896 106.596 27.592C105.948 28.288 105.516 29.38 105.3 30.868L108.648 30.616L111.204 30.544C111.132 27.88 110.328 26.548 108.792 26.548ZM105.156 32.488V32.848C105.156 36.928 106.704 38.968 109.8 38.968C111.432 38.968 113.148 38.536 114.948 37.672L115.56 38.716C113.592 40.756 111.24 41.776 108.504 41.776C107.256 41.776 106.032 41.5 104.832 40.948C103.656 40.372 102.624 39.424 101.736 38.104C100.872 36.784 100.44 35.224 100.44 33.424C100.44 30.64 101.304 28.432 103.032 26.8C104.784 25.168 106.836 24.352 109.188 24.352C111.012 24.352 112.548 24.916 113.796 26.044C115.068 27.172 115.704 28.936 115.704 31.336C115.56 31.768 115.368 32.152 115.128 32.488H105.156ZM120.358 37.636V27.556C119.974 27.508 119.566 27.484 119.134 27.484C118.726 27.484 118.318 27.496 117.91 27.52C117.958 26.8 118.042 26.272 118.162 25.936C120.154 25.216 122.23 24.748 124.39 24.532C124.63 26.02 124.774 27.664 124.822 29.464C125.422 27.952 126.274 26.728 127.378 25.792C128.506 24.832 129.754 24.352 131.122 24.352C131.242 24.784 131.302 25.336 131.302 26.008C131.302 26.656 131.182 27.496 130.942 28.528C127.294 28.528 125.254 29.92 124.822 32.704V38.968C125.83 39.352 126.946 39.58 128.17 39.652C128.17 39.772 128.17 39.976 128.17 40.264C128.17 40.528 128.122 40.876 128.026 41.308H117.91C117.886 41.14 117.874 40.912 117.874 40.624C117.874 40.312 117.934 39.988 118.054 39.652C118.846 39.532 119.422 39.34 119.782 39.076C120.166 38.788 120.358 38.308 120.358 37.636ZM141.114 39.652C141.114 39.748 141.114 39.916 141.114 40.156C141.114 40.396 141.078 40.78 141.006 41.308H132.042C132.018 41.14 132.006 40.912 132.006 40.624C132.006 40.312 132.066 39.988 132.186 39.652C132.978 39.532 133.554 39.34 133.914 39.076C134.298 38.788 134.49 38.32 134.49 37.672V18.448C134.274 18.424 133.962 18.412 133.554 18.412C133.146 18.412 132.642 18.424 132.042 18.448C132.09 17.704 132.174 17.164 132.294 16.828C134.334 16.084 136.554 15.628 138.954 15.46V39.184C139.554 39.448 140.274 39.604 141.114 39.652ZM149.985 21.652C149.457 22.18 148.821 22.444 148.077 22.444C147.333 22.444 146.697 22.18 146.169 21.652C145.641 21.124 145.377 20.488 145.377 19.744C145.377 19 145.641 18.364 146.169 17.836C146.697 17.308 147.333 17.044 148.077 17.044C148.845 17.044 149.481 17.308 149.985 17.836C150.513 18.34 150.777 18.976 150.777 19.744C150.777 20.488 150.513 21.124 149.985 21.652ZM152.505 39.652C152.505 39.748 152.505 39.916 152.505 40.156C152.505 40.396 152.469 40.78 152.397 41.308H143.433C143.409 41.14 143.397 40.912 143.397 40.624C143.397 40.312 143.457 39.988 143.577 39.652C144.369 39.532 144.945 39.34 145.305 39.076C145.689 38.788 145.881 38.32 145.881 37.672V27.556C145.497 27.508 145.089 27.484 144.657 27.484C144.249 27.484 143.841 27.496 143.433 27.52C143.481 26.824 143.565 26.272 143.685 25.864C145.773 25.168 147.993 24.724 150.345 24.532V39.184C150.945 39.448 151.665 39.604 152.505 39.652ZM160.62 39.688C161.508 39.688 162.216 39.484 162.744 39.076C163.272 38.668 163.536 38.164 163.536 37.564C163.536 36.964 163.272 36.436 162.744 35.98C162.216 35.5 161.58 35.068 160.836 34.684C160.092 34.3 159.348 33.892 158.604 33.46C157.86 33.028 157.224 32.464 156.696 31.768C156.168 31.048 155.904 30.22 155.904 29.284C155.904 27.652 156.48 26.428 157.632 25.612C158.808 24.772 160.236 24.352 161.916 24.352C163.596 24.352 165.192 24.604 166.704 25.108C166.704 25.396 166.704 25.912 166.704 26.656C166.704 27.376 166.632 28.348 166.488 29.572C165.864 29.572 165.396 29.524 165.084 29.428C165.108 29.164 165.12 28.924 165.12 28.708C165.12 27.076 164.232 26.26 162.456 26.26C161.736 26.26 161.136 26.452 160.656 26.836C160.2 27.22 159.972 27.724 159.972 28.348C159.972 28.972 160.236 29.512 160.764 29.968C161.316 30.4 161.976 30.796 162.744 31.156C163.536 31.492 164.316 31.876 165.084 32.308C165.876 32.716 166.536 33.28 167.064 34C167.616 34.72 167.892 35.56 167.892 36.52C167.892 38.08 167.22 39.352 165.876 40.336C164.532 41.296 162.864 41.776 160.872 41.776C158.88 41.776 157.092 41.536 155.508 41.056C155.46 40.504 155.436 39.832 155.436 39.04C155.436 38.224 155.52 37.288 155.688 36.232C155.736 36.232 156.228 36.268 157.164 36.34C157.164 36.484 157.164 36.736 157.164 37.096C157.164 37.432 157.248 37.816 157.416 38.248C157.608 38.68 157.908 38.992 158.316 39.184C158.964 39.52 159.732 39.688 160.62 39.688ZM176.637 41.74C175.269 41.74 174.165 41.332 173.325 40.516C172.485 39.676 172.065 38.44 172.065 36.808V27.196C171.393 27.1 170.625 27.052 169.761 27.052C169.761 26.548 169.785 26.08 169.833 25.648C170.433 25.408 171.165 25.18 172.029 24.964L175.593 19.744L176.493 19.996V24.928C178.173 24.88 179.697 24.772 181.065 24.604C181.065 25.516 180.957 26.332 180.741 27.052H176.493L176.529 36.592C176.529 38.008 177.081 38.716 178.185 38.716C179.097 38.716 180.021 38.356 180.957 37.636L181.713 38.608C180.249 40.696 178.557 41.74 176.637 41.74Z" fill="black"/>
<path d="M16.0604 26C13.1354 26.0967 10.7431 27.3348 8.88333 29.7143H5.25417C3.77361 29.7143 2.52778 29.3225 1.51667 28.5391C0.505556 27.7556 0 26.6094 0 25.1004C0 18.2716 1.11944 14.8571 3.35833 14.8571C3.46667 14.8571 3.85938 15.0603 4.53646 15.4665C5.21354 15.8728 6.09375 16.2839 7.17708 16.6998C8.26042 17.1157 9.33472 17.3237 10.4 17.3237C11.6097 17.3237 12.8104 17.1012 14.0021 16.6562C13.9118 17.372 13.8667 18.0104 13.8667 18.5714C13.8667 21.2604 14.5979 23.7366 16.0604 26ZM45.0667 44.4844C45.0667 46.8058 44.4076 48.6388 43.0896 49.9833C41.7715 51.3278 40.0201 52 37.8354 52H14.1646C11.9799 52 10.2285 51.3278 8.91042 49.9833C7.59236 48.6388 6.93333 46.8058 6.93333 44.4844C6.93333 43.4591 6.96493 42.458 7.02813 41.481C7.09132 40.5041 7.21771 39.4498 7.40729 38.3181C7.59688 37.1864 7.83611 36.1369 8.125 35.1696C8.41389 34.2024 8.80208 33.2593 9.28958 32.3404C9.77708 31.4215 10.3368 30.638 10.9688 29.99C11.6007 29.3419 12.3726 28.8244 13.2844 28.4375C14.1962 28.0506 15.2028 27.8571 16.3042 27.8571C16.4847 27.8571 16.8729 28.0651 17.4688 28.481C18.0646 28.8969 18.7236 29.3612 19.4458 29.8739C20.1681 30.3865 21.134 30.8508 22.3438 31.2667C23.5535 31.6827 24.7722 31.8906 26 31.8906C27.2278 31.8906 28.4465 31.6827 29.6563 31.2667C30.866 30.8508 31.8319 30.3865 32.5542 29.8739C33.2764 29.3612 33.9354 28.8969 34.5313 28.481C35.1271 28.0651 35.5153 27.8571 35.6958 27.8571C36.7972 27.8571 37.8038 28.0506 38.7156 28.4375C39.6274 28.8244 40.3993 29.3419 41.0313 29.99C41.6632 30.638 42.2229 31.4215 42.7104 32.3404C43.1979 33.2593 43.5861 34.2024 43.875 35.1696C44.1639 36.1369 44.4031 37.1864 44.5927 38.3181C44.7823 39.4498 44.9087 40.5041 44.9719 41.481C45.0351 42.458 45.0667 43.4591 45.0667 44.4844ZM17.3333 7.42857C17.3333 9.47917 16.6563 11.2299 15.3021 12.6808C13.9479 14.1317 12.3139 14.8571 10.4 14.8571C8.48611 14.8571 6.85208 14.1317 5.49792 12.6808C4.14375 11.2299 3.46667 9.47917 3.46667 7.42857C3.46667 5.37798 4.14375 3.62723 5.49792 2.17634C6.85208 0.725446 8.48611 0 10.4 0C12.3139 0 13.9479 0.725446 15.3021 2.17634C16.6563 3.62723 17.3333 5.37798 17.3333 7.42857ZM36.4 18.5714C36.4 21.6473 35.3844 24.2734 33.3531 26.4498C31.3219 28.6261 28.8708 29.7143 26 29.7143C23.1292 29.7143 20.6781 28.6261 18.6469 26.4498C16.6156 24.2734 15.6 21.6473 15.6 18.5714C15.6 15.4955 16.6156 12.8694 18.6469 10.6931C20.6781 8.51674 23.1292 7.42857 26 7.42857C28.8708 7.42857 31.3219 8.51674 33.3531 10.6931C35.3844 12.8694 36.4 15.4955 36.4 18.5714ZM52 25.1004C52 26.6094 51.4944 27.7556 50.4833 28.5391C49.4722 29.3225 48.2264 29.7143 46.7458 29.7143H43.1167C41.2569 27.3348 38.8646 26.0967 35.9396 26C37.4021 23.7366 38.1333 21.2604 38.1333 18.5714C38.1333 18.0104 38.0882 17.372 37.9979 16.6562C39.1896 17.1012 40.3903 17.3237 41.6 17.3237C42.6653 17.3237 43.7396 17.1157 44.8229 16.6998C45.9063 16.2839 46.7865 15.8728 47.4635 15.4665C48.1406 15.0603 48.5333 14.8571 48.6417 14.8571C50.8806 14.8571 52 18.2716 52 25.1004ZM48.5333 7.42857C48.5333 9.47917 47.8563 11.2299 46.5021 12.6808C45.1479 14.1317 43.5139 14.8571 41.6 14.8571C39.6861 14.8571 38.0521 14.1317 36.6979 12.6808C35.3438 11.2299 34.6667 9.47917 34.6667 7.42857C34.6667 5.37798 35.3438 3.62723 36.6979 2.17634C38.0521 0.725446 39.6861 0 41.6 0C43.5139 0 45.1479 0.725446 46.5021 2.17634C47.8563 3.62723 48.5333 5.37798 48.5333 7.42857Z" fill="black"/>
</svg>
