<svg width="43" height="60" viewBox="0 0 43 60" fill="none" xmlns="http://www.w3.org/2000/svg">
<path d="M34.0451 14.3333C34.0451 17.6043 32.7225 20.7414 30.3682 23.0543C28.014 25.3673 24.8209 26.6667 21.4915 26.6667C18.1621 26.6667 14.969 25.3673 12.6148 23.0543C10.2605 20.7414 8.93792 17.6043 8.93792 14.3333C8.93792 11.0623 10.2605 7.9253 12.6148 5.61235C14.969 3.2994 18.1621 2 21.4915 2C24.8209 2 28.014 3.2994 30.3682 5.61235C32.7225 7.9253 34.0451 11.0623 34.0451 14.3333ZM2.66113 54.4167C2.66113 49.5102 4.64504 44.8046 8.17642 41.3352C11.7078 37.8658 16.4974 35.9167 21.4915 35.9167C26.4856 35.9167 31.2752 37.8658 34.8066 41.3352C38.3379 44.8046 40.3218 49.5102 40.3218 54.4167V57.5H2.66113V54.4167Z" stroke="black" stroke-width="4" stroke-linecap="round" stroke-linejoin="round"/>
</svg>
