<svg width="224" height="141" viewBox="0 0 224 141" fill="none" xmlns="http://www.w3.org/2000/svg">
<path d="M2 16C2 8.26802 8.26801 2 16 2H208C215.732 2 222 8.26801 222 16V125C222 132.732 215.732 139 208 139H16C8.26802 139 2 132.732 2 125V16Z" stroke="url(#paint0_linear_628_3553)" stroke-width="4"/>
<mask id="mask0_628_3553" style="mask-type:alpha" maskUnits="userSpaceOnUse" x="0" y="0" width="224" height="141">
<path d="M0 16C0 7.16345 7.16344 0 16 0H208C216.837 0 224 7.16344 224 16V125C224 133.837 216.837 141 208 141H16C7.16345 141 0 133.837 0 125V16Z" fill="#D9D9D9"/>
</mask>
<g mask="url(#mask0_628_3553)">
<g filter="url(#filter0_f_628_3553)">
<path d="M0 16C0 7.16345 7.16344 0 16 0H111.704V141H16C7.16345 141 0 133.837 0 125V16Z" fill="#298DFF" fill-opacity="0.5"/>
<path d="M224.594 16C224.594 7.16345 217.43 0 208.594 0H92.4456V141H208.594C217.43 141 224.594 133.837 224.594 125V16Z" fill="#4F28E9" fill-opacity="0.5"/>
</g>
</g>
<path d="M91.25 49.4375H106.438V54.5H91.25V49.4375ZM91.25 29.1875H121.625V34.25H91.25V29.1875ZM91.25 39.3125H121.625V44.375H91.25V39.3125ZM91.25 74.75H106.438V79.8125H91.25V74.75ZM139.344 77.2812H124.156C122.142 77.2812 120.211 78.0813 118.787 79.5054C117.363 80.9295 116.562 82.861 116.562 84.875V89.9375H121.625V84.875C121.625 84.2037 121.892 83.5598 122.366 83.0851C122.841 82.6104 123.485 82.3438 124.156 82.3438H139.344C140.015 82.3438 140.659 82.6104 141.134 83.0851C141.608 83.5598 141.875 84.2037 141.875 84.875V89.9375H146.938V84.875C146.938 82.861 146.137 80.9295 144.713 79.5054C143.289 78.0813 141.358 77.2812 139.344 77.2812ZM131.75 74.75C133.753 74.75 135.71 74.1562 137.375 73.0436C139.04 71.9311 140.338 70.3498 141.104 68.4997C141.871 66.6496 142.071 64.6138 141.68 62.6497C141.29 60.6857 140.325 58.8816 138.909 57.4655C137.493 56.0495 135.689 55.0852 133.725 54.6945C131.761 54.3039 129.725 54.5044 127.875 55.2707C126.025 56.0371 124.444 57.3348 123.331 58.9999C122.219 60.6649 121.625 62.6225 121.625 64.625C121.625 67.3103 122.692 69.8856 124.591 71.7845C126.489 73.6833 129.065 74.75 131.75 74.75ZM131.75 59.5625C132.751 59.5625 133.73 59.8594 134.563 60.4157C135.395 60.972 136.044 61.7626 136.427 62.6877C136.81 63.6127 136.911 64.6306 136.715 65.6126C136.52 66.5947 136.038 67.4967 135.33 68.2047C134.622 68.9127 133.72 69.3949 132.738 69.5902C131.756 69.7856 130.738 69.6853 129.813 69.3021C128.888 68.919 128.097 68.2701 127.541 67.4376C126.984 66.6051 126.688 65.6263 126.688 64.625C126.688 63.2823 127.221 61.9947 128.17 61.0453C129.12 60.0959 130.407 59.5625 131.75 59.5625Z" fill="black"/>
<path d="M106.438 89.9375H86.1875C84.8448 89.9375 83.5572 89.4041 82.6078 88.4547C81.6584 87.5053 81.125 86.2177 81.125 84.875V24.125C81.125 22.7823 81.6584 21.4947 82.6078 20.5453C83.5572 19.5959 84.8448 19.0625 86.1875 19.0625H126.688C128.03 19.0625 129.318 19.5959 130.267 20.5453C131.217 21.4947 131.75 22.7823 131.75 24.125V49.4375H126.688V24.125H86.1875V84.875H106.438V89.9375Z" fill="black"/>
<path opacity="0.8" d="M40.623 111.568C39.2577 111.568 38.2443 111.984 37.583 112.816C36.9217 113.627 36.591 115.035 36.591 117.04C36.591 120.624 37.7217 122.416 39.983 122.416C40.8577 122.416 41.6363 122.181 42.319 121.712V111.728C41.743 111.621 41.1777 111.568 40.623 111.568ZM48.815 123.088C47.791 124.304 46.6497 124.912 45.391 124.912C44.1323 124.912 43.2043 124.389 42.607 123.344C41.391 124.368 40.0043 124.88 38.447 124.88C36.911 124.88 35.5137 124.24 34.255 122.96C33.0177 121.68 32.399 119.824 32.399 117.392C32.399 114.96 33.2523 113.029 34.959 111.6C36.6657 110.149 38.8417 109.424 41.487 109.424C41.8497 109.424 42.127 109.435 42.319 109.456V104.176C42.1057 104.155 41.8177 104.144 41.455 104.144C41.0923 104.144 40.655 104.155 40.143 104.176C40.1857 103.515 40.2603 103.035 40.367 102.736C42.223 102.075 44.1963 101.669 46.287 101.52V120.816C46.287 121.904 46.607 122.448 47.247 122.448C47.3963 122.448 47.791 122.384 48.431 122.256L48.815 123.088ZM58.041 111.376C57.337 111.376 56.6863 111.685 56.089 112.304C55.513 112.923 55.129 113.893 54.937 115.216L57.913 114.992L60.185 114.928C60.121 112.56 59.4063 111.376 58.041 111.376ZM54.809 116.656V116.976C54.809 120.603 56.185 122.416 58.937 122.416C60.3877 122.416 61.913 122.032 63.513 121.264L64.057 122.192C62.3077 124.005 60.217 124.912 57.785 124.912C56.6757 124.912 55.5877 124.667 54.521 124.176C53.4757 123.664 52.5583 122.821 51.769 121.648C51.001 120.475 50.617 119.088 50.617 117.488C50.617 115.013 51.385 113.051 52.921 111.6C54.4783 110.149 56.3023 109.424 58.393 109.424C60.0143 109.424 61.3797 109.925 62.489 110.928C63.6197 111.931 64.185 113.499 64.185 115.632C64.057 116.016 63.8863 116.357 63.673 116.656H54.809ZM71.2973 123.056C72.0866 123.056 72.7159 122.875 73.1853 122.512C73.6546 122.149 73.8893 121.701 73.8893 121.168C73.8893 120.635 73.6546 120.165 73.1853 119.76C72.7159 119.333 72.1506 118.949 71.4893 118.608C70.8279 118.267 70.1666 117.904 69.5052 117.52C68.8439 117.136 68.2786 116.635 67.8093 116.016C67.3399 115.376 67.1053 114.64 67.1053 113.808C67.1053 112.357 67.6173 111.269 68.6413 110.544C69.6866 109.797 70.9559 109.424 72.4493 109.424C73.9426 109.424 75.3613 109.648 76.7053 110.096C76.7053 110.352 76.7053 110.811 76.7053 111.472C76.7053 112.112 76.6413 112.976 76.5133 114.064C75.9586 114.064 75.5426 114.021 75.2653 113.936C75.2866 113.701 75.2973 113.488 75.2973 113.296C75.2973 111.845 74.5079 111.12 72.9293 111.12C72.2893 111.12 71.7559 111.291 71.3293 111.632C70.9239 111.973 70.7213 112.421 70.7213 112.976C70.7213 113.531 70.9559 114.011 71.4253 114.416C71.9159 114.8 72.5026 115.152 73.1853 115.472C73.8893 115.771 74.5826 116.112 75.2653 116.496C75.9693 116.859 76.5559 117.36 77.0253 118C77.5159 118.64 77.7613 119.387 77.7613 120.24C77.7613 121.627 77.1639 122.757 75.9693 123.632C74.7746 124.485 73.2919 124.912 71.5213 124.912C69.7506 124.912 68.1613 124.699 66.7533 124.272C66.7106 123.781 66.6893 123.184 66.6893 122.48C66.6893 121.755 66.7639 120.923 66.9133 119.984C66.9559 119.984 67.3933 120.016 68.2253 120.08C68.2253 120.208 68.2253 120.432 68.2253 120.752C68.2253 121.051 68.2999 121.392 68.4493 121.776C68.6199 122.16 68.8866 122.437 69.2493 122.608C69.8253 122.907 70.5079 123.056 71.2973 123.056ZM86.5588 124.912C84.7454 124.912 83.1454 124.261 81.7588 122.96C80.3934 121.637 79.7108 119.792 79.7108 117.424C79.7108 115.035 80.4788 113.104 82.0148 111.632C83.5508 110.16 85.4494 109.424 87.7108 109.424C89.1828 109.424 90.6014 109.765 91.9668 110.448C91.9454 111.728 91.7961 113.125 91.5188 114.64C91.2841 114.64 90.9534 114.597 90.5268 114.512C90.4628 113.552 90.1534 112.795 89.5988 112.24C89.0654 111.685 88.3934 111.408 87.5828 111.408C86.4734 111.408 85.5774 111.877 84.8948 112.816C84.2334 113.755 83.9028 115.163 83.9028 117.04C83.9028 118.896 84.2441 120.272 84.9268 121.168C85.6308 122.043 86.5801 122.48 87.7748 122.48C88.9908 122.48 90.3774 122.117 91.9348 121.392L92.5428 122.288C90.7934 124.037 88.7988 124.912 86.5588 124.912ZM96.165 121.232V112.272C95.8237 112.229 95.461 112.208 95.077 112.208C94.7143 112.208 94.3517 112.219 93.989 112.24C94.0317 111.6 94.1063 111.131 94.213 110.832C95.9837 110.192 97.829 109.776 99.749 109.584C99.9623 110.907 100.09 112.368 100.133 113.968C100.666 112.624 101.424 111.536 102.405 110.704C103.408 109.851 104.517 109.424 105.733 109.424C105.84 109.808 105.893 110.299 105.893 110.896C105.893 111.472 105.786 112.219 105.573 113.136C102.33 113.136 100.517 114.373 100.133 116.848V122.416C101.029 122.757 102.021 122.96 103.109 123.024C103.109 123.131 103.109 123.312 103.109 123.568C103.109 123.803 103.066 124.112 102.981 124.496H93.989C93.9677 124.347 93.957 124.144 93.957 123.888C93.957 123.611 94.0103 123.323 94.117 123.024C94.821 122.917 95.333 122.747 95.653 122.512C95.9943 122.256 96.165 121.829 96.165 121.232ZM112.376 107.024C111.906 107.493 111.341 107.728 110.68 107.728C110.018 107.728 109.453 107.493 108.984 107.024C108.514 106.555 108.28 105.989 108.28 105.328C108.28 104.667 108.514 104.101 108.984 103.632C109.453 103.163 110.018 102.928 110.68 102.928C111.362 102.928 111.928 103.163 112.376 103.632C112.845 104.08 113.08 104.645 113.08 105.328C113.08 105.989 112.845 106.555 112.376 107.024ZM114.616 123.024C114.616 123.109 114.616 123.259 114.616 123.472C114.616 123.685 114.584 124.027 114.52 124.496H106.552C106.53 124.347 106.52 124.144 106.52 123.888C106.52 123.611 106.573 123.323 106.68 123.024C107.384 122.917 107.896 122.747 108.216 122.512C108.557 122.256 108.728 121.84 108.728 121.264V112.272C108.386 112.229 108.024 112.208 107.64 112.208C107.277 112.208 106.914 112.219 106.552 112.24C106.594 111.621 106.669 111.131 106.776 110.768C108.632 110.149 110.605 109.755 112.696 109.584V122.608C113.229 122.843 113.869 122.981 114.616 123.024ZM122.693 122.512C123.354 122.811 124.154 122.96 125.093 122.96C126.031 122.96 126.863 122.459 127.589 121.456C128.335 120.453 128.709 118.981 128.709 117.04C128.709 115.077 128.399 113.701 127.781 112.912C127.183 112.101 126.501 111.696 125.733 111.696C124.986 111.696 124.335 111.973 123.781 112.528C123.247 113.083 122.885 113.84 122.693 114.8V122.512ZM118.725 128.72V112.272C118.383 112.229 118.021 112.208 117.637 112.208C117.253 112.208 116.89 112.219 116.549 112.24C116.591 111.685 116.677 111.216 116.805 110.832C118.554 110.192 120.357 109.776 122.213 109.584C122.405 110.459 122.533 111.301 122.597 112.112C123.45 110.32 124.783 109.424 126.597 109.424C128.41 109.424 129.925 110.096 131.141 111.44C132.357 112.763 132.965 114.619 132.965 117.008C132.965 119.376 132.133 121.285 130.469 122.736C128.826 124.165 126.863 124.88 124.581 124.88C123.919 124.88 123.29 124.784 122.693 124.592V129.776C123.589 130.203 124.559 130.437 125.605 130.48C125.626 130.629 125.637 130.832 125.637 131.088C125.637 131.344 125.594 131.643 125.509 131.984H116.517C116.517 131.856 116.517 131.653 116.517 131.376C116.517 131.099 116.57 130.8 116.677 130.48C117.381 130.373 117.893 130.192 118.213 129.936C118.554 129.701 118.725 129.296 118.725 128.72ZM140.816 124.88C139.6 124.88 138.619 124.517 137.872 123.792C137.125 123.045 136.752 121.947 136.752 120.496V111.952C136.155 111.867 135.472 111.824 134.704 111.824C134.704 111.376 134.725 110.96 134.768 110.576C135.301 110.363 135.952 110.16 136.72 109.968L139.888 105.328L140.688 105.552V109.936C142.181 109.893 143.536 109.797 144.752 109.648C144.752 110.459 144.656 111.184 144.464 111.824H140.688L140.72 120.304C140.72 121.563 141.211 122.192 142.192 122.192C143.003 122.192 143.824 121.872 144.656 121.232L145.328 122.096C144.027 123.952 142.523 124.88 140.816 124.88ZM152.626 107.024C152.156 107.493 151.591 107.728 150.93 107.728C150.268 107.728 149.703 107.493 149.234 107.024C148.764 106.555 148.53 105.989 148.53 105.328C148.53 104.667 148.764 104.101 149.234 103.632C149.703 103.163 150.268 102.928 150.93 102.928C151.612 102.928 152.178 103.163 152.626 103.632C153.095 104.08 153.33 104.645 153.33 105.328C153.33 105.989 153.095 106.555 152.626 107.024ZM154.866 123.024C154.866 123.109 154.866 123.259 154.866 123.472C154.866 123.685 154.834 124.027 154.77 124.496H146.802C146.78 124.347 146.77 124.144 146.77 123.888C146.77 123.611 146.823 123.323 146.93 123.024C147.634 122.917 148.146 122.747 148.466 122.512C148.807 122.256 148.978 121.84 148.978 121.264V112.272C148.636 112.229 148.274 112.208 147.89 112.208C147.527 112.208 147.164 112.219 146.802 112.24C146.844 111.621 146.919 111.131 147.026 110.768C148.882 110.149 150.855 109.755 152.946 109.584V122.608C153.479 122.843 154.119 122.981 154.866 123.024ZM167.967 117.68C167.967 113.392 166.804 111.248 164.479 111.248C162.324 111.248 161.247 113.051 161.247 116.656C161.247 116.827 161.247 116.997 161.247 117.168C161.417 121.051 162.601 122.992 164.799 122.992C166.911 122.992 167.967 121.221 167.967 117.68ZM164.639 109.424C166.9 109.424 168.724 110.096 170.111 111.44C171.497 112.784 172.191 114.683 172.191 117.136C172.191 119.589 171.487 121.499 170.079 122.864C168.671 124.208 166.836 124.88 164.575 124.88C162.313 124.88 160.489 124.208 159.103 122.864C157.737 121.52 157.055 119.621 157.055 117.168C157.055 114.715 157.759 112.816 159.167 111.472C160.575 110.107 162.399 109.424 164.639 109.424ZM189.86 114.384V122.608C190.777 122.864 191.502 123.003 192.036 123.024C192.057 123.131 192.068 123.312 192.068 123.568C192.068 123.803 192.014 124.112 191.908 124.496H184.036C184.014 124.347 184.004 124.144 184.004 123.888C184.004 123.611 184.057 123.323 184.164 123.024C184.804 122.917 185.252 122.747 185.508 122.512C185.764 122.277 185.892 121.861 185.892 121.264V114.832C185.892 113.915 185.678 113.232 185.252 112.784C184.846 112.315 184.281 112.08 183.556 112.08C182.084 112.08 180.964 113.072 180.196 115.056V122.608C180.729 122.843 181.369 122.981 182.116 123.024C182.116 123.109 182.116 123.259 182.116 123.472C182.116 123.685 182.084 124.027 182.02 124.496H174.052C174.03 124.347 174.02 124.144 174.02 123.888C174.02 123.611 174.073 123.323 174.18 123.024C174.884 122.917 175.396 122.747 175.716 122.512C176.057 122.256 176.228 121.84 176.228 121.264V112.272C175.886 112.229 175.524 112.208 175.14 112.208C174.777 112.208 174.414 112.219 174.052 112.24C174.094 111.6 174.169 111.131 174.276 110.832C176.046 110.192 177.892 109.776 179.812 109.584C179.982 110.459 180.1 111.451 180.164 112.56C181.23 110.469 182.894 109.424 185.156 109.424C186.542 109.424 187.673 109.861 188.548 110.736C189.422 111.589 189.86 112.805 189.86 114.384Z" fill="black"/>
<defs>
<filter id="filter0_f_628_3553" x="-100" y="-100" width="424.594" height="341" filterUnits="userSpaceOnUse" color-interpolation-filters="sRGB">
<feFlood flood-opacity="0" result="BackgroundImageFix"/>
<feBlend mode="normal" in="SourceGraphic" in2="BackgroundImageFix" result="shape"/>
<feGaussianBlur stdDeviation="50" result="effect1_foregroundBlur_628_3553"/>
</filter>
<linearGradient id="paint0_linear_628_3553" x1="221.185" y1="1.73836" x2="-16.4167" y2="89.2887" gradientUnits="userSpaceOnUse">
<stop stop-color="#5757EC"/>
<stop offset="1" stop-color="#FFFCFC" stop-opacity="0.5"/>
</linearGradient>
</defs>
</svg>
