<svg width="51" height="51" viewBox="0 0 51 51" fill="none" xmlns="http://www.w3.org/2000/svg">
<path d="M16.4699 9.78455C16.3112 9.94321 16.1908 10.1345 16.0902 10.3441L16.0789 10.3328L0.190047 46.1251L0.205629 46.1407C-0.0890278 46.7116 0.403956 47.8732 1.41401 48.8847C2.42406 49.8948 3.58569 50.3877 4.15659 50.0931L4.17075 50.1073L39.9631 34.217L39.9518 34.2043C40.16 34.1051 40.3513 33.9847 40.5113 33.8232C42.7241 31.6104 39.1358 24.4352 32.4989 17.797C25.8592 11.1587 18.684 7.57178 16.4699 9.78455Z" fill="#DD2E44"/>
<path d="M18.4163 16.1763L0.589534 45.2255L0.190047 46.1251L0.205629 46.1406C-0.0890278 46.7115 0.403956 47.8732 1.41401 48.8846C1.74266 49.2133 2.08407 49.4626 2.41839 49.6737L24.0828 23.2594L18.4163 16.1763Z" fill="#EA596E"/>
<path d="M32.5998 17.6865C39.2154 24.305 42.8887 31.3598 40.8006 33.445C38.7139 35.5331 31.6591 31.8612 25.0392 25.2456C18.4222 18.6272 14.7503 11.5696 16.837 9.48287C18.9251 7.39619 25.9799 11.0681 32.5998 17.6865Z" fill="#A0041E"/>
<path d="M26.3354 18.4557C26.0535 18.6838 25.6852 18.8028 25.2956 18.7603C24.066 18.6272 23.0319 18.1993 22.308 17.5236C21.5416 16.8082 21.1634 15.8477 21.2668 14.8859C21.4481 13.1972 23.1424 11.6475 26.0309 11.9591C27.1542 12.0795 27.6557 11.7183 27.6727 11.5455C27.6926 11.374 27.2803 10.9136 26.1569 10.7918C24.9273 10.6587 23.8932 10.2308 23.1679 9.55511C22.4015 8.83971 22.0218 7.87924 22.1267 6.91736C22.3108 5.22875 24.0037 3.67896 26.8893 3.99203C27.7081 4.07987 28.1402 3.91129 28.323 3.80221C28.4689 3.71296 28.527 3.62796 28.5326 3.57838C28.5496 3.40697 28.143 2.94657 27.0168 2.82474C26.2391 2.73974 25.6753 2.04276 25.7617 1.26362C25.8453 0.485897 26.5409 -0.0765013 27.3214 0.00849596C30.2071 0.318736 31.533 2.19293 31.3503 3.88296C31.1661 5.5744 29.4733 7.12135 26.5848 6.81111C25.766 6.72186 25.3381 6.89186 25.154 7.00094C25.0081 7.08877 24.9486 7.17518 24.9429 7.22335C24.9245 7.39618 25.3339 7.85516 26.4601 7.97699C29.3458 8.28865 30.6717 10.1614 30.489 11.8514C30.3062 13.5401 28.6134 15.0898 25.7263 14.7768C24.9075 14.6889 24.4768 14.8589 24.2927 14.9666C24.1453 15.0573 24.0887 15.1423 24.083 15.1904C24.0646 15.3618 24.474 15.8222 25.5988 15.9441C26.3751 16.0291 26.9403 16.7275 26.8539 17.5052C26.8143 17.8933 26.6173 18.2291 26.3354 18.4557Z" fill="#AA8DD8"/>
<path d="M43.4347 31.5565C46.2297 30.7675 48.1577 32.0141 48.6167 33.6503C49.0757 35.2851 48.0812 37.3548 45.2876 38.141C44.1968 38.447 43.8696 38.9683 43.9135 39.134C43.9617 39.3012 44.5156 39.576 45.6035 39.2686C48.3971 38.4824 50.3251 39.729 50.7841 41.3638C51.2459 43 50.2486 45.0668 47.4536 45.8545C46.3643 46.1605 46.0356 46.6832 46.0838 46.849C46.1305 47.0147 46.683 47.2895 47.7724 46.9835C48.5232 46.7725 49.308 47.2102 49.5191 47.9624C49.7287 48.7161 49.291 49.498 48.5374 49.7105C45.7452 50.4968 43.8158 49.253 43.3539 47.6153C42.895 45.9806 43.8908 43.9137 46.6873 43.1261C47.778 42.8187 48.1053 42.2988 48.0571 42.1316C48.0118 41.9659 47.4593 41.6896 46.3713 41.9956C43.5749 42.7832 41.6483 41.5395 41.1879 39.9004C40.7275 38.2656 41.7234 36.1988 44.5184 35.4097C45.6064 35.1052 45.9336 34.581 45.8883 34.4167C45.8401 34.2495 45.289 33.9747 44.1997 34.2807C43.446 34.4932 42.6655 34.054 42.453 33.3018C42.2419 32.551 42.681 31.769 43.4347 31.5565Z" fill="#77B255"/>
<path d="M32.5838 27.736C32.1673 27.736 31.7565 27.5533 31.476 27.2048C30.9873 26.5928 31.0879 25.7018 31.697 25.213C32.0058 24.9651 39.3723 19.1796 49.783 20.6685C50.5579 20.779 51.0962 21.4958 50.9857 22.2707C50.8752 23.0442 50.1641 23.5882 49.3821 23.472C40.184 22.1659 33.5344 27.3734 33.4692 27.4258C33.2057 27.6355 32.8941 27.736 32.5838 27.736Z" fill="#AA8DD8"/>
<path d="M8.15161 21.8429C8.01704 21.8429 7.87962 21.823 7.74363 21.7834C6.99424 21.5581 6.56925 20.7691 6.79449 20.0197C8.39952 14.6748 9.85439 6.14529 8.06662 3.9212C7.86687 3.66904 7.56513 3.42113 6.87382 3.47354C5.54503 3.57554 5.67111 6.37903 5.67253 6.40737C5.73203 7.18793 5.14554 7.8679 4.3664 7.92599C3.57451 7.97415 2.90587 7.399 2.84778 6.61844C2.70187 4.66492 3.3096 0.902377 6.66133 0.648802C8.15728 0.535472 9.39966 1.05537 10.2765 2.14617C13.6354 6.32662 10.2255 18.4458 9.50874 20.8342C9.32458 21.4476 8.76076 21.8429 8.15161 21.8429Z" fill="#77B255"/>
<path d="M36.124 14.7598C37.2975 14.7598 38.2489 13.8084 38.2489 12.6348C38.2489 11.4613 37.2975 10.5099 36.124 10.5099C34.9504 10.5099 33.999 11.4613 33.999 12.6348C33.999 13.8084 34.9504 14.7598 36.124 14.7598Z" fill="#5C913B"/>
<path d="M2.83324 27.5093C4.398 27.5093 5.66649 26.2408 5.66649 24.676C5.66649 23.1113 4.398 21.8428 2.83324 21.8428C1.26849 21.8428 0 23.1113 0 24.676C0 26.2408 1.26849 27.5093 2.83324 27.5093Z" fill="#9266CC"/>
<path d="M46.04 28.9259C47.2135 28.9259 48.1649 27.9745 48.1649 26.801C48.1649 25.6274 47.2135 24.676 46.04 24.676C44.8664 24.676 43.915 25.6274 43.915 26.801C43.915 27.9745 44.8664 28.9259 46.04 28.9259Z" fill="#5C913B"/>
<path d="M33.2909 45.9254C34.4645 45.9254 35.4159 44.974 35.4159 43.8005C35.4159 42.6269 34.4645 41.6755 33.2909 41.6755C32.1174 41.6755 31.166 42.6269 31.166 43.8005C31.166 44.974 32.1174 45.9254 33.2909 45.9254Z" fill="#5C913B"/>
<path d="M39.6653 7.67662C41.23 7.67662 42.4985 6.40813 42.4985 4.84337C42.4985 3.27862 41.23 2.01013 39.6653 2.01013C38.1005 2.01013 36.832 3.27862 36.832 4.84337C36.832 6.40813 38.1005 7.67662 39.6653 7.67662Z" fill="#FFCC4D"/>
<path d="M46.04 13.3431C47.2135 13.3431 48.1649 12.3918 48.1649 11.2182C48.1649 10.0446 47.2135 9.09326 46.04 9.09326C44.8664 9.09326 43.915 10.0446 43.915 11.2182C43.915 12.3918 44.8664 13.3431 46.04 13.3431Z" fill="#FFCC4D"/>
<path d="M41.79 19.0095C42.9635 19.0095 43.9149 18.0581 43.9149 16.8846C43.9149 15.711 42.9635 14.7596 41.79 14.7596C40.6164 14.7596 39.665 15.711 39.665 16.8846C39.665 18.0581 40.6164 19.0095 41.79 19.0095Z" fill="#FFCC4D"/>
<path d="M10.6249 34.5924C11.7985 34.5924 12.7499 33.641 12.7499 32.4675C12.7499 31.2939 11.7985 30.3425 10.6249 30.3425C9.45136 30.3425 8.5 31.2939 8.5 32.4675C8.5 33.641 9.45136 34.5924 10.6249 34.5924Z" fill="#FFCC4D"/>
</svg>
