<svg width="162" height="55" viewBox="0 0 162 55" fill="none" xmlns="http://www.w3.org/2000/svg">
<path d="M83.212 24.084V41.22C83.908 41.508 84.736 41.652 85.696 41.652C85.696 42.3 85.66 42.852 85.588 43.308H76.192C76.192 42.54 76.24 41.988 76.336 41.652C77.128 41.532 77.704 41.34 78.064 41.076C78.424 40.812 78.604 40.344 78.604 39.672V33.048H69.424V41.22C70.12 41.508 70.948 41.652 71.908 41.652C71.908 41.748 71.908 41.916 71.908 42.156C71.908 42.396 71.872 42.78 71.8 43.308H62.44C62.44 43.164 62.44 42.948 62.44 42.66C62.44 42.348 62.5 42.012 62.62 41.652C63.412 41.532 63.988 41.34 64.348 41.076C64.708 40.812 64.888 40.344 64.888 39.672V22.572C64.192 22.26 63.34 22.104 62.332 22.104C62.332 21.384 62.392 20.832 62.512 20.448H71.836C71.86 20.616 71.872 20.856 71.872 21.168C71.872 21.456 71.812 21.768 71.692 22.104C70.924 22.2 70.348 22.392 69.964 22.68C69.604 22.944 69.424 23.412 69.424 24.084V30.816H78.604V22.536C77.908 22.248 77.08 22.104 76.12 22.104C76.12 21.96 76.12 21.756 76.12 21.492C76.12 21.228 76.168 20.88 76.264 20.448H85.624C85.624 20.616 85.624 20.856 85.624 21.168C85.624 21.456 85.576 21.768 85.48 22.104C84.688 22.2 84.112 22.392 83.752 22.68C83.392 22.944 83.212 23.412 83.212 24.084ZM100.408 35.64C100.408 30.816 99.0996 28.404 96.4836 28.404C94.0596 28.404 92.8476 30.432 92.8476 34.488C92.8476 34.68 92.8476 34.872 92.8476 35.064C93.0396 39.432 94.3716 41.616 96.8436 41.616C99.2196 41.616 100.408 39.624 100.408 35.64ZM96.6636 26.352C99.2076 26.352 101.26 27.108 102.82 28.62C104.38 30.132 105.16 32.268 105.16 35.028C105.16 37.788 104.368 39.936 102.784 41.472C101.2 42.984 99.1356 43.74 96.5916 43.74C94.0476 43.74 91.9956 42.984 90.4356 41.472C88.8996 39.96 88.1316 37.824 88.1316 35.064C88.1316 32.304 88.9236 30.168 90.5076 28.656C92.0916 27.12 94.1436 26.352 96.6636 26.352ZM135.945 31.932V41.184C136.953 41.472 137.757 41.628 138.357 41.652C138.381 41.772 138.393 41.976 138.393 42.264C138.393 42.528 138.333 42.876 138.213 43.308H129.393C129.369 43.14 129.357 42.924 129.357 42.66C129.357 42.396 129.405 42.06 129.501 41.652C130.221 41.532 130.725 41.34 131.013 41.076C131.325 40.812 131.481 40.344 131.481 39.672V32.436C131.481 31.404 131.241 30.636 130.761 30.132C130.305 29.604 129.669 29.34 128.853 29.34C127.173 29.34 125.901 30.492 125.037 32.796V41.184C125.637 41.448 126.369 41.604 127.233 41.652C127.233 41.772 127.233 41.976 127.233 42.264C127.233 42.528 127.185 42.876 127.089 43.308H118.485C118.461 43.14 118.449 42.912 118.449 42.624C118.449 42.312 118.509 41.988 118.629 41.652C119.349 41.532 119.853 41.34 120.141 41.076C120.429 40.812 120.573 40.344 120.573 39.672V32.436C120.573 31.404 120.333 30.636 119.853 30.132C119.397 29.604 118.761 29.34 117.945 29.34C116.289 29.34 115.029 30.456 114.165 32.688V41.184C114.765 41.448 115.485 41.604 116.325 41.652C116.325 41.748 116.325 41.916 116.325 42.156C116.325 42.396 116.289 42.78 116.217 43.308H107.253C107.229 43.14 107.217 42.912 107.217 42.624C107.217 42.312 107.277 41.988 107.397 41.652C108.189 41.532 108.765 41.34 109.125 41.076C109.509 40.788 109.701 40.32 109.701 39.672V29.556C109.317 29.508 108.909 29.484 108.477 29.484C108.069 29.484 107.661 29.496 107.253 29.52C107.301 28.8 107.385 28.272 107.505 27.936C109.497 27.216 111.573 26.748 113.733 26.532C113.925 27.516 114.057 28.632 114.129 29.88C115.329 27.528 117.201 26.352 119.745 26.352C121.017 26.352 122.097 26.688 122.985 27.36C123.897 28.008 124.509 28.944 124.821 30.168C125.397 28.92 126.189 27.972 127.197 27.324C128.229 26.676 129.453 26.352 130.869 26.352C132.285 26.352 133.485 26.844 134.469 27.828C135.453 28.788 135.945 30.156 135.945 31.932ZM148.761 28.548C147.969 28.548 147.237 28.896 146.565 29.592C145.917 30.288 145.485 31.38 145.269 32.868L148.617 32.616L151.173 32.544C151.101 29.88 150.297 28.548 148.761 28.548ZM145.125 34.488V34.848C145.125 38.928 146.673 40.968 149.769 40.968C151.401 40.968 153.117 40.536 154.917 39.672L155.529 40.716C153.561 42.756 151.209 43.776 148.473 43.776C147.225 43.776 146.001 43.5 144.801 42.948C143.625 42.372 142.593 41.424 141.705 40.104C140.841 38.784 140.409 37.224 140.409 35.424C140.409 32.64 141.273 30.432 143.001 28.8C144.753 27.168 146.805 26.352 149.157 26.352C150.981 26.352 152.517 26.916 153.765 28.044C155.037 29.172 155.673 30.936 155.673 33.336C155.529 33.768 155.337 34.152 155.097 34.488H145.125Z" fill="black"/>
<g clip-path="url(#clip0_920_558)">
<path d="M31.9105 0.805162C31.3948 0.289617 30.6954 0 29.9662 0C29.237 0 28.5377 0.289617 28.022 0.805162L8.77196 20.0552C8.27102 20.5738 7.99384 21.2685 8.0001 21.9895C8.00637 22.7106 8.29558 23.4003 8.80546 23.9102C9.31533 24.42 10.0051 24.7092 10.7261 24.7155C11.4471 24.7218 12.1418 24.4446 12.6605 23.9437L13.4662 23.1379V41.2494C13.4662 41.9788 13.7559 42.6782 14.2717 43.194C14.7874 43.7097 15.4869 43.9994 16.2162 43.9994H21.7162C22.4456 43.9994 23.145 43.7097 23.6608 43.194C24.1765 42.6782 24.4662 41.9788 24.4662 41.2494V35.7494C24.4662 35.0201 24.7559 34.3206 25.2717 33.8049C25.7874 33.2891 26.4869 32.9994 27.2162 32.9994H32.7162C33.4456 32.9994 34.145 33.2891 34.6608 33.8049C35.1765 34.3206 35.4662 35.0201 35.4662 35.7494V41.2494C35.4662 41.9788 35.7559 42.6782 36.2717 43.194C36.7874 43.7097 37.4869 43.9994 38.2162 43.9994H43.7162C44.4456 43.9994 45.145 43.7097 45.6608 43.194C46.1765 42.6782 46.4662 41.9788 46.4662 41.2494V23.1379L47.272 23.9437C47.7906 24.4446 48.4853 24.7218 49.2063 24.7155C49.9274 24.7092 50.6171 24.42 51.127 23.9102C51.6368 23.4003 51.926 22.7106 51.9323 21.9895C51.9386 21.2685 51.6614 20.5738 51.1605 20.0552L31.9105 0.805162Z" fill="black"/>
</g>
<defs>
<clipPath id="clip0_920_558">
<rect width="55" height="55" fill="white"/>
</clipPath>
</defs>
</svg>
