<svg width="224" height="141" viewBox="0 0 224 141" fill="none" xmlns="http://www.w3.org/2000/svg">
<path d="M2 16C2 8.26802 8.26801 2 16 2H208C215.732 2 222 8.26801 222 16V125C222 132.732 215.732 139 208 139H16C8.26802 139 2 132.732 2 125V16Z" stroke="url(#paint0_linear_634_812)" stroke-width="4"/>
<mask id="mask0_634_812" style="mask-type:alpha" maskUnits="userSpaceOnUse" x="0" y="0" width="224" height="141">
<path d="M0 16C0 7.16345 7.16344 0 16 0H208C216.837 0 224 7.16344 224 16V125C224 133.837 216.837 141 208 141H16C7.16345 141 0 133.837 0 125V16Z" fill="#D9D9D9"/>
</mask>
<g mask="url(#mask0_634_812)">
<g filter="url(#filter0_f_634_812)">
<path d="M0 16C0 7.16345 7.16344 0 16 0H111.704V141H16C7.16345 141 0 133.837 0 125V16Z" fill="#298DFF" fill-opacity="0.5"/>
<path d="M224.594 16C224.594 7.16345 217.43 0 208.594 0H92.4456V141H208.594C217.43 141 224.594 133.837 224.594 125V16Z" fill="#4F28E9" fill-opacity="0.5"/>
</g>
</g>
<path fill-rule="evenodd" clip-rule="evenodd" d="M101.375 24.125H98V43.0503C98.0003 44.1867 97.5836 45.2837 96.8289 46.1334C93.2373 50.1767 91.2524 55.3963 91.25 60.8045V83.9587C91.25 84.4649 91.6601 84.875 92.1663 84.875H107.209C107.715 84.875 108.125 84.4649 108.125 83.9587V60.8045C108.125 55.3961 106.14 50.1749 102.548 46.1334C101.792 45.284 101.375 44.187 101.375 43.0503V24.125ZM101.375 20.75C102.27 20.75 103.129 21.1056 103.761 21.7385C104.394 22.3714 104.75 23.2299 104.75 24.125V43.0503C104.75 43.3608 104.863 43.6578 105.071 43.8907C109.211 48.5522 111.498 54.5699 111.5 60.8045V83.9587C111.5 85.0968 111.048 86.1883 110.243 86.9931C109.438 87.7979 108.347 88.25 107.209 88.25H92.1663C91.6028 88.25 91.0447 88.139 90.5241 87.9233C90.0035 87.7077 89.5304 87.3916 89.1319 86.9931C88.7334 86.5946 88.4173 86.1216 88.2017 85.6009C87.986 85.0803 87.875 84.5222 87.875 83.9587V60.8045C87.8768 54.5699 90.1642 48.5522 94.3044 43.8907C94.5105 43.6593 94.6246 43.3602 94.625 43.0503V24.125C94.625 23.2299 94.9806 22.3714 95.6135 21.7385C96.2465 21.1056 97.1049 20.75 98 20.75H101.375Z" fill="black"/>
<path fill-rule="evenodd" clip-rule="evenodd" d="M108.125 64.625H91.25V74.75H108.125V64.625ZM87.875 61.25V78.125H111.5V61.25H87.875ZM119.936 44.375L118.547 57.4497C118.45 58.3553 118.544 59.2712 118.824 60.1379C119.104 61.0046 119.563 61.8026 120.172 62.4802C120.781 63.1577 121.525 63.6995 122.357 64.0705C123.189 64.4414 124.089 64.6331 125 64.6331C125.911 64.6331 126.811 64.4414 127.643 64.0705C128.475 63.6995 129.219 63.1577 129.828 62.4802C130.437 61.8026 130.896 61.0046 131.176 60.1379C131.456 59.2712 131.55 58.3553 131.453 57.4497L130.064 44.375H119.936ZM133.1 41H116.9L115.191 57.092C115.044 58.468 115.188 59.8595 115.614 61.1761C116.04 62.4927 116.738 63.7049 117.664 64.734C118.589 65.7631 119.72 66.586 120.984 67.1494C122.248 67.7127 123.616 68.0038 125 68.0038C126.384 68.0038 127.752 67.7127 129.016 67.1494C130.28 66.586 131.411 65.7631 132.336 64.734C133.262 63.7049 133.96 62.4927 134.386 61.1761C134.812 59.8595 134.956 58.468 134.809 57.092L133.1 41Z" fill="black"/>
<path fill-rule="evenodd" clip-rule="evenodd" d="M123.312 86.5625V66.3125H126.688V86.5625H123.312Z" fill="black"/>
<path fill-rule="evenodd" clip-rule="evenodd" d="M116.562 86.5625C116.562 86.1149 116.74 85.6857 117.057 85.3693C117.373 85.0528 117.802 84.875 118.25 84.875H131.75C132.198 84.875 132.627 85.0528 132.943 85.3693C133.26 85.6857 133.438 86.1149 133.438 86.5625C133.438 87.0101 133.26 87.4393 132.943 87.7557C132.627 88.0722 132.198 88.25 131.75 88.25H118.25C117.802 88.25 117.373 88.0722 117.057 87.7557C116.74 87.4393 116.562 87.0101 116.562 86.5625ZM132.594 57.875H117.406V54.5H132.594V57.875Z" fill="black"/>
<path opacity="0.8" d="M17.9962 111.28C17.9109 110.896 17.8682 110.597 17.8682 110.384C17.8682 110.149 17.8789 109.968 17.9002 109.84H25.8683C25.9536 110.096 25.9963 110.576 25.9963 111.28C25.0789 111.323 24.4283 111.419 24.0443 111.568L27.5003 122.448C27.5856 121.851 27.8203 120.987 28.2043 119.856L30.5403 113.328C30.6683 112.965 30.7323 112.667 30.7323 112.432C30.7323 112.197 30.6896 112.016 30.6043 111.888C30.4123 111.589 29.9109 111.387 29.1003 111.28C28.9936 110.96 28.9403 110.672 28.9403 110.416C28.9403 110.16 28.9403 109.968 28.9403 109.84H35.6283C35.6496 110.309 35.5536 110.789 35.3403 111.28C34.5723 111.323 33.9323 111.461 33.4203 111.696L28.2043 124.688H24.8763L20.2682 113.136C20.0549 112.539 19.7989 112.112 19.5003 111.856C19.2016 111.6 18.7003 111.408 17.9962 111.28ZM41.688 107.024C41.2187 107.493 40.6533 107.728 39.992 107.728C39.3307 107.728 38.7653 107.493 38.296 107.024C37.8267 106.555 37.592 105.989 37.592 105.328C37.592 104.667 37.8267 104.101 38.296 103.632C38.7653 103.163 39.3307 102.928 39.992 102.928C40.6747 102.928 41.24 103.163 41.688 103.632C42.1573 104.08 42.392 104.645 42.392 105.328C42.392 105.989 42.1573 106.555 41.688 107.024ZM43.928 123.024C43.928 123.109 43.928 123.259 43.928 123.472C43.928 123.685 43.896 124.027 43.832 124.496H35.864C35.8427 124.347 35.832 124.144 35.832 123.888C35.832 123.611 35.8853 123.323 35.992 123.024C36.696 122.917 37.208 122.747 37.528 122.512C37.8693 122.256 38.04 121.84 38.04 121.264V112.272C37.6987 112.229 37.336 112.208 36.952 112.208C36.5893 112.208 36.2267 112.219 35.864 112.24C35.9067 111.621 35.9813 111.131 36.088 110.768C37.944 110.149 39.9173 109.755 42.008 109.584V122.608C42.5413 122.843 43.1813 122.981 43.928 123.024ZM53.541 111.376C52.837 111.376 52.1863 111.685 51.589 112.304C51.013 112.923 50.629 113.893 50.437 115.216L53.413 114.992L55.685 114.928C55.621 112.56 54.9063 111.376 53.541 111.376ZM50.309 116.656V116.976C50.309 120.603 51.685 122.416 54.437 122.416C55.8877 122.416 57.413 122.032 59.013 121.264L59.557 122.192C57.8077 124.005 55.717 124.912 53.285 124.912C52.1757 124.912 51.0877 124.667 50.021 124.176C48.9757 123.664 48.0583 122.821 47.269 121.648C46.501 120.475 46.117 119.088 46.117 117.488C46.117 115.013 46.885 113.051 48.421 111.6C49.9783 110.149 51.8023 109.424 53.893 109.424C55.5143 109.424 56.8797 109.925 57.989 110.928C59.1197 111.931 59.685 113.499 59.685 115.632C59.557 116.016 59.3863 116.357 59.173 116.656H50.309ZM84.7813 109.84C84.8239 109.968 84.8453 110.149 84.8453 110.384C84.8453 110.597 84.7706 110.896 84.6213 111.28C84.1733 111.323 83.7679 111.397 83.4053 111.504L78.0933 124.688H76.4933L73.0053 115.728L69.1013 124.688H67.5013L62.6693 111.568C62.2426 111.397 61.8159 111.301 61.3893 111.28C61.3039 110.939 61.2613 110.651 61.2613 110.416C61.2613 110.181 61.2826 109.989 61.3253 109.84H68.6533C68.7386 110.203 68.7812 110.683 68.7812 111.28C68.0133 111.344 67.5546 111.472 67.4053 111.664C67.2559 111.856 67.1813 112.059 67.1813 112.272C67.1813 112.464 67.2133 112.667 67.2773 112.88L69.1653 118.544C69.3359 118.949 69.4533 119.408 69.5173 119.92H69.5813L73.3253 110.48H74.9253L77.8693 118.544C78.0399 118.949 78.1573 119.397 78.2213 119.888H78.2853L80.7812 112.912C80.8879 112.613 80.9413 112.368 80.9413 112.176C80.9413 111.963 80.8559 111.771 80.6853 111.6C80.5146 111.408 80.0453 111.301 79.2773 111.28C79.2559 111.131 79.2453 110.928 79.2453 110.672C79.2453 110.416 79.2879 110.139 79.3733 109.84H84.7813ZM98.341 120.496C98.341 121.072 98.501 121.531 98.821 121.872C99.1623 122.213 99.6743 122.384 100.357 122.384C101.061 122.384 101.69 122.075 102.245 121.456V117.296L100.837 117.68C99.173 118.149 98.341 119.088 98.341 120.496ZM105.541 124.912C104.816 124.912 104.154 124.763 103.557 124.464C102.981 124.144 102.586 123.696 102.373 123.12C101.349 124.315 100.122 124.912 98.693 124.912C97.285 124.912 96.1757 124.528 95.365 123.76C94.5543 122.992 94.149 122.011 94.149 120.816C94.149 119.621 94.533 118.672 95.301 117.968C96.069 117.264 97.2317 116.752 98.789 116.432L102.245 115.728V114.576C102.245 113.765 102.042 113.179 101.637 112.816C101.253 112.432 100.538 112.24 99.493 112.24C98.469 112.24 97.285 112.475 95.941 112.944L95.141 111.76C96.933 110.203 99.0023 109.424 101.349 109.424C102.949 109.424 104.154 109.861 104.965 110.736C105.776 111.611 106.181 112.848 106.181 114.448V120.816C106.181 121.904 106.522 122.448 107.205 122.448C107.312 122.448 107.706 122.384 108.389 122.256L108.709 123.088C107.728 124.304 106.672 124.912 105.541 124.912ZM135.274 114.384V122.608C136.17 122.864 136.885 123.003 137.418 123.024C137.44 123.131 137.45 123.312 137.45 123.568C137.45 123.803 137.397 124.112 137.29 124.496H129.45C129.429 124.347 129.418 124.155 129.418 123.92C129.418 123.685 129.461 123.387 129.546 123.024C130.186 122.917 130.634 122.747 130.89 122.512C131.168 122.277 131.306 121.861 131.306 121.264V114.832C131.306 113.915 131.093 113.232 130.666 112.784C130.261 112.315 129.696 112.08 128.97 112.08C127.477 112.08 126.346 113.104 125.578 115.152V122.608C126.112 122.843 126.762 122.981 127.53 123.024C127.53 123.131 127.53 123.312 127.53 123.568C127.53 123.803 127.488 124.112 127.402 124.496H119.754C119.733 124.347 119.722 124.144 119.722 123.888C119.722 123.611 119.776 123.323 119.882 123.024C120.522 122.917 120.97 122.747 121.226 122.512C121.482 122.277 121.61 121.861 121.61 121.264V114.832C121.61 113.915 121.397 113.232 120.97 112.784C120.565 112.315 120 112.08 119.274 112.08C117.802 112.08 116.682 113.072 115.914 115.056V122.608C116.448 122.843 117.088 122.981 117.834 123.024C117.834 123.109 117.834 123.259 117.834 123.472C117.834 123.685 117.802 124.027 117.738 124.496H109.77C109.749 124.347 109.738 124.144 109.738 123.888C109.738 123.611 109.792 123.323 109.898 123.024C110.602 122.917 111.114 122.747 111.434 122.512C111.776 122.256 111.946 121.84 111.946 121.264V112.272C111.605 112.229 111.242 112.208 110.858 112.208C110.496 112.208 110.133 112.219 109.77 112.24C109.813 111.6 109.888 111.131 109.994 110.832C111.765 110.192 113.61 109.776 115.53 109.584C115.701 110.459 115.818 111.451 115.882 112.56C116.949 110.469 118.613 109.424 120.874 109.424C122.005 109.424 122.965 109.723 123.754 110.32C124.565 110.896 125.109 111.728 125.386 112.816C125.898 111.707 126.602 110.864 127.498 110.288C128.416 109.712 129.504 109.424 130.762 109.424C132.021 109.424 133.088 109.861 133.962 110.736C134.837 111.589 135.274 112.805 135.274 114.384ZM150.154 117.68C150.154 113.392 148.991 111.248 146.666 111.248C144.511 111.248 143.434 113.051 143.434 116.656C143.434 116.827 143.434 116.997 143.434 117.168C143.605 121.051 144.789 122.992 146.986 122.992C149.098 122.992 150.154 121.221 150.154 117.68ZM146.826 109.424C149.087 109.424 150.911 110.096 152.298 111.44C153.685 112.784 154.378 114.683 154.378 117.136C154.378 119.589 153.674 121.499 152.266 122.864C150.858 124.208 149.023 124.88 146.762 124.88C144.501 124.88 142.677 124.208 141.29 122.864C139.925 121.52 139.242 119.621 139.242 117.168C139.242 114.715 139.946 112.816 141.354 111.472C142.762 110.107 144.586 109.424 146.826 109.424ZM171.247 112.72V121.968C171.93 122.075 172.57 122.128 173.167 122.128C173.231 122.384 173.263 122.629 173.263 122.864C173.263 123.099 173.252 123.301 173.231 123.472C171.631 124.197 169.796 124.592 167.727 124.656C167.535 123.675 167.407 122.693 167.343 121.712C166.191 123.824 164.527 124.88 162.351 124.88C160.964 124.88 159.834 124.443 158.959 123.568C158.084 122.672 157.647 121.435 157.647 119.856V112.144C157.327 112.123 156.996 112.112 156.655 112.112C156.335 112.112 156.047 112.112 155.791 112.112C155.834 111.472 155.908 111.003 156.015 110.704C157.892 110 159.748 109.595 161.583 109.488V119.408C161.583 120.304 161.796 120.997 162.223 121.488C162.671 121.957 163.247 122.192 163.951 122.192C165.38 122.192 166.5 121.168 167.311 119.12V113.52C167.311 112.24 166.863 111.408 165.967 111.024C166.052 110.619 166.159 110.32 166.287 110.128C167.46 109.68 168.719 109.456 170.063 109.456C170.49 109.456 170.927 109.477 171.375 109.52C171.29 110.288 171.247 111.355 171.247 112.72ZM191.141 114.384V122.608C192.058 122.864 192.783 123.003 193.317 123.024C193.338 123.131 193.349 123.312 193.349 123.568C193.349 123.803 193.295 124.112 193.189 124.496H185.317C185.295 124.347 185.285 124.144 185.285 123.888C185.285 123.611 185.338 123.323 185.445 123.024C186.085 122.917 186.533 122.747 186.789 122.512C187.045 122.277 187.173 121.861 187.173 121.264V114.832C187.173 113.915 186.959 113.232 186.533 112.784C186.127 112.315 185.562 112.08 184.837 112.08C183.365 112.08 182.245 113.072 181.477 115.056V122.608C182.01 122.843 182.65 122.981 183.397 123.024C183.397 123.109 183.397 123.259 183.397 123.472C183.397 123.685 183.365 124.027 183.301 124.496H175.333C175.311 124.347 175.301 124.144 175.301 123.888C175.301 123.611 175.354 123.323 175.461 123.024C176.165 122.917 176.677 122.747 176.997 122.512C177.338 122.256 177.509 121.84 177.509 121.264V112.272C177.167 112.229 176.805 112.208 176.421 112.208C176.058 112.208 175.695 112.219 175.333 112.24C175.375 111.6 175.45 111.131 175.557 110.832C177.327 110.192 179.173 109.776 181.093 109.584C181.263 110.459 181.381 111.451 181.445 112.56C182.511 110.469 184.175 109.424 186.437 109.424C187.823 109.424 188.954 109.861 189.829 110.736C190.703 111.589 191.141 112.805 191.141 114.384ZM200.722 124.88C199.506 124.88 198.525 124.517 197.778 123.792C197.032 123.045 196.658 121.947 196.658 120.496V111.952C196.061 111.867 195.378 111.824 194.61 111.824C194.61 111.376 194.632 110.96 194.674 110.576C195.208 110.363 195.858 110.16 196.626 109.968L199.794 105.328L200.594 105.552V109.936C202.088 109.893 203.442 109.797 204.658 109.648C204.658 110.459 204.562 111.184 204.37 111.824H200.594L200.626 120.304C200.626 121.563 201.117 122.192 202.098 122.192C202.909 122.192 203.73 121.872 204.562 121.232L205.234 122.096C203.933 123.952 202.429 124.88 200.722 124.88Z" fill="black"/>
<defs>
<filter id="filter0_f_634_812" x="-100" y="-100" width="424.594" height="341" filterUnits="userSpaceOnUse" color-interpolation-filters="sRGB">
<feFlood flood-opacity="0" result="BackgroundImageFix"/>
<feBlend mode="normal" in="SourceGraphic" in2="BackgroundImageFix" result="shape"/>
<feGaussianBlur stdDeviation="50" result="effect1_foregroundBlur_634_812"/>
</filter>
<linearGradient id="paint0_linear_634_812" x1="221.185" y1="1.73836" x2="-16.4167" y2="89.2887" gradientUnits="userSpaceOnUse">
<stop stop-color="#5757EC"/>
<stop offset="1" stop-color="#FFFCFC" stop-opacity="0.5"/>
</linearGradient>
</defs>
</svg>
