<svg width="817" height="76" viewBox="0 0 817 76" fill="none" xmlns="http://www.w3.org/2000/svg">
<path d="M2 16C2 8.26801 8.26801 2 16 2H801C808.732 2 815 8.26801 815 16V60C815 67.732 808.732 74 801 74H16C8.268 74 2 67.732 2 60V16Z" stroke="url(#paint0_linear_181_8)" stroke-width="4"/>
<mask id="mask0_181_8" style="mask-type:alpha" maskUnits="userSpaceOnUse" x="0" y="0" width="813" height="76">
<path d="M0 16C0 7.16344 7.16344 0 16 0H797C805.837 0 813 7.16344 813 16V60C813 68.8366 805.837 76 797 76H16C7.16345 76 0 68.8366 0 60V16Z" fill="#D9D9D9"/>
</mask>
<g mask="url(#mask0_181_8)">
<g filter="url(#filter0_f_181_8)">
<path d="M0 16C0 7.16344 7.16344 0 16 0H405.425V76H16C7.16343 76 0 68.8366 0 60V16Z" fill="#298DFF" fill-opacity="0.5"/>
<path d="M815.155 16C815.155 7.16344 807.992 0 799.155 0H335.528V76H799.155C807.992 76 815.155 68.8366 815.155 60V16Z" fill="#4F28E9" fill-opacity="0.5"/>
</g>
</g>
<path d="M32.6428 27.176C31.2268 27.296 30.5188 27.668 30.5188 28.292C30.5188 28.58 30.6268 28.904 30.8428 29.264L35.4148 37.58H35.5228C35.7388 36.86 36.0748 36.128 36.5308 35.384L41.3548 27.572C40.6108 27.332 39.9028 27.2 39.2308 27.176C39.2308 26.84 39.2788 26.408 39.3748 25.88H45.4588C45.4588 26.336 45.4108 26.768 45.3148 27.176C44.6188 27.272 44.0908 27.452 43.7308 27.716C43.3948 27.98 43.0228 28.436 42.6148 29.084L36.5308 38.912V46.508C37.2508 46.748 38.1148 46.892 39.1228 46.94C39.1228 47.396 39.0868 47.84 39.0148 48.272H30.2668C30.2668 48.176 30.2668 48.02 30.2668 47.804C30.2668 47.564 30.3028 47.276 30.3748 46.94C31.2148 46.82 31.8148 46.64 32.1748 46.4C32.5588 46.16 32.7508 45.728 32.7508 45.104V39.2L25.9828 27.536C25.3828 27.344 24.7468 27.224 24.0748 27.176C23.9788 26.552 23.9308 26.12 23.9308 25.88H32.4268C32.5708 26.312 32.6428 26.744 32.6428 27.176ZM55.0233 46.904C57.7833 46.904 59.1633 44.804 59.1633 40.604C59.1633 38.108 58.7673 36.236 57.9753 34.988C57.2073 33.716 56.1033 33.08 54.6633 33.08C51.8553 33.08 50.4513 35.3 50.4513 39.74C50.4513 39.836 50.4513 39.944 50.4513 40.064C50.5953 44.624 52.1193 46.904 55.0233 46.904ZM54.8793 31.388C57.3033 31.388 59.2353 32.168 60.6753 33.728C62.1393 35.264 62.8713 37.364 62.8713 40.028C62.8713 42.692 62.1273 44.804 60.6393 46.364C59.1513 47.924 57.1833 48.704 54.7353 48.704C52.3113 48.704 50.3793 47.936 48.9393 46.4C47.4993 44.84 46.7793 42.728 46.7793 40.064C46.7793 37.4 47.5233 35.288 49.0113 33.728C50.4993 32.168 52.4553 31.388 54.8793 31.388ZM80.9607 34.88V45.788C81.9207 45.884 82.6767 45.932 83.2287 45.932C83.2527 46.172 83.2647 46.4 83.2647 46.616C83.2647 46.832 83.2647 47.012 83.2647 47.156C81.6567 47.876 79.8687 48.308 77.9007 48.452C77.7087 47.396 77.5887 46.232 77.5407 44.96C76.1487 47.456 74.2887 48.704 71.9607 48.704C70.4967 48.704 69.2847 48.224 68.3247 47.264C67.3647 46.28 66.8847 44.9 66.8847 43.124V34.124C66.5967 34.1 66.2727 34.088 65.9127 34.088C65.5767 34.088 65.2047 34.1 64.7967 34.124C64.7967 33.692 64.8567 33.272 64.9767 32.864C66.8487 32.12 68.6367 31.676 70.3407 31.532V42.764C70.3407 43.868 70.6047 44.72 71.1327 45.32C71.6607 45.92 72.3687 46.22 73.2567 46.22C75.0087 46.22 76.4247 45.032 77.5047 42.656V35.492C77.5047 34.22 77.0967 33.368 76.2807 32.936C76.3047 32.648 76.3887 32.396 76.5327 32.18C77.6127 31.724 78.8367 31.496 80.2047 31.496C80.4927 31.496 80.7927 31.508 81.1047 31.532C81.0087 32.396 80.9607 33.512 80.9607 34.88ZM88.1736 45.032V34.232C87.4776 34.208 86.9376 34.196 86.5536 34.196C86.1936 34.196 85.9056 34.196 85.6896 34.196C85.7376 33.668 85.8096 33.248 85.9056 32.936C87.6336 32.288 89.4336 31.844 91.3056 31.604C91.5456 33.068 91.6656 34.664 91.6656 36.392C92.2416 34.904 93.0936 33.704 94.2216 32.792C95.3736 31.856 96.6216 31.388 97.9656 31.388C98.0856 31.748 98.1456 32.204 98.1456 32.756C98.1456 33.284 98.0376 33.932 97.8216 34.7C96.3096 34.7 94.9656 35.06 93.7896 35.78C92.6136 36.5 91.9056 37.676 91.6656 39.308V46.22C92.6736 46.604 93.8616 46.832 95.2296 46.904C95.2296 47.456 95.1816 47.912 95.0856 48.272H85.7256C85.7016 48.128 85.6896 47.936 85.6896 47.696C85.6896 47.456 85.7376 47.192 85.8336 46.904C86.6736 46.784 87.2736 46.604 87.6336 46.364C87.9936 46.1 88.1736 45.656 88.1736 45.032ZM114.276 37.328H116.976C118.632 37.328 119.904 36.872 120.792 35.96C121.68 35.048 122.124 33.848 122.124 32.36C122.124 30.872 121.68 29.672 120.792 28.76C119.928 27.848 118.656 27.392 116.976 27.392H114.276V37.328ZM117.66 25.88C120.132 25.88 122.136 26.504 123.672 27.752C125.232 29 126.012 30.548 126.012 32.396C126.012 34.22 125.244 35.756 123.708 37.004C122.172 38.252 120.168 38.876 117.696 38.876H114.276V46.22C115.236 46.628 116.376 46.868 117.696 46.94C117.696 47.468 117.648 47.912 117.552 48.272H108.372C108.348 48.152 108.336 47.972 108.336 47.732C108.336 47.492 108.396 47.228 108.516 46.94C109.332 46.82 109.908 46.64 110.244 46.4C110.604 46.16 110.784 45.728 110.784 45.104V27.716C110.016 27.404 109.188 27.224 108.3 27.176C108.3 27.104 108.3 26.972 108.3 26.78C108.3 26.564 108.336 26.264 108.408 25.88H117.66ZM131.805 43.88C131.805 44.672 132.021 45.284 132.453 45.716C132.909 46.148 133.509 46.364 134.253 46.364C135.381 46.364 136.341 45.956 137.133 45.14V39.776L135.009 40.352C132.873 40.928 131.805 42.104 131.805 43.88ZM140.229 48.74C139.509 48.74 138.873 48.56 138.321 48.2C137.769 47.84 137.409 47.336 137.241 46.688C136.089 48.056 134.721 48.74 133.137 48.74C131.577 48.74 130.353 48.308 129.465 47.444C128.577 46.58 128.133 45.488 128.133 44.168C128.133 42.824 128.565 41.744 129.429 40.928C130.317 40.088 131.673 39.476 133.497 39.092L137.133 38.3V36.86C137.133 34.916 136.185 33.944 134.289 33.944C132.897 33.944 131.409 34.232 129.825 34.808L129.141 33.8C131.013 32.192 133.173 31.388 135.621 31.388C137.229 31.388 138.453 31.856 139.293 32.792C140.157 33.704 140.589 34.988 140.589 36.644V44.528C140.589 45.8 140.973 46.436 141.741 46.436C141.909 46.436 142.353 46.364 143.073 46.22L143.361 46.904C142.401 48.128 141.357 48.74 140.229 48.74ZM147.412 45.032V34.232C146.716 34.208 146.176 34.196 145.792 34.196C145.432 34.196 145.144 34.196 144.928 34.196C144.976 33.668 145.048 33.248 145.144 32.936C146.872 32.288 148.672 31.844 150.544 31.604C150.784 33.068 150.904 34.664 150.904 36.392C151.48 34.904 152.332 33.704 153.46 32.792C154.612 31.856 155.86 31.388 157.204 31.388C157.324 31.748 157.384 32.204 157.384 32.756C157.384 33.284 157.276 33.932 157.06 34.7C155.548 34.7 154.204 35.06 153.028 35.78C151.852 36.5 151.144 37.676 150.904 39.308V46.22C151.912 46.604 153.1 46.832 154.468 46.904C154.468 47.456 154.42 47.912 154.324 48.272H144.964C144.94 48.128 144.928 47.936 144.928 47.696C144.928 47.456 144.976 47.192 145.072 46.904C145.912 46.784 146.512 46.604 146.872 46.364C147.232 46.1 147.412 45.656 147.412 45.032ZM164.802 48.704C163.554 48.704 162.522 48.32 161.706 47.552C160.914 46.784 160.518 45.644 160.518 44.132V33.836C159.846 33.74 159.078 33.692 158.214 33.692C158.214 33.332 158.238 32.984 158.286 32.648C158.886 32.408 159.63 32.204 160.518 32.036L163.29 27.212L164.01 27.428V32C165.81 31.952 167.418 31.856 168.834 31.712C168.834 32.528 168.738 33.212 168.546 33.764H164.01L164.046 43.844C164.046 45.404 164.67 46.184 165.918 46.184C166.998 46.184 168.03 45.788 169.014 44.996L169.59 45.68C168.222 47.696 166.626 48.704 164.802 48.704ZM174.497 56.516H173.921C173.657 55.748 173.525 55.088 173.525 54.536C173.525 54.008 173.549 53.588 173.597 53.276H174.461C175.373 53.276 176.081 53.096 176.585 52.736C177.089 52.4 177.569 51.752 178.025 50.792L178.781 49.172L173.093 35.204C172.805 34.508 172.493 34.028 172.157 33.764C171.821 33.476 171.257 33.284 170.465 33.188C170.393 32.78 170.357 32.48 170.357 32.288C170.357 32.096 170.369 31.952 170.393 31.856H178.529C178.625 32.168 178.673 32.612 178.673 33.188C177.641 33.236 176.849 33.368 176.297 33.584L180.401 45.68C180.545 45.104 180.725 44.54 180.941 43.988L184.325 35.456C184.493 35.072 184.577 34.748 184.577 34.484C184.577 34.22 184.517 34.004 184.397 33.836C184.109 33.5 183.449 33.284 182.417 33.188C182.321 32.852 182.273 32.576 182.273 32.36C182.273 32.144 182.285 31.976 182.309 31.856H189.113C189.137 32.264 189.053 32.708 188.861 33.188C188.309 33.236 187.781 33.344 187.277 33.512L179.321 51.872C178.673 53.456 177.965 54.62 177.197 55.364C176.453 56.132 175.553 56.516 174.497 56.516ZM205.155 46.724H211.383C212.511 46.724 213.267 46.436 213.651 45.86C214.035 45.26 214.287 44.264 214.407 42.872C214.863 42.872 215.283 42.896 215.667 42.944C215.787 44.216 215.847 45.284 215.847 46.148C215.847 47.012 215.835 47.72 215.811 48.272H199.251C199.227 48.152 199.215 47.972 199.215 47.732C199.215 47.492 199.275 47.228 199.395 46.94C200.211 46.82 200.787 46.64 201.123 46.4C201.483 46.16 201.663 45.728 201.663 45.104V27.68C200.991 27.392 200.163 27.224 199.179 27.176C199.179 27.104 199.179 26.972 199.179 26.78C199.179 26.564 199.215 26.264 199.287 25.88H207.531C207.555 26 207.567 26.18 207.567 26.42C207.567 26.66 207.507 26.912 207.387 27.176C206.595 27.272 206.019 27.452 205.659 27.716C205.323 27.956 205.155 28.388 205.155 29.012V46.724ZM224.779 26.6C224.779 27.224 224.551 27.764 224.095 28.22C223.663 28.676 223.123 28.904 222.475 28.904C221.851 28.904 221.311 28.676 220.855 28.22C220.423 27.764 220.207 27.224 220.207 26.6C220.207 25.952 220.423 25.412 220.855 24.98C221.311 24.524 221.851 24.296 222.475 24.296C223.123 24.296 223.663 24.524 224.095 24.98C224.551 25.412 224.779 25.952 224.779 26.6ZM226.579 46.904C226.579 46.976 226.579 47.12 226.579 47.336C226.579 47.528 226.543 47.84 226.471 48.272H218.335C218.311 48.128 218.299 47.936 218.299 47.696C218.299 47.456 218.347 47.192 218.443 46.904C219.283 46.808 219.883 46.64 220.243 46.4C220.603 46.136 220.783 45.692 220.783 45.068V34.268C220.375 34.22 219.955 34.196 219.523 34.196C219.091 34.196 218.683 34.208 218.299 34.232C218.347 33.728 218.419 33.296 218.515 32.936C220.267 32.288 222.187 31.832 224.275 31.568V46.436C224.947 46.7 225.715 46.856 226.579 46.904ZM234.856 47.012C235.864 47.012 236.68 46.784 237.304 46.328C237.928 45.848 238.24 45.272 238.24 44.6C238.24 43.928 237.964 43.352 237.412 42.872C236.86 42.368 236.188 41.936 235.396 41.576C234.604 41.192 233.8 40.784 232.984 40.352C232.192 39.92 231.52 39.356 230.968 38.66C230.416 37.94 230.14 37.112 230.14 36.176C230.14 34.592 230.704 33.404 231.832 32.612C232.96 31.796 234.304 31.388 235.864 31.388C237.448 31.388 238.984 31.628 240.472 32.108C240.496 32.492 240.508 33.044 240.508 33.764C240.508 34.46 240.436 35.336 240.292 36.392C239.932 36.392 239.56 36.344 239.176 36.248C239.2 36.008 239.212 35.792 239.212 35.6C239.212 33.848 238.216 32.972 236.224 32.972C235.384 32.972 234.688 33.2 234.136 33.656C233.608 34.088 233.344 34.652 233.344 35.348C233.344 36.044 233.62 36.644 234.172 37.148C234.748 37.628 235.444 38.048 236.26 38.408C237.076 38.768 237.892 39.152 238.708 39.56C239.524 39.968 240.208 40.532 240.76 41.252C241.336 41.948 241.624 42.764 241.624 43.7C241.624 45.212 240.976 46.436 239.68 47.372C238.408 48.284 236.824 48.74 234.928 48.74C233.056 48.74 231.328 48.488 229.744 47.984C229.696 47.456 229.672 46.82 229.672 46.076C229.672 45.308 229.744 44.42 229.888 43.412C230.176 43.412 230.56 43.436 231.04 43.484C231.04 43.628 231.04 43.76 231.04 43.88C231.04 45.968 232.312 47.012 234.856 47.012ZM250.443 48.704C249.195 48.704 248.163 48.32 247.347 47.552C246.555 46.784 246.159 45.644 246.159 44.132V33.836C245.487 33.74 244.719 33.692 243.855 33.692C243.855 33.332 243.879 32.984 243.927 32.648C244.527 32.408 245.271 32.204 246.159 32.036L248.931 27.212L249.651 27.428V32C251.451 31.952 253.059 31.856 254.475 31.712C254.475 32.528 254.379 33.212 254.187 33.764H249.651L249.687 43.844C249.687 45.404 250.311 46.184 251.559 46.184C252.639 46.184 253.671 45.788 254.655 44.996L255.231 45.68C253.863 47.696 252.267 48.704 250.443 48.704Z" fill="black"/>
<defs>
<filter id="filter0_f_181_8" x="-100" y="-100" width="1015.16" height="276" filterUnits="userSpaceOnUse" color-interpolation-filters="sRGB">
<feFlood flood-opacity="0" result="BackgroundImageFix"/>
<feBlend mode="normal" in="SourceGraphic" in2="BackgroundImageFix" result="shape"/>
<feGaussianBlur stdDeviation="50" result="effect1_foregroundBlur_181_8"/>
</filter>
<linearGradient id="paint0_linear_181_8" x1="806.733" y1="0.936988" x2="670.349" y2="340.994" gradientUnits="userSpaceOnUse">
<stop stop-color="#5757EC"/>
<stop offset="1" stop-color="#FFFCFC" stop-opacity="0.5"/>
</linearGradient>
</defs>
</svg>
